<mxfile host="app.diagrams.net" agent="Mozilla/5.0 (Macintosh; Intel Mac OS X 10_15_7) AppleWebKit/537.36 (KHTML, like Gecko) Chrome/139.0.0.0 Safari/537.36" version="28.1.1">
  <diagram name="Page-1" id="pdJnaB45frt4LPTV-nXY">
    <mxGraphModel grid="0" page="0" gridSize="10" guides="0" tooltips="1" connect="1" arrows="1" fold="1" pageScale="1" pageWidth="850" pageHeight="1100" math="0" shadow="0">
      <root>
        <mxCell id="0" />
        <mxCell id="1" parent="0" />
        <mxCell id="3nvkodp_Ylz2N9TC8zaz-287" value="" style="group" connectable="0" vertex="1" parent="1">
          <mxGeometry x="-1085" y="1975" width="1152" height="406" as="geometry" />
        </mxCell>
        <mxCell id="3nvkodp_Ylz2N9TC8zaz-263" style="edgeStyle=orthogonalEdgeStyle;rounded=0;orthogonalLoop=1;jettySize=auto;html=1;" edge="1" parent="3nvkodp_Ylz2N9TC8zaz-287" source="3nvkodp_Ylz2N9TC8zaz-261" target="3nvkodp_Ylz2N9TC8zaz-121">
          <mxGeometry relative="1" as="geometry">
            <Array as="points">
              <mxPoint x="706" y="140" />
              <mxPoint x="755" y="140" />
            </Array>
          </mxGeometry>
        </mxCell>
        <mxCell id="3nvkodp_Ylz2N9TC8zaz-261" value="&lt;b&gt;Metadata&lt;/b&gt;&lt;div&gt;&lt;b&gt;Collector&lt;/b&gt;&lt;/div&gt;" style="shape=hexagon;perimeter=hexagonPerimeter2;whiteSpace=wrap;html=1;fixedSize=1;" vertex="1" parent="3nvkodp_Ylz2N9TC8zaz-287">
          <mxGeometry x="646" y="41" width="120" height="66" as="geometry" />
        </mxCell>
        <mxCell id="3nvkodp_Ylz2N9TC8zaz-262" value="&lt;b&gt;Instagram&lt;/b&gt;&lt;div&gt;&lt;b&gt;CDN&lt;/b&gt;&lt;/div&gt;" style="shape=hexagon;perimeter=hexagonPerimeter2;whiteSpace=wrap;html=1;fixedSize=1;" vertex="1" parent="3nvkodp_Ylz2N9TC8zaz-287">
          <mxGeometry x="775" y="41" width="120" height="65" as="geometry" />
        </mxCell>
        <mxCell id="3nvkodp_Ylz2N9TC8zaz-276" value="" style="group;fillColor=#dae8fc;strokeColor=#6c8ebf;container=0;" connectable="0" vertex="1" parent="3nvkodp_Ylz2N9TC8zaz-287">
          <mxGeometry x="-20" y="150" width="1172" height="256" as="geometry" />
        </mxCell>
        <mxCell id="3nvkodp_Ylz2N9TC8zaz-267" style="edgeStyle=orthogonalEdgeStyle;rounded=0;orthogonalLoop=1;jettySize=auto;html=1;entryX=0.5;entryY=0;entryDx=0;entryDy=0;" edge="1" parent="3nvkodp_Ylz2N9TC8zaz-287">
          <mxGeometry relative="1" as="geometry">
            <mxPoint x="836" y="107" as="sourcePoint" />
            <mxPoint x="755.5" y="178" as="targetPoint" />
            <Array as="points">
              <mxPoint x="836" y="140" />
              <mxPoint x="756" y="140" />
            </Array>
          </mxGeometry>
        </mxCell>
        <mxCell id="3nvkodp_Ylz2N9TC8zaz-289" value="&lt;div&gt;&lt;span style=&quot;font-size: 11px;&quot;&gt;1. Fetch metadata&lt;/span&gt;&lt;/div&gt;" style="text;html=1;align=right;verticalAlign=middle;whiteSpace=wrap;rounded=0;" vertex="1" parent="3nvkodp_Ylz2N9TC8zaz-287">
          <mxGeometry x="601" y="107" width="101" height="34" as="geometry" />
        </mxCell>
        <mxCell id="3nvkodp_Ylz2N9TC8zaz-290" value="&lt;div&gt;&lt;span style=&quot;font-size: 11px;&quot;&gt;2. Fetch video.mp4 &amp;amp; thumbnail.jpg&lt;/span&gt;&lt;/div&gt;" style="text;html=1;align=left;verticalAlign=middle;whiteSpace=wrap;rounded=0;" vertex="1" parent="3nvkodp_Ylz2N9TC8zaz-287">
          <mxGeometry x="840" y="108" width="199" height="34" as="geometry" />
        </mxCell>
        <mxCell id="3nvkodp_Ylz2N9TC8zaz-297" value="" style="shape=image;verticalLabelPosition=bottom;labelBackgroundColor=default;verticalAlign=top;aspect=fixed;imageAspect=0;image=https://upload.wikimedia.org/wikipedia/commons/thumb/a/a5/Instagram_icon.png/1024px-Instagram_icon.png;" vertex="1" parent="3nvkodp_Ylz2N9TC8zaz-287">
          <mxGeometry x="777" y="24" width="34" height="34" as="geometry" />
        </mxCell>
        <mxCell id="3nvkodp_Ylz2N9TC8zaz-298" value="&lt;div&gt;&lt;b&gt;&lt;font style=&quot;font-size: 14px;&quot;&gt;1.a. INSTAGRAM COLLECTOR&lt;/font&gt;&lt;/b&gt;&lt;/div&gt;" style="text;html=1;align=left;verticalAlign=middle;whiteSpace=wrap;rounded=0;" vertex="1" parent="3nvkodp_Ylz2N9TC8zaz-287">
          <mxGeometry x="-19" y="106" width="284" height="41" as="geometry" />
        </mxCell>
        <mxCell id="3nvkodp_Ylz2N9TC8zaz-112" style="edgeStyle=orthogonalEdgeStyle;rounded=0;orthogonalLoop=1;jettySize=auto;html=1;" edge="1" parent="3nvkodp_Ylz2N9TC8zaz-287" source="3nvkodp_Ylz2N9TC8zaz-113" target="3nvkodp_Ylz2N9TC8zaz-119">
          <mxGeometry relative="1" as="geometry" />
        </mxCell>
        <mxCell id="3nvkodp_Ylz2N9TC8zaz-113" value="&lt;div&gt;&lt;b&gt;NestJs Backend&lt;/b&gt;&lt;/div&gt;/api/acquisition/instagram/run" style="rounded=0;whiteSpace=wrap;html=1;" vertex="1" parent="3nvkodp_Ylz2N9TC8zaz-287">
          <mxGeometry x="215" y="177" width="171" height="60" as="geometry" />
        </mxCell>
        <mxCell id="3nvkodp_Ylz2N9TC8zaz-275" style="edgeStyle=orthogonalEdgeStyle;rounded=0;orthogonalLoop=1;jettySize=auto;html=1;" edge="1" parent="3nvkodp_Ylz2N9TC8zaz-287" source="3nvkodp_Ylz2N9TC8zaz-115" target="3nvkodp_Ylz2N9TC8zaz-113">
          <mxGeometry relative="1" as="geometry" />
        </mxCell>
        <mxCell id="3nvkodp_Ylz2N9TC8zaz-115" value="" style="image;points=[];aspect=fixed;html=1;align=center;shadow=0;dashed=0;image=img/lib/allied_telesis/computer_and_terminals/Laptop.svg;" vertex="1" parent="3nvkodp_Ylz2N9TC8zaz-287">
          <mxGeometry x="11" y="170" width="71.58" height="72.6" as="geometry" />
        </mxCell>
        <mxCell id="3nvkodp_Ylz2N9TC8zaz-116" value="&lt;div&gt;&lt;b&gt;Client&lt;/b&gt;&lt;/div&gt;OrianeAdmin" style="text;html=1;align=center;verticalAlign=middle;whiteSpace=wrap;rounded=0;" vertex="1" parent="3nvkodp_Ylz2N9TC8zaz-287">
          <mxGeometry y="241" width="90" height="39" as="geometry" />
        </mxCell>
        <mxCell id="3nvkodp_Ylz2N9TC8zaz-117" value="" style="shape=image;verticalLabelPosition=bottom;labelBackgroundColor=default;verticalAlign=top;aspect=fixed;imageAspect=0;image=https://docs.nestjs.com/assets/logo-small-gradient.svg;" vertex="1" parent="3nvkodp_Ylz2N9TC8zaz-287">
          <mxGeometry x="198" y="160" width="38.77" height="37.45" as="geometry" />
        </mxCell>
        <mxCell id="3nvkodp_Ylz2N9TC8zaz-118" style="edgeStyle=orthogonalEdgeStyle;rounded=0;orthogonalLoop=1;jettySize=auto;html=1;entryX=0;entryY=0.5;entryDx=0;entryDy=0;" edge="1" parent="3nvkodp_Ylz2N9TC8zaz-287" source="3nvkodp_Ylz2N9TC8zaz-119" target="3nvkodp_Ylz2N9TC8zaz-121">
          <mxGeometry relative="1" as="geometry">
            <mxPoint x="723" y="207" as="targetPoint" />
          </mxGeometry>
        </mxCell>
        <mxCell id="3nvkodp_Ylz2N9TC8zaz-119" value="&lt;div&gt;&lt;span style=&quot;background-color: transparent; color: light-dark(rgb(0, 0, 0), rgb(255, 255, 255));&quot;&gt;&lt;b&gt;AWS SQS&lt;/b&gt;&lt;/span&gt;&lt;/div&gt;&lt;div&gt;&lt;span style=&quot;background-color: transparent; color: light-dark(rgb(0, 0, 0), rgb(255, 255, 255));&quot;&gt;InstagramCollectorQueue&lt;/span&gt;&lt;/div&gt;" style="rounded=0;whiteSpace=wrap;html=1;" vertex="1" parent="3nvkodp_Ylz2N9TC8zaz-287">
          <mxGeometry x="457" y="177" width="171" height="60" as="geometry" />
        </mxCell>
        <mxCell id="3nvkodp_Ylz2N9TC8zaz-120" value="" style="shape=image;verticalLabelPosition=bottom;labelBackgroundColor=default;verticalAlign=top;aspect=fixed;imageAspect=0;image=https://www.apono.io/wp-content/uploads/2023/05/amazon-sqs-min.png;" vertex="1" parent="3nvkodp_Ylz2N9TC8zaz-287">
          <mxGeometry x="446" y="160" width="40" height="40" as="geometry" />
        </mxCell>
        <mxCell id="3nvkodp_Ylz2N9TC8zaz-260" style="edgeStyle=orthogonalEdgeStyle;rounded=0;orthogonalLoop=1;jettySize=auto;html=1;" edge="1" parent="3nvkodp_Ylz2N9TC8zaz-287" source="3nvkodp_Ylz2N9TC8zaz-121" target="3nvkodp_Ylz2N9TC8zaz-127">
          <mxGeometry relative="1" as="geometry" />
        </mxCell>
        <mxCell id="3nvkodp_Ylz2N9TC8zaz-121" value="&lt;div&gt;&lt;b&gt;AWS Lambda&lt;/b&gt;&lt;/div&gt;&lt;div&gt;InstagramCollector&lt;/div&gt;" style="rounded=0;whiteSpace=wrap;html=1;" vertex="1" parent="3nvkodp_Ylz2N9TC8zaz-287">
          <mxGeometry x="669" y="177" width="171" height="60" as="geometry" />
        </mxCell>
        <mxCell id="3nvkodp_Ylz2N9TC8zaz-123" style="edgeStyle=orthogonalEdgeStyle;rounded=0;orthogonalLoop=1;jettySize=auto;html=1;" edge="1" parent="3nvkodp_Ylz2N9TC8zaz-287" target="3nvkodp_Ylz2N9TC8zaz-127">
          <mxGeometry relative="1" as="geometry">
            <mxPoint x="755" y="350" as="sourcePoint" />
          </mxGeometry>
        </mxCell>
        <mxCell id="3nvkodp_Ylz2N9TC8zaz-132" value="&lt;div&gt;&lt;font style=&quot;font-size: 11px;&quot;&gt;authenti&lt;span style=&quot;background-color: transparent; color: light-dark(rgb(0, 0, 0), rgb(255, 255, 255));&quot;&gt;cated&lt;/span&gt;&lt;/font&gt;&lt;/div&gt;&lt;div&gt;&lt;font style=&quot;font-size: 11px;&quot;&gt;http-request&lt;/font&gt;&lt;/div&gt;" style="text;html=1;align=left;verticalAlign=middle;whiteSpace=wrap;rounded=0;" vertex="1" parent="3nvkodp_Ylz2N9TC8zaz-287">
          <mxGeometry x="106" y="170" width="77" height="34" as="geometry" />
        </mxCell>
        <mxCell id="3nvkodp_Ylz2N9TC8zaz-145" value="&lt;span style=&quot;font-size: 11px;&quot;&gt;Batch size: [1] username&lt;/span&gt;" style="text;html=1;align=left;verticalAlign=middle;whiteSpace=wrap;rounded=0;" vertex="1" parent="3nvkodp_Ylz2N9TC8zaz-287">
          <mxGeometry x="490" y="150" width="133" height="30" as="geometry" />
        </mxCell>
        <mxCell id="3nvkodp_Ylz2N9TC8zaz-125" style="edgeStyle=orthogonalEdgeStyle;rounded=0;orthogonalLoop=1;jettySize=auto;html=1;exitX=0.75;exitY=1;exitDx=0;exitDy=0;entryX=0.5;entryY=0;entryDx=0;entryDy=0;entryPerimeter=0;" edge="1" parent="3nvkodp_Ylz2N9TC8zaz-287" target="3nvkodp_Ylz2N9TC8zaz-129">
          <mxGeometry relative="1" as="geometry">
            <mxPoint x="731" y="398" as="targetPoint" />
            <Array as="points">
              <mxPoint x="791" y="283" />
              <mxPoint x="890" y="283" />
            </Array>
            <mxPoint x="790.75" y="238" as="sourcePoint" />
          </mxGeometry>
        </mxCell>
        <mxCell id="3nvkodp_Ylz2N9TC8zaz-127" value="&lt;div&gt;&lt;b&gt;AWS S3&lt;/b&gt;&lt;/div&gt;oriane-contents" style="shape=cylinder3;whiteSpace=wrap;html=1;boundedLbl=1;backgroundOutline=1;size=15;" vertex="1" parent="3nvkodp_Ylz2N9TC8zaz-287">
          <mxGeometry x="699.5" y="299" width="108.5" height="83" as="geometry" />
        </mxCell>
        <mxCell id="3nvkodp_Ylz2N9TC8zaz-128" value="" style="shape=image;verticalLabelPosition=bottom;labelBackgroundColor=default;verticalAlign=top;aspect=fixed;imageAspect=0;image=https://cdn.worldvectorlogo.com/logos/amazon-s3-simple-storage-service.svg;" vertex="1" parent="3nvkodp_Ylz2N9TC8zaz-287">
          <mxGeometry x="690" y="293" width="37" height="37" as="geometry" />
        </mxCell>
        <mxCell id="3nvkodp_Ylz2N9TC8zaz-129" value="&lt;div&gt;&lt;b&gt;AWS AuroraDB&lt;/b&gt;&lt;/div&gt;oriane-admin" style="shape=cylinder3;whiteSpace=wrap;html=1;boundedLbl=1;backgroundOutline=1;size=15;" vertex="1" parent="3nvkodp_Ylz2N9TC8zaz-287">
          <mxGeometry x="836" y="299" width="108.5" height="83" as="geometry" />
        </mxCell>
        <mxCell id="3nvkodp_Ylz2N9TC8zaz-130" value="" style="shape=image;verticalLabelPosition=bottom;labelBackgroundColor=default;verticalAlign=top;aspect=fixed;imageAspect=0;image=https://images.seeklogo.com/logo-png/43/1/aws-aurora-logo-png_seeklogo-430929.png;" vertex="1" parent="3nvkodp_Ylz2N9TC8zaz-287">
          <mxGeometry x="820" y="292" width="38.5" height="38.5" as="geometry" />
        </mxCell>
        <mxCell id="3nvkodp_Ylz2N9TC8zaz-131" value="&lt;font style=&quot;font-size: 11px;&quot;&gt;&lt;b&gt;- onSuccess&lt;/b&gt; -&amp;gt; Update contents.is_downloaded by code&lt;/font&gt;&lt;div&gt;&lt;div&gt;&lt;font style=&quot;font-size: 11px;&quot;&gt;&lt;b&gt;- onError&lt;/b&gt; -&amp;gt; Insert error collector_errors { code, process, error }&lt;/font&gt;&lt;br&gt;&lt;/div&gt;&lt;/div&gt;" style="text;html=1;align=left;verticalAlign=middle;whiteSpace=wrap;rounded=0;" vertex="1" parent="3nvkodp_Ylz2N9TC8zaz-287">
          <mxGeometry x="797" y="241" width="355" height="47" as="geometry" />
        </mxCell>
        <mxCell id="3nvkodp_Ylz2N9TC8zaz-144" value="&lt;div&gt;&lt;span style=&quot;font-size: 11px; background-color: transparent; color: light-dark(rgb(0, 0, 0), rgb(255, 255, 255));&quot;&gt;1. Write video.mp4&lt;/span&gt;&lt;/div&gt;&lt;div&gt;&lt;font style=&quot;font-size: 11px;&quot;&gt;&amp;amp; thumbnail.jpg&lt;/font&gt;&lt;/div&gt;" style="text;html=1;align=right;verticalAlign=middle;whiteSpace=wrap;rounded=0;" vertex="1" parent="3nvkodp_Ylz2N9TC8zaz-287">
          <mxGeometry x="601" y="246" width="147" height="34" as="geometry" />
        </mxCell>
        <mxCell id="3nvkodp_Ylz2N9TC8zaz-281" style="edgeStyle=orthogonalEdgeStyle;rounded=0;orthogonalLoop=1;jettySize=auto;html=1;" edge="1" parent="3nvkodp_Ylz2N9TC8zaz-287" source="3nvkodp_Ylz2N9TC8zaz-278" target="3nvkodp_Ylz2N9TC8zaz-113">
          <mxGeometry relative="1" as="geometry" />
        </mxCell>
        <mxCell id="3nvkodp_Ylz2N9TC8zaz-278" value="&lt;div&gt;&lt;b&gt;AWS AuroraDB&lt;/b&gt;&lt;/div&gt;oriane-admin" style="shape=cylinder3;whiteSpace=wrap;html=1;boundedLbl=1;backgroundOutline=1;size=15;" vertex="1" parent="3nvkodp_Ylz2N9TC8zaz-287">
          <mxGeometry x="246" y="283" width="108.5" height="83" as="geometry" />
        </mxCell>
        <mxCell id="3nvkodp_Ylz2N9TC8zaz-279" value="" style="shape=image;verticalLabelPosition=bottom;labelBackgroundColor=default;verticalAlign=top;aspect=fixed;imageAspect=0;image=https://images.seeklogo.com/logo-png/43/1/aws-aurora-logo-png_seeklogo-430929.png;" vertex="1" parent="3nvkodp_Ylz2N9TC8zaz-287">
          <mxGeometry x="230" y="272" width="40" height="40" as="geometry" />
        </mxCell>
        <mxCell id="3nvkodp_Ylz2N9TC8zaz-280" value="&lt;span style=&quot;font-size: 11px;&quot;&gt;Fetch usernames: [1,000]&lt;/span&gt;" style="text;html=1;align=left;verticalAlign=middle;whiteSpace=wrap;rounded=0;" vertex="1" parent="3nvkodp_Ylz2N9TC8zaz-287">
          <mxGeometry x="304" y="247" width="133" height="30" as="geometry" />
        </mxCell>
        <mxCell id="3eAbmKbxYMUnLQmWRGgr-1" value="&lt;div&gt;&lt;b&gt;AWS Lambda&lt;/b&gt;&lt;/div&gt;&lt;div&gt;InstagramCollector&lt;/div&gt;" style="rounded=0;whiteSpace=wrap;html=1;" vertex="1" parent="3nvkodp_Ylz2N9TC8zaz-287">
          <mxGeometry x="674" y="181" width="171" height="60" as="geometry" />
        </mxCell>
        <mxCell id="3eAbmKbxYMUnLQmWRGgr-2" value="&lt;div&gt;&lt;b&gt;AWS Lambda&lt;/b&gt;&lt;/div&gt;&lt;div&gt;InstagramCollector&lt;/div&gt;" style="rounded=0;whiteSpace=wrap;html=1;" vertex="1" parent="3nvkodp_Ylz2N9TC8zaz-287">
          <mxGeometry x="680" y="186" width="171" height="60" as="geometry" />
        </mxCell>
        <mxCell id="3nvkodp_Ylz2N9TC8zaz-254" value="" style="shape=image;verticalLabelPosition=bottom;labelBackgroundColor=default;verticalAlign=top;aspect=fixed;imageAspect=0;image=https://upload.wikimedia.org/wikipedia/commons/thumb/5/5c/Amazon_Lambda_architecture_logo.svg/2048px-Amazon_Lambda_architecture_logo.svg.png;" vertex="1" parent="3nvkodp_Ylz2N9TC8zaz-287">
          <mxGeometry x="655" y="156" width="38" height="38" as="geometry" />
        </mxCell>
        <mxCell id="3nvkodp_Ylz2N9TC8zaz-305" value="" style="group" connectable="0" vertex="1" parent="3nvkodp_Ylz2N9TC8zaz-287">
          <mxGeometry x="53" y="301" width="150" height="48.17000000000007" as="geometry" />
        </mxCell>
        <mxCell id="3nvkodp_Ylz2N9TC8zaz-304" value="&lt;b&gt;&amp;nbsp; &amp;nbsp; &amp;nbsp;AWS COGNITO&lt;/b&gt;" style="rounded=0;whiteSpace=wrap;html=1;" vertex="1" parent="3nvkodp_Ylz2N9TC8zaz-305">
          <mxGeometry x="21" y="4" width="129" height="43" as="geometry" />
        </mxCell>
        <mxCell id="3nvkodp_Ylz2N9TC8zaz-310" style="edgeStyle=orthogonalEdgeStyle;rounded=0;orthogonalLoop=1;jettySize=auto;html=1;entryX=0;entryY=0.5;entryDx=0;entryDy=0;" edge="1" parent="3nvkodp_Ylz2N9TC8zaz-287" source="3nvkodp_Ylz2N9TC8zaz-304" target="3nvkodp_Ylz2N9TC8zaz-113">
          <mxGeometry relative="1" as="geometry">
            <Array as="points">
              <mxPoint x="142" y="207" />
            </Array>
          </mxGeometry>
        </mxCell>
        <mxCell id="vcufhArVfd2CTRCupKjw-175" value="" style="shape=image;verticalLabelPosition=bottom;labelBackgroundColor=default;verticalAlign=top;aspect=fixed;imageAspect=0;image=https://a.b.cdn.console.awsstatic.com/a/v1/3CSLX2VAEWMTW5EKPITLKWHNVUQ2XCH7D3UJGK2KAYLSIK72BMAQ/icon/7c8353710f9831898e50921c0879977a-393ba9c98bdcec2ebfd74a7cbac07d88.svg;" vertex="1" parent="3nvkodp_Ylz2N9TC8zaz-287">
          <mxGeometry x="52" y="307" width="40" height="40" as="geometry" />
        </mxCell>
        <mxCell id="3nvkodp_Ylz2N9TC8zaz-141" value="&lt;b style=&quot;&quot;&gt;&lt;font style=&quot;font-size: 16px;&quot;&gt;1. ASSET COLLECTOR PIPELINES&lt;/font&gt;&lt;/b&gt;" style="text;html=1;align=left;verticalAlign=middle;whiteSpace=wrap;rounded=0;" vertex="1" parent="3nvkodp_Ylz2N9TC8zaz-287">
          <mxGeometry x="-20" y="54" width="487" height="41" as="geometry" />
        </mxCell>
        <mxCell id="3nvkodp_Ylz2N9TC8zaz-292" value="&lt;span style=&quot;font-size: 11px;&quot;&gt;CONCURRENCY: 400&lt;/span&gt;" style="text;html=1;align=left;verticalAlign=middle;whiteSpace=wrap;rounded=0;" vertex="1" parent="3nvkodp_Ylz2N9TC8zaz-287">
          <mxGeometry x="253" y="60" width="133" height="30" as="geometry" />
        </mxCell>
        <mxCell id="GYRv6ATan3LXLb47g_ir-5" style="edgeStyle=orthogonalEdgeStyle;rounded=0;orthogonalLoop=1;jettySize=auto;html=1;" edge="1" parent="1" source="GYRv6ATan3LXLb47g_ir-1" target="3nvkodp_Ylz2N9TC8zaz-261">
          <mxGeometry relative="1" as="geometry" />
        </mxCell>
        <mxCell id="GYRv6ATan3LXLb47g_ir-1" value="&lt;b&gt;Instagram&lt;/b&gt;&lt;div&gt;&lt;b&gt;Client&lt;/b&gt;&lt;/div&gt;" style="shape=hexagon;perimeter=hexagonPerimeter2;whiteSpace=wrap;html=1;fixedSize=1;" vertex="1" parent="1">
          <mxGeometry x="-439" y="1921" width="120" height="65" as="geometry" />
        </mxCell>
        <mxCell id="GYRv6ATan3LXLb47g_ir-2" value="" style="shape=image;verticalLabelPosition=bottom;labelBackgroundColor=default;verticalAlign=top;aspect=fixed;imageAspect=0;image=https://upload.wikimedia.org/wikipedia/commons/thumb/a/a5/Instagram_icon.png/1024px-Instagram_icon.png;" vertex="1" parent="1">
          <mxGeometry x="-437" y="1904" width="34" height="34" as="geometry" />
        </mxCell>
        <mxCell id="o72T38jzlKxBiDvD-Ad5-103" value="" style="group" connectable="0" vertex="1" parent="1">
          <mxGeometry x="-1116" y="2540" width="1276" height="743" as="geometry" />
        </mxCell>
        <mxCell id="o72T38jzlKxBiDvD-Ad5-92" value="" style="rounded=0;whiteSpace=wrap;html=1;fillColor=#FFFFCC;" vertex="1" parent="o72T38jzlKxBiDvD-Ad5-103">
          <mxGeometry width="1189" height="743" as="geometry" />
        </mxCell>
        <mxCell id="o72T38jzlKxBiDvD-Ad5-115" style="edgeStyle=orthogonalEdgeStyle;rounded=0;orthogonalLoop=1;jettySize=auto;html=1;" edge="1" parent="o72T38jzlKxBiDvD-Ad5-103" source="o72T38jzlKxBiDvD-Ad5-2" target="o72T38jzlKxBiDvD-Ad5-63">
          <mxGeometry relative="1" as="geometry" />
        </mxCell>
        <mxCell id="o72T38jzlKxBiDvD-Ad5-2" value="&lt;div&gt;&lt;b&gt;AWS Batch&lt;/b&gt;&lt;/div&gt;&lt;div&gt;ExtractionGPU_Queue&lt;/div&gt;&lt;div&gt;ExtracionGPU_JobDef&lt;/div&gt;&lt;div&gt;ExtractionGPU_ComputeEnv&lt;/div&gt;" style="rounded=0;whiteSpace=wrap;html=1;" vertex="1" parent="o72T38jzlKxBiDvD-Ad5-103">
          <mxGeometry x="558" y="87.55000000000018" width="185" height="81.45" as="geometry" />
        </mxCell>
        <mxCell id="o72T38jzlKxBiDvD-Ad5-3" value="" style="shape=image;verticalLabelPosition=bottom;labelBackgroundColor=default;verticalAlign=top;aspect=fixed;imageAspect=0;image=https://seeklogo.com/images/A/aws-batch-logo-E7BFE2E075-seeklogo.com.png;" vertex="1" parent="o72T38jzlKxBiDvD-Ad5-103">
          <mxGeometry x="535" y="67" width="41" height="41" as="geometry" />
        </mxCell>
        <mxCell id="o72T38jzlKxBiDvD-Ad5-4" value="" style="group" connectable="0" vertex="1" parent="o72T38jzlKxBiDvD-Ad5-103">
          <mxGeometry x="388" y="313" width="496" height="133" as="geometry" />
        </mxCell>
        <mxCell id="o72T38jzlKxBiDvD-Ad5-5" value="&lt;div&gt;AWS EC2 with GPU&lt;/div&gt;&lt;div&gt;CropperExtractor&lt;/div&gt;" style="rounded=0;whiteSpace=wrap;html=1;" vertex="1" parent="o72T38jzlKxBiDvD-Ad5-4">
          <mxGeometry x="12.263736263736265" y="19.95" width="466.02197802197804" height="99.75" as="geometry" />
        </mxCell>
        <mxCell id="o72T38jzlKxBiDvD-Ad5-6" value="&lt;div&gt;AWS EC2 with GPU&lt;/div&gt;&lt;div&gt;CropperExtractor&lt;/div&gt;" style="rounded=0;whiteSpace=wrap;html=1;" vertex="1" parent="o72T38jzlKxBiDvD-Ad5-4">
          <mxGeometry x="20.43956043956044" y="26.6" width="466.02197802197804" height="99.75" as="geometry" />
        </mxCell>
        <mxCell id="o72T38jzlKxBiDvD-Ad5-7" value="&lt;div&gt;&lt;b&gt;AWS EC2: ExtractionGPU:&amp;nbsp;&lt;/b&gt;&lt;b style=&quot;background-color: transparent; color: light-dark(rgb(0, 0, 0), rgb(255, 255, 255));&quot;&gt;g5.xlarge (4vCPU, 1vGPU, 16vGiB)&lt;/b&gt;&lt;/div&gt;&lt;div&gt;&lt;b&gt;&lt;br&gt;&lt;/b&gt;&lt;/div&gt;&lt;div&gt;&lt;b&gt;&lt;br&gt;&lt;/b&gt;&lt;/div&gt;&lt;div&gt;&lt;br&gt;&lt;/div&gt;&lt;div&gt;&lt;br&gt;&lt;/div&gt;" style="rounded=0;whiteSpace=wrap;html=1;" vertex="1" parent="o72T38jzlKxBiDvD-Ad5-4">
          <mxGeometry x="28.978021978021978" y="33.25" width="466.02197802197804" height="99.75" as="geometry" />
        </mxCell>
        <mxCell id="o72T38jzlKxBiDvD-Ad5-8" value="" style="shape=image;verticalLabelPosition=bottom;labelBackgroundColor=default;verticalAlign=top;aspect=fixed;imageAspect=0;image=https://cdn.freebiesupply.com/logos/large/2x/aws-ec2-logo-svg-vector.svg;" vertex="1" parent="o72T38jzlKxBiDvD-Ad5-4">
          <mxGeometry width="47.89" height="58" as="geometry" />
        </mxCell>
        <mxCell id="o72T38jzlKxBiDvD-Ad5-22" style="edgeStyle=orthogonalEdgeStyle;rounded=0;orthogonalLoop=1;jettySize=auto;html=1;" edge="1" parent="o72T38jzlKxBiDvD-Ad5-4" source="o72T38jzlKxBiDvD-Ad5-20" target="o72T38jzlKxBiDvD-Ad5-21">
          <mxGeometry relative="1" as="geometry" />
        </mxCell>
        <mxCell id="o72T38jzlKxBiDvD-Ad5-20" value="1. VideoCropping&lt;div&gt;(opencv-cuda)&lt;/div&gt;" style="rounded=1;whiteSpace=wrap;html=1;" vertex="1" parent="o72T38jzlKxBiDvD-Ad5-4">
          <mxGeometry x="62" y="73.22222222222223" width="112" height="46.44444444444444" as="geometry" />
        </mxCell>
        <mxCell id="o72T38jzlKxBiDvD-Ad5-24" style="edgeStyle=orthogonalEdgeStyle;rounded=0;orthogonalLoop=1;jettySize=auto;html=1;" edge="1" parent="o72T38jzlKxBiDvD-Ad5-4" source="o72T38jzlKxBiDvD-Ad5-21" target="o72T38jzlKxBiDvD-Ad5-23">
          <mxGeometry relative="1" as="geometry" />
        </mxCell>
        <mxCell id="o72T38jzlKxBiDvD-Ad5-21" value="2. SceneFraming&lt;div&gt;(ffmpeg-cuda)&lt;/div&gt;" style="rounded=1;whiteSpace=wrap;html=1;" vertex="1" parent="o72T38jzlKxBiDvD-Ad5-4">
          <mxGeometry x="207" y="73.22222222222223" width="112" height="46.44444444444444" as="geometry" />
        </mxCell>
        <mxCell id="o72T38jzlKxBiDvD-Ad5-23" value="3. Embbedings&lt;div&gt;(open-clip)&lt;/div&gt;" style="rounded=1;whiteSpace=wrap;html=1;" vertex="1" parent="o72T38jzlKxBiDvD-Ad5-4">
          <mxGeometry x="354" y="73.22222222222223" width="112" height="46.44444444444444" as="geometry" />
        </mxCell>
        <mxCell id="o72T38jzlKxBiDvD-Ad5-64" value="&lt;span style=&quot;font-size: 11px;&quot;&gt;· Instance timeout: 10,800s (3h)&amp;nbsp; &amp;nbsp; &amp;nbsp; &amp;nbsp; &amp;nbsp; &amp;nbsp; &amp;nbsp; &amp;nbsp;· Instance batch size: 1,000 videos&lt;/span&gt;" style="text;html=1;align=left;verticalAlign=middle;whiteSpace=wrap;rounded=0;" vertex="1" parent="o72T38jzlKxBiDvD-Ad5-4">
          <mxGeometry x="69" y="1" width="410" height="17" as="geometry" />
        </mxCell>
        <mxCell id="o72T38jzlKxBiDvD-Ad5-116" value="&lt;span style=&quot;font-size: 11px;&quot;&gt;.mp4&lt;/span&gt;" style="text;html=1;align=left;verticalAlign=middle;whiteSpace=wrap;rounded=0;" vertex="1" parent="o72T38jzlKxBiDvD-Ad5-4">
          <mxGeometry x="175" y="74" width="36" height="17" as="geometry" />
        </mxCell>
        <mxCell id="o72T38jzlKxBiDvD-Ad5-117" value="&lt;span style=&quot;font-size: 11px;&quot;&gt;.png&lt;/span&gt;" style="text;html=1;align=left;verticalAlign=middle;whiteSpace=wrap;rounded=0;" vertex="1" parent="o72T38jzlKxBiDvD-Ad5-4">
          <mxGeometry x="320" y="75" width="36" height="17" as="geometry" />
        </mxCell>
        <mxCell id="o72T38jzlKxBiDvD-Ad5-111" style="edgeStyle=orthogonalEdgeStyle;rounded=0;orthogonalLoop=1;jettySize=auto;html=1;entryX=0;entryY=0.5;entryDx=0;entryDy=0;" edge="1" parent="o72T38jzlKxBiDvD-Ad5-103" source="o72T38jzlKxBiDvD-Ad5-13" target="o72T38jzlKxBiDvD-Ad5-106">
          <mxGeometry relative="1" as="geometry" />
        </mxCell>
        <mxCell id="o72T38jzlKxBiDvD-Ad5-28" style="edgeStyle=orthogonalEdgeStyle;rounded=0;orthogonalLoop=1;jettySize=auto;html=1;" edge="1" parent="o72T38jzlKxBiDvD-Ad5-103" target="o72T38jzlKxBiDvD-Ad5-20">
          <mxGeometry relative="1" as="geometry">
            <mxPoint x="505.3000000000002" y="480" as="sourcePoint" />
          </mxGeometry>
        </mxCell>
        <mxCell id="o72T38jzlKxBiDvD-Ad5-32" style="edgeStyle=orthogonalEdgeStyle;rounded=0;orthogonalLoop=1;jettySize=auto;html=1;" edge="1" parent="o72T38jzlKxBiDvD-Ad5-103" source="o72T38jzlKxBiDvD-Ad5-21">
          <mxGeometry relative="1" as="geometry">
            <mxPoint x="651.3000000000002" y="481" as="targetPoint" />
          </mxGeometry>
        </mxCell>
        <mxCell id="o72T38jzlKxBiDvD-Ad5-33" value="&lt;div&gt;&lt;span style=&quot;font-size: 11px;&quot;&gt;.png&lt;/span&gt;&lt;/div&gt;&lt;div&gt;&lt;span style=&quot;font-size: 11px;&quot;&gt;720p&lt;/span&gt;&lt;/div&gt;" style="text;html=1;align=left;verticalAlign=middle;whiteSpace=wrap;rounded=0;" vertex="1" parent="o72T38jzlKxBiDvD-Ad5-103">
          <mxGeometry x="656" y="451" width="36" height="17" as="geometry" />
        </mxCell>
        <mxCell id="o72T38jzlKxBiDvD-Ad5-34" value="&lt;div&gt;&lt;span style=&quot;font-size: 11px;&quot;&gt;.mp4&lt;/span&gt;&lt;/div&gt;&lt;div&gt;&lt;span style=&quot;font-size: 11px;&quot;&gt;720p&lt;/span&gt;&lt;/div&gt;" style="text;html=1;align=left;verticalAlign=middle;whiteSpace=wrap;rounded=0;" vertex="1" parent="o72T38jzlKxBiDvD-Ad5-103">
          <mxGeometry x="510" y="452" width="36" height="17" as="geometry" />
        </mxCell>
        <mxCell id="o72T38jzlKxBiDvD-Ad5-35" value="&lt;div&gt;&lt;span style=&quot;background-color: transparent; color: light-dark(rgb(0, 0, 0), rgb(255, 255, 255));&quot;&gt;&lt;b&gt;AWS OpenSearch&lt;/b&gt;&lt;/span&gt;&lt;/div&gt;&lt;div&gt;&lt;span style=&quot;background-color: transparent; color: light-dark(rgb(0, 0, 0), rgb(255, 255, 255));&quot;&gt;oriane-embedds&lt;/span&gt;&lt;/div&gt;" style="shape=cylinder3;whiteSpace=wrap;html=1;boundedLbl=1;backgroundOutline=1;size=15;" vertex="1" parent="o72T38jzlKxBiDvD-Ad5-103">
          <mxGeometry x="743" y="482" width="108.5" height="83" as="geometry" />
        </mxCell>
        <mxCell id="o72T38jzlKxBiDvD-Ad5-36" value="" style="shape=image;verticalLabelPosition=bottom;labelBackgroundColor=default;verticalAlign=top;aspect=fixed;imageAspect=0;image=https://blog.kakaocdn.net/dn/bPO2bd/btsKcSpfR19/JM7NkCCQxJlPQqDUMcMSp1/img.png;" vertex="1" parent="o72T38jzlKxBiDvD-Ad5-103">
          <mxGeometry x="731" y="474" width="35" height="35" as="geometry" />
        </mxCell>
        <mxCell id="o72T38jzlKxBiDvD-Ad5-39" value="&lt;div&gt;&lt;b&gt;AWS S3&lt;/b&gt;&lt;/div&gt;oriane-contents" style="shape=cylinder3;whiteSpace=wrap;html=1;boundedLbl=1;backgroundOutline=1;size=15;" vertex="1" parent="o72T38jzlKxBiDvD-Ad5-103">
          <mxGeometry x="450.5" y="480" width="108.5" height="83" as="geometry" />
        </mxCell>
        <mxCell id="o72T38jzlKxBiDvD-Ad5-40" value="" style="shape=image;verticalLabelPosition=bottom;labelBackgroundColor=default;verticalAlign=top;aspect=fixed;imageAspect=0;image=https://cdn.worldvectorlogo.com/logos/amazon-s3-simple-storage-service.svg;" vertex="1" parent="o72T38jzlKxBiDvD-Ad5-103">
          <mxGeometry x="439" y="473" width="35" height="35" as="geometry" />
        </mxCell>
        <mxCell id="o72T38jzlKxBiDvD-Ad5-48" style="edgeStyle=orthogonalEdgeStyle;rounded=0;orthogonalLoop=1;jettySize=auto;html=1;" edge="1" parent="o72T38jzlKxBiDvD-Ad5-103" source="o72T38jzlKxBiDvD-Ad5-41" target="o72T38jzlKxBiDvD-Ad5-13">
          <mxGeometry relative="1" as="geometry" />
        </mxCell>
        <mxCell id="o72T38jzlKxBiDvD-Ad5-41" value="&lt;div&gt;&lt;b&gt;AWS S3&lt;/b&gt;&lt;/div&gt;oriane-frames" style="shape=cylinder3;whiteSpace=wrap;html=1;boundedLbl=1;backgroundOutline=1;size=15;" vertex="1" parent="o72T38jzlKxBiDvD-Ad5-103">
          <mxGeometry x="598.5" y="482" width="108.5" height="83" as="geometry" />
        </mxCell>
        <mxCell id="o72T38jzlKxBiDvD-Ad5-42" value="" style="shape=image;verticalLabelPosition=bottom;labelBackgroundColor=default;verticalAlign=top;aspect=fixed;imageAspect=0;image=https://cdn.worldvectorlogo.com/logos/amazon-s3-simple-storage-service.svg;" vertex="1" parent="o72T38jzlKxBiDvD-Ad5-103">
          <mxGeometry x="587" y="475" width="35" height="35" as="geometry" />
        </mxCell>
        <mxCell id="o72T38jzlKxBiDvD-Ad5-43" style="edgeStyle=orthogonalEdgeStyle;rounded=0;orthogonalLoop=1;jettySize=auto;html=1;" edge="1" parent="o72T38jzlKxBiDvD-Ad5-103" source="o72T38jzlKxBiDvD-Ad5-23" target="o72T38jzlKxBiDvD-Ad5-35">
          <mxGeometry relative="1" as="geometry" />
        </mxCell>
        <mxCell id="o72T38jzlKxBiDvD-Ad5-44" value="&lt;div&gt;&lt;span style=&quot;font-size: 11px;&quot;&gt;vecs&lt;/span&gt;&lt;/div&gt;&lt;div&gt;&lt;span style=&quot;font-size: 11px;&quot;&gt;512DIM&lt;/span&gt;&lt;/div&gt;" style="text;html=1;align=left;verticalAlign=middle;whiteSpace=wrap;rounded=0;" vertex="1" parent="o72T38jzlKxBiDvD-Ad5-103">
          <mxGeometry x="803" y="451" width="36" height="17" as="geometry" />
        </mxCell>
        <mxCell id="o72T38jzlKxBiDvD-Ad5-49" style="edgeStyle=orthogonalEdgeStyle;rounded=0;orthogonalLoop=1;jettySize=auto;html=1;entryX=0.5;entryY=0;entryDx=0;entryDy=0;entryPerimeter=0;" edge="1" parent="o72T38jzlKxBiDvD-Ad5-103" source="o72T38jzlKxBiDvD-Ad5-39" target="o72T38jzlKxBiDvD-Ad5-13">
          <mxGeometry relative="1" as="geometry">
            <Array as="points">
              <mxPoint x="505" y="597" />
              <mxPoint x="652" y="597" />
            </Array>
          </mxGeometry>
        </mxCell>
        <mxCell id="o72T38jzlKxBiDvD-Ad5-50" style="edgeStyle=orthogonalEdgeStyle;rounded=0;orthogonalLoop=1;jettySize=auto;html=1;entryX=0.5;entryY=0;entryDx=0;entryDy=0;entryPerimeter=0;" edge="1" parent="o72T38jzlKxBiDvD-Ad5-103" source="o72T38jzlKxBiDvD-Ad5-35" target="o72T38jzlKxBiDvD-Ad5-13">
          <mxGeometry relative="1" as="geometry">
            <Array as="points">
              <mxPoint x="797" y="597" />
              <mxPoint x="652" y="597" />
            </Array>
          </mxGeometry>
        </mxCell>
        <mxCell id="o72T38jzlKxBiDvD-Ad5-51" value="&lt;div&gt;&lt;span style=&quot;font-size: 11px;&quot;&gt;is_cropped&lt;/span&gt;&lt;/div&gt;" style="text;html=1;align=left;verticalAlign=middle;whiteSpace=wrap;rounded=0;" vertex="1" parent="o72T38jzlKxBiDvD-Ad5-103">
          <mxGeometry x="512" y="598" width="74" height="17" as="geometry" />
        </mxCell>
        <mxCell id="o72T38jzlKxBiDvD-Ad5-52" value="&lt;div&gt;&lt;span style=&quot;font-size: 11px;&quot;&gt;is_framed&lt;/span&gt;&lt;/div&gt;" style="text;html=1;align=left;verticalAlign=middle;whiteSpace=wrap;rounded=0;" vertex="1" parent="o72T38jzlKxBiDvD-Ad5-103">
          <mxGeometry x="657" y="567" width="74" height="17" as="geometry" />
        </mxCell>
        <mxCell id="o72T38jzlKxBiDvD-Ad5-55" value="&lt;div&gt;&lt;span style=&quot;font-size: 11px;&quot;&gt;is_embedded&lt;/span&gt;&lt;/div&gt;" style="text;html=1;align=left;verticalAlign=middle;whiteSpace=wrap;rounded=0;" vertex="1" parent="o72T38jzlKxBiDvD-Ad5-103">
          <mxGeometry x="714" y="599" width="74" height="17" as="geometry" />
        </mxCell>
        <mxCell id="o72T38jzlKxBiDvD-Ad5-58" style="edgeStyle=orthogonalEdgeStyle;rounded=0;orthogonalLoop=1;jettySize=auto;html=1;" edge="1" parent="o72T38jzlKxBiDvD-Ad5-103" source="o72T38jzlKxBiDvD-Ad5-56" target="o72T38jzlKxBiDvD-Ad5-2">
          <mxGeometry relative="1" as="geometry" />
        </mxCell>
        <mxCell id="o72T38jzlKxBiDvD-Ad5-56" value="&lt;div&gt;&lt;b&gt;OrianeAdmin API&lt;/b&gt;&lt;/div&gt;/api/extraction/run-all" style="rounded=0;whiteSpace=wrap;html=1;" vertex="1" parent="o72T38jzlKxBiDvD-Ad5-103">
          <mxGeometry x="248" y="99" width="171" height="60" as="geometry" />
        </mxCell>
        <mxCell id="o72T38jzlKxBiDvD-Ad5-57" value="" style="shape=image;verticalLabelPosition=bottom;labelBackgroundColor=default;verticalAlign=top;aspect=fixed;imageAspect=0;image=https://docs.nestjs.com/assets/logo-small-gradient.svg;" vertex="1" parent="o72T38jzlKxBiDvD-Ad5-103">
          <mxGeometry x="231" y="82" width="38.77" height="37.45" as="geometry" />
        </mxCell>
        <mxCell id="o72T38jzlKxBiDvD-Ad5-63" value="&lt;div&gt;&lt;b&gt;AWS ECR&lt;/b&gt;&lt;/div&gt;&lt;div&gt;extraction-pipeline-image-cpp&lt;/div&gt;" style="rounded=0;whiteSpace=wrap;html=1;" vertex="1" parent="o72T38jzlKxBiDvD-Ad5-103">
          <mxGeometry x="551" y="217" width="198" height="60" as="geometry" />
        </mxCell>
        <mxCell id="o72T38jzlKxBiDvD-Ad5-19" value="" style="shape=image;verticalLabelPosition=bottom;labelBackgroundColor=default;verticalAlign=top;aspect=fixed;imageAspect=0;image=https://a.b.cdn.console.awsstatic.com/a/v1/YJWIC46LO2PEXP243POZUUV3WHXVNSPSNBSU3WIJB2PK3ZCRKVCQ/icon/2eb2930111864beeb409e946751215b1-3ecb316865dc77cffc9cd77eed455da2.svg;" vertex="1" parent="o72T38jzlKxBiDvD-Ad5-103">
          <mxGeometry x="539" y="199" width="35" height="35" as="geometry" />
        </mxCell>
        <mxCell id="o72T38jzlKxBiDvD-Ad5-73" style="edgeStyle=orthogonalEdgeStyle;rounded=0;orthogonalLoop=1;jettySize=auto;html=1;entryX=0.519;entryY=0.051;entryDx=0;entryDy=0;entryPerimeter=0;" edge="1" parent="o72T38jzlKxBiDvD-Ad5-103" source="o72T38jzlKxBiDvD-Ad5-63" target="o72T38jzlKxBiDvD-Ad5-6">
          <mxGeometry relative="1" as="geometry" />
        </mxCell>
        <mxCell id="o72T38jzlKxBiDvD-Ad5-74" value="&lt;div&gt;&lt;span style=&quot;background-color: transparent; color: light-dark(rgb(0, 0, 0), rgb(255, 255, 255));&quot;&gt;&lt;b&gt;AWS Bedrock&lt;/b&gt;&lt;/span&gt;&lt;/div&gt;&lt;div&gt;&lt;span style=&quot;background-color: transparent; color: light-dark(rgb(0, 0, 0), rgb(255, 255, 255));&quot;&gt;TITAN EMBEDDINGS&lt;/span&gt;&lt;/div&gt;&lt;div&gt;&lt;span style=&quot;background-color: transparent; color: light-dark(rgb(0, 0, 0), rgb(255, 255, 255));&quot;&gt;MULTI-MODAL G1&lt;/span&gt;&lt;/div&gt;" style="rounded=0;whiteSpace=wrap;html=1;" vertex="1" parent="o72T38jzlKxBiDvD-Ad5-103">
          <mxGeometry x="950" y="379" width="184" height="60" as="geometry" />
        </mxCell>
        <mxCell id="o72T38jzlKxBiDvD-Ad5-75" value="" style="shape=image;verticalLabelPosition=bottom;labelBackgroundColor=default;verticalAlign=top;aspect=fixed;imageAspect=0;image=https://a.b.cdn.console.awsstatic.com/a/v1/LETP4TFABRTBD2D765TVLSVMVZXIHYQNI6NEA36TKA5SNDL7RC5A/icon/bee4d136bd8eb45ab32def8604e37cd2-2a0639d9c34980d353a3da561deb6460.svg;" vertex="1" parent="o72T38jzlKxBiDvD-Ad5-103">
          <mxGeometry x="937" y="362" width="37" height="37" as="geometry" />
        </mxCell>
        <mxCell id="o72T38jzlKxBiDvD-Ad5-76" style="edgeStyle=orthogonalEdgeStyle;rounded=0;orthogonalLoop=1;jettySize=auto;html=1;" edge="1" parent="o72T38jzlKxBiDvD-Ad5-103" source="o72T38jzlKxBiDvD-Ad5-23" target="o72T38jzlKxBiDvD-Ad5-74">
          <mxGeometry relative="1" as="geometry" />
        </mxCell>
        <mxCell id="o72T38jzlKxBiDvD-Ad5-82" style="edgeStyle=orthogonalEdgeStyle;rounded=0;orthogonalLoop=1;jettySize=auto;html=1;entryX=1;entryY=0.5;entryDx=0;entryDy=0;" edge="1" parent="o72T38jzlKxBiDvD-Ad5-103" source="o72T38jzlKxBiDvD-Ad5-77" target="o72T38jzlKxBiDvD-Ad5-23">
          <mxGeometry relative="1" as="geometry" />
        </mxCell>
        <mxCell id="o72T38jzlKxBiDvD-Ad5-77" value="&lt;div&gt;&lt;b&gt;AWS S3&lt;/b&gt;&lt;/div&gt;oriane-models" style="shape=cylinder3;whiteSpace=wrap;html=1;boundedLbl=1;backgroundOutline=1;size=15;" vertex="1" parent="o72T38jzlKxBiDvD-Ad5-103">
          <mxGeometry x="990.5" y="473" width="108.5" height="83" as="geometry" />
        </mxCell>
        <mxCell id="o72T38jzlKxBiDvD-Ad5-78" value="" style="shape=image;verticalLabelPosition=bottom;labelBackgroundColor=default;verticalAlign=top;aspect=fixed;imageAspect=0;image=https://cdn.worldvectorlogo.com/logos/amazon-s3-simple-storage-service.svg;" vertex="1" parent="o72T38jzlKxBiDvD-Ad5-103">
          <mxGeometry x="977" y="466" width="36" height="36" as="geometry" />
        </mxCell>
        <mxCell id="o72T38jzlKxBiDvD-Ad5-80" value="&lt;div&gt;&lt;span style=&quot;font-size: 11px;&quot;&gt;SSCD&lt;/span&gt;&lt;/div&gt;" style="text;html=1;align=left;verticalAlign=middle;whiteSpace=wrap;rounded=0;" vertex="1" parent="o72T38jzlKxBiDvD-Ad5-103">
          <mxGeometry x="929" y="495" width="36" height="17" as="geometry" />
        </mxCell>
        <mxCell id="o72T38jzlKxBiDvD-Ad5-81" value="&lt;div&gt;&lt;span style=&quot;font-size: 11px;&quot;&gt;.png&lt;/span&gt;&lt;/div&gt;" style="text;html=1;align=left;verticalAlign=middle;whiteSpace=wrap;rounded=0;" vertex="1" parent="o72T38jzlKxBiDvD-Ad5-103">
          <mxGeometry x="891" y="388" width="36" height="17" as="geometry" />
        </mxCell>
        <mxCell id="o72T38jzlKxBiDvD-Ad5-84" value="&lt;div&gt;&lt;span style=&quot;font-size: 11px;&quot;&gt;vecs&lt;/span&gt;&lt;/div&gt;" style="text;html=1;align=left;verticalAlign=middle;whiteSpace=wrap;rounded=0;" vertex="1" parent="o72T38jzlKxBiDvD-Ad5-103">
          <mxGeometry x="889" y="412" width="36" height="17" as="geometry" />
        </mxCell>
        <mxCell id="o72T38jzlKxBiDvD-Ad5-87" style="edgeStyle=orthogonalEdgeStyle;rounded=0;orthogonalLoop=1;jettySize=auto;html=1;entryX=0.5;entryY=1;entryDx=0;entryDy=0;" edge="1" parent="o72T38jzlKxBiDvD-Ad5-103" source="o72T38jzlKxBiDvD-Ad5-85" target="o72T38jzlKxBiDvD-Ad5-56">
          <mxGeometry relative="1" as="geometry" />
        </mxCell>
        <mxCell id="o72T38jzlKxBiDvD-Ad5-85" value="&lt;div&gt;&lt;b&gt;AWS AuroraDB&lt;/b&gt;&lt;/div&gt;oriane-admin" style="shape=cylinder3;whiteSpace=wrap;html=1;boundedLbl=1;backgroundOutline=1;size=15;" vertex="1" parent="o72T38jzlKxBiDvD-Ad5-103">
          <mxGeometry x="280" y="226" width="108.5" height="83" as="geometry" />
        </mxCell>
        <mxCell id="o72T38jzlKxBiDvD-Ad5-86" value="" style="shape=image;verticalLabelPosition=bottom;labelBackgroundColor=default;verticalAlign=top;aspect=fixed;imageAspect=0;image=https://images.seeklogo.com/logo-png/43/1/aws-aurora-logo-png_seeklogo-430929.png;" vertex="1" parent="o72T38jzlKxBiDvD-Ad5-103">
          <mxGeometry x="264" y="219" width="38" height="38" as="geometry" />
        </mxCell>
        <mxCell id="o72T38jzlKxBiDvD-Ad5-88" value="&lt;span style=&quot;font-size: 11px;&quot;&gt;&amp;nbsp; 1,000 video ids&lt;/span&gt;" style="text;html=1;align=left;verticalAlign=middle;whiteSpace=wrap;rounded=0;" vertex="1" parent="o72T38jzlKxBiDvD-Ad5-103">
          <mxGeometry x="434" y="102" width="133" height="30" as="geometry" />
        </mxCell>
        <mxCell id="o72T38jzlKxBiDvD-Ad5-89" value="&lt;span style=&quot;font-size: 11px;&quot;&gt;paginate 1,000 rows where,&lt;/span&gt;&lt;div&gt;&lt;span style=&quot;font-size: 11px;&quot;&gt;is_downloaded = TRUE&lt;br&gt;is_embedded = FALSE&lt;/span&gt;&lt;/div&gt;" style="text;html=1;align=left;verticalAlign=middle;whiteSpace=wrap;rounded=0;" vertex="1" parent="o72T38jzlKxBiDvD-Ad5-103">
          <mxGeometry x="338" y="166" width="186" height="55" as="geometry" />
        </mxCell>
        <mxCell id="o72T38jzlKxBiDvD-Ad5-91" value="&lt;div&gt;&lt;span style=&quot;font-size: 11px;&quot;&gt;weigths&lt;/span&gt;&lt;/div&gt;" style="text;html=1;align=left;verticalAlign=middle;whiteSpace=wrap;rounded=0;" vertex="1" parent="o72T38jzlKxBiDvD-Ad5-103">
          <mxGeometry x="928" y="516" width="36" height="17" as="geometry" />
        </mxCell>
        <mxCell id="o72T38jzlKxBiDvD-Ad5-93" value="" style="image;points=[];aspect=fixed;html=1;align=center;shadow=0;dashed=0;image=img/lib/allied_telesis/computer_and_terminals/Laptop.svg;" vertex="1" parent="o72T38jzlKxBiDvD-Ad5-103">
          <mxGeometry x="61" y="92" width="71.58" height="72.6" as="geometry" />
        </mxCell>
        <mxCell id="o72T38jzlKxBiDvD-Ad5-94" style="edgeStyle=orthogonalEdgeStyle;rounded=0;orthogonalLoop=1;jettySize=auto;html=1;entryX=0;entryY=0.5;entryDx=0;entryDy=0;" edge="1" parent="o72T38jzlKxBiDvD-Ad5-103" source="o72T38jzlKxBiDvD-Ad5-93">
          <mxGeometry relative="1" as="geometry">
            <mxPoint x="247" y="128" as="targetPoint" />
          </mxGeometry>
        </mxCell>
        <mxCell id="o72T38jzlKxBiDvD-Ad5-95" value="&lt;div&gt;&lt;span style=&quot;font-size: 11px;&quot;&gt;bearer&amp;nbsp;&lt;/span&gt;&lt;span style=&quot;font-size: 11px; background-color: transparent; color: light-dark(rgb(0, 0, 0), rgb(255, 255, 255));&quot;&gt;token&lt;/span&gt;&lt;/div&gt;" style="text;html=1;align=left;verticalAlign=middle;whiteSpace=wrap;rounded=0;" vertex="1" parent="o72T38jzlKxBiDvD-Ad5-103">
          <mxGeometry x="148" y="104" width="77" height="22" as="geometry" />
        </mxCell>
        <mxCell id="o72T38jzlKxBiDvD-Ad5-96" value="&lt;div&gt;&lt;b&gt;Client&lt;/b&gt;&lt;/div&gt;OrianeAdmin" style="text;html=1;align=center;verticalAlign=middle;whiteSpace=wrap;rounded=0;" vertex="1" parent="o72T38jzlKxBiDvD-Ad5-103">
          <mxGeometry x="50" y="165" width="90" height="39" as="geometry" />
        </mxCell>
        <mxCell id="o72T38jzlKxBiDvD-Ad5-97" value="" style="group" connectable="0" vertex="1" parent="o72T38jzlKxBiDvD-Ad5-103">
          <mxGeometry x="92" y="234" width="153" height="79" as="geometry" />
        </mxCell>
        <mxCell id="o72T38jzlKxBiDvD-Ad5-98" value="&lt;b&gt;AWS COGNITO&lt;/b&gt;&lt;div&gt;oriane-admin&lt;b&gt;&lt;/b&gt;&lt;/div&gt;" style="rounded=0;whiteSpace=wrap;html=1;" vertex="1" parent="o72T38jzlKxBiDvD-Ad5-97">
          <mxGeometry x="28" y="5" width="132" height="61.44" as="geometry" />
        </mxCell>
        <mxCell id="vcufhArVfd2CTRCupKjw-176" value="" style="shape=image;verticalLabelPosition=bottom;labelBackgroundColor=default;verticalAlign=top;aspect=fixed;imageAspect=0;image=https://a.b.cdn.console.awsstatic.com/a/v1/3CSLX2VAEWMTW5EKPITLKWHNVUQ2XCH7D3UJGK2KAYLSIK72BMAQ/icon/7c8353710f9831898e50921c0879977a-393ba9c98bdcec2ebfd74a7cbac07d88.svg;" vertex="1" parent="o72T38jzlKxBiDvD-Ad5-97">
          <mxGeometry x="7" y="-15" width="40" height="40" as="geometry" />
        </mxCell>
        <mxCell id="o72T38jzlKxBiDvD-Ad5-100" style="edgeStyle=orthogonalEdgeStyle;rounded=0;orthogonalLoop=1;jettySize=auto;html=1;entryX=0;entryY=0.5;entryDx=0;entryDy=0;exitX=0.5;exitY=0;exitDx=0;exitDy=0;" edge="1" parent="o72T38jzlKxBiDvD-Ad5-103" source="o72T38jzlKxBiDvD-Ad5-98">
          <mxGeometry relative="1" as="geometry">
            <Array as="points">
              <mxPoint x="181" y="239" />
              <mxPoint x="181" y="129" />
            </Array>
            <mxPoint x="247" y="129" as="targetPoint" />
            <mxPoint x="181" y="247" as="sourcePoint" />
          </mxGeometry>
        </mxCell>
        <mxCell id="o72T38jzlKxBiDvD-Ad5-104" value="&lt;span style=&quot;font-size: 11px;&quot;&gt;userId&lt;/span&gt;" style="text;html=1;align=left;verticalAlign=middle;whiteSpace=wrap;rounded=0;" vertex="1" parent="o72T38jzlKxBiDvD-Ad5-103">
          <mxGeometry x="187" y="180" width="52" height="17" as="geometry" />
        </mxCell>
        <mxCell id="o72T38jzlKxBiDvD-Ad5-106" value="&lt;div&gt;&lt;b&gt;AWS SageMaker&lt;/b&gt;&lt;/div&gt;&lt;div&gt;SSCD-CL&lt;/div&gt;&lt;div&gt;(Continuious Learning)&lt;/div&gt;" style="rounded=0;whiteSpace=wrap;html=1;" vertex="1" parent="o72T38jzlKxBiDvD-Ad5-103">
          <mxGeometry x="960" y="627" width="171" height="60" as="geometry" />
        </mxCell>
        <mxCell id="o72T38jzlKxBiDvD-Ad5-107" value="" style="shape=image;verticalLabelPosition=bottom;labelBackgroundColor=default;verticalAlign=top;aspect=fixed;imageAspect=0;image=https://a.b.cdn.console.awsstatic.com/a/v1/VMH4PCPSZQ5ZAJM2MRLGWHLFNIKFE3TOPBC5TLUF3QYMHME6LX2Q/icon/971fe87795a0a4e0b27917a2d21883fc-2c86e6fb0184e2a2b5967e62026fdbc7.svg;" vertex="1" parent="o72T38jzlKxBiDvD-Ad5-103">
          <mxGeometry x="947" y="606" width="38" height="38" as="geometry" />
        </mxCell>
        <mxCell id="o72T38jzlKxBiDvD-Ad5-108" value="&lt;div&gt;&lt;span style=&quot;font-size: 11px;&quot;&gt;Updated weights&lt;/span&gt;&lt;/div&gt;" style="text;html=1;align=right;verticalAlign=middle;whiteSpace=wrap;rounded=0;" vertex="1" parent="o72T38jzlKxBiDvD-Ad5-103">
          <mxGeometry x="1047" y="584" width="91" height="19" as="geometry" />
        </mxCell>
        <mxCell id="o72T38jzlKxBiDvD-Ad5-110" style="edgeStyle=orthogonalEdgeStyle;rounded=0;orthogonalLoop=1;jettySize=auto;html=1;entryX=0.5;entryY=1;entryDx=0;entryDy=0;entryPerimeter=0;" edge="1" parent="o72T38jzlKxBiDvD-Ad5-103" source="o72T38jzlKxBiDvD-Ad5-106" target="o72T38jzlKxBiDvD-Ad5-77">
          <mxGeometry relative="1" as="geometry">
            <mxPoint x="1045.75" y="571" as="targetPoint" />
          </mxGeometry>
        </mxCell>
        <mxCell id="o72T38jzlKxBiDvD-Ad5-112" value="&lt;div&gt;&lt;span style=&quot;font-size: 11px;&quot;&gt;wrong_matches&lt;/span&gt;&lt;/div&gt;" style="text;html=1;align=right;verticalAlign=middle;whiteSpace=wrap;rounded=0;" vertex="1" parent="o72T38jzlKxBiDvD-Ad5-103">
          <mxGeometry x="787" y="635" width="80" height="19" as="geometry" />
        </mxCell>
        <mxCell id="o72T38jzlKxBiDvD-Ad5-113" value="&lt;div&gt;&lt;span style=&quot;font-size: 11px;&quot;&gt;right_matches&lt;/span&gt;&lt;/div&gt;" style="text;html=1;align=right;verticalAlign=middle;whiteSpace=wrap;rounded=0;" vertex="1" parent="o72T38jzlKxBiDvD-Ad5-103">
          <mxGeometry x="784" y="658" width="80" height="19" as="geometry" />
        </mxCell>
        <mxCell id="o72T38jzlKxBiDvD-Ad5-120" style="edgeStyle=orthogonalEdgeStyle;rounded=0;orthogonalLoop=1;jettySize=auto;html=1;" edge="1" parent="o72T38jzlKxBiDvD-Ad5-103" source="o72T38jzlKxBiDvD-Ad5-119" target="o72T38jzlKxBiDvD-Ad5-63">
          <mxGeometry relative="1" as="geometry" />
        </mxCell>
        <mxCell id="o72T38jzlKxBiDvD-Ad5-119" value="&lt;div&gt;&lt;b&gt;AWS Secrets Manager&lt;/b&gt;&lt;/div&gt;&lt;div&gt;oriane-admin&lt;/div&gt;" style="rounded=0;whiteSpace=wrap;html=1;" vertex="1" parent="o72T38jzlKxBiDvD-Ad5-103">
          <mxGeometry x="842" y="217" width="198" height="60" as="geometry" />
        </mxCell>
        <mxCell id="o72T38jzlKxBiDvD-Ad5-118" value="" style="shape=image;verticalLabelPosition=bottom;labelBackgroundColor=default;verticalAlign=top;aspect=fixed;imageAspect=0;image=https://a.b.cdn.console.awsstatic.com/a/v1/JVAZC3MGFO75SWTKDTNZ6JAPAZXP5HIWUBGFCJYM67A7IARW6PHQ/icon/8915d768b4680de51126e0bf60a2a5d7-9ce11337c80efcb3442238d27794ee30.svg;" vertex="1" parent="o72T38jzlKxBiDvD-Ad5-103">
          <mxGeometry x="829" y="201" width="34.95" height="34.95" as="geometry" />
        </mxCell>
        <mxCell id="vcufhArVfd2CTRCupKjw-204" value="" style="group" connectable="0" vertex="1" parent="o72T38jzlKxBiDvD-Ad5-103">
          <mxGeometry x="582" y="608" width="124.5" height="90" as="geometry" />
        </mxCell>
        <mxCell id="o72T38jzlKxBiDvD-Ad5-13" value="&lt;div&gt;&lt;b&gt;AWS AuroraDB&lt;/b&gt;&lt;/div&gt;oriane-admin" style="shape=cylinder3;whiteSpace=wrap;html=1;boundedLbl=1;backgroundOutline=1;size=15;" vertex="1" parent="vcufhArVfd2CTRCupKjw-204">
          <mxGeometry x="16" y="7" width="108.5" height="83" as="geometry" />
        </mxCell>
        <mxCell id="o72T38jzlKxBiDvD-Ad5-14" value="" style="shape=image;verticalLabelPosition=bottom;labelBackgroundColor=default;verticalAlign=top;aspect=fixed;imageAspect=0;image=https://images.seeklogo.com/logo-png/43/1/aws-aurora-logo-png_seeklogo-430929.png;" vertex="1" parent="vcufhArVfd2CTRCupKjw-204">
          <mxGeometry width="38" height="38" as="geometry" />
        </mxCell>
        <mxCell id="o72T38jzlKxBiDvD-Ad5-101" value="&lt;b style=&quot;&quot;&gt;&lt;font style=&quot;font-size: 16px;&quot;&gt;2. EXTRACTION-GPU PIPELINE&amp;nbsp;&lt;/font&gt;&lt;/b&gt;" style="text;html=1;align=left;verticalAlign=middle;whiteSpace=wrap;rounded=0;" vertex="1" parent="1">
          <mxGeometry x="-1108" y="2495" width="487" height="41" as="geometry" />
        </mxCell>
        <mxCell id="o72T38jzlKxBiDvD-Ad5-102" value="&lt;span style=&quot;font-size: 11px;&quot;&gt;CONCURRENCY: 100 instance (1K videos/instance ~2h)&lt;/span&gt;" style="text;html=1;align=left;verticalAlign=middle;whiteSpace=wrap;rounded=0;" vertex="1" parent="1">
          <mxGeometry x="-839" y="2501" width="304" height="30" as="geometry" />
        </mxCell>
        <mxCell id="vcufhArVfd2CTRCupKjw-430" value="" style="group" connectable="0" vertex="1" parent="1">
          <mxGeometry x="-4566" y="2099" width="3183" height="1165" as="geometry" />
        </mxCell>
        <mxCell id="vcufhArVfd2CTRCupKjw-366" style="edgeStyle=orthogonalEdgeStyle;rounded=0;orthogonalLoop=1;jettySize=auto;html=1;" edge="1" parent="vcufhArVfd2CTRCupKjw-430" target="vcufhArVfd2CTRCupKjw-363">
          <mxGeometry relative="1" as="geometry">
            <mxPoint x="572" y="923" as="sourcePoint" />
            <Array as="points">
              <mxPoint x="261" y="923" />
            </Array>
          </mxGeometry>
        </mxCell>
        <mxCell id="vcufhArVfd2CTRCupKjw-365" style="edgeStyle=orthogonalEdgeStyle;rounded=0;orthogonalLoop=1;jettySize=auto;html=1;" edge="1" parent="vcufhArVfd2CTRCupKjw-430" target="vcufhArVfd2CTRCupKjw-361">
          <mxGeometry relative="1" as="geometry">
            <mxPoint x="499" y="546" as="sourcePoint" />
            <Array as="points">
              <mxPoint x="261" y="546" />
            </Array>
          </mxGeometry>
        </mxCell>
        <mxCell id="vcufhArVfd2CTRCupKjw-360" style="edgeStyle=orthogonalEdgeStyle;rounded=0;orthogonalLoop=1;jettySize=auto;html=1;" edge="1" parent="vcufhArVfd2CTRCupKjw-430" source="vcufhArVfd2CTRCupKjw-327" target="vcufhArVfd2CTRCupKjw-358">
          <mxGeometry relative="1" as="geometry">
            <mxPoint x="124" y="171" as="sourcePoint" />
            <Array as="points">
              <mxPoint x="295" y="171" />
              <mxPoint x="295" y="171" />
            </Array>
          </mxGeometry>
        </mxCell>
        <mxCell id="vcufhArVfd2CTRCupKjw-229" style="edgeStyle=orthogonalEdgeStyle;rounded=0;orthogonalLoop=1;jettySize=auto;html=1;" edge="1" parent="vcufhArVfd2CTRCupKjw-430" source="vcufhArVfd2CTRCupKjw-32" target="vcufhArVfd2CTRCupKjw-227">
          <mxGeometry relative="1" as="geometry" />
        </mxCell>
        <mxCell id="vcufhArVfd2CTRCupKjw-225" style="rounded=0;orthogonalLoop=1;jettySize=auto;html=1;entryX=0;entryY=0.5;entryDx=0;entryDy=0;" edge="1" parent="vcufhArVfd2CTRCupKjw-430">
          <mxGeometry relative="1" as="geometry">
            <mxPoint x="2844" y="964.6427480272519" as="sourcePoint" />
            <mxPoint x="2919.9780219780223" y="964" as="targetPoint" />
          </mxGeometry>
        </mxCell>
        <mxCell id="vcufhArVfd2CTRCupKjw-221" style="rounded=0;orthogonalLoop=1;jettySize=auto;html=1;entryX=0;entryY=0.5;entryDx=0;entryDy=0;" edge="1" parent="vcufhArVfd2CTRCupKjw-430" target="vcufhArVfd2CTRCupKjw-219">
          <mxGeometry relative="1" as="geometry">
            <mxPoint x="2621.0219780219777" y="604.6427480272519" as="sourcePoint" />
            <mxPoint x="2787.9440000000004" y="603.7600000000002" as="targetPoint" />
          </mxGeometry>
        </mxCell>
        <mxCell id="vcufhArVfd2CTRCupKjw-52" value="" style="endArrow=classic;html=1;rounded=0;exitX=0.978;exitY=0.383;exitDx=0;exitDy=0;exitPerimeter=0;entryX=1;entryY=0;entryDx=0;entryDy=0;" edge="1" parent="vcufhArVfd2CTRCupKjw-430" source="vcufhArVfd2CTRCupKjw-63" target="vcufhArVfd2CTRCupKjw-37">
          <mxGeometry width="50" height="50" relative="1" as="geometry">
            <mxPoint x="1826" y="535" as="sourcePoint" />
            <mxPoint x="2190" y="345.44444444444434" as="targetPoint" />
            <Array as="points">
              <mxPoint x="1884" y="528" />
              <mxPoint x="1884" y="253" />
            </Array>
          </mxGeometry>
        </mxCell>
        <mxCell id="vcufhArVfd2CTRCupKjw-68" style="edgeStyle=orthogonalEdgeStyle;rounded=0;orthogonalLoop=1;jettySize=auto;html=1;entryX=0.5;entryY=1;entryDx=0;entryDy=0;exitX=0.5;exitY=0;exitDx=0;exitDy=0;" edge="1" parent="vcufhArVfd2CTRCupKjw-430" source="vcufhArVfd2CTRCupKjw-166" target="vcufhArVfd2CTRCupKjw-63">
          <mxGeometry relative="1" as="geometry">
            <mxPoint x="1396" y="664" as="sourcePoint" />
            <mxPoint x="1464" y="565" as="targetPoint" />
            <Array as="points">
              <mxPoint x="1381" y="619" />
              <mxPoint x="1457" y="619" />
            </Array>
          </mxGeometry>
        </mxCell>
        <mxCell id="vcufhArVfd2CTRCupKjw-87" style="edgeStyle=orthogonalEdgeStyle;rounded=0;orthogonalLoop=1;jettySize=auto;html=1;entryX=0;entryY=0.5;entryDx=0;entryDy=0;" edge="1" parent="vcufhArVfd2CTRCupKjw-430" source="vcufhArVfd2CTRCupKjw-63" target="vcufhArVfd2CTRCupKjw-90">
          <mxGeometry relative="1" as="geometry">
            <Array as="points">
              <mxPoint x="1886" y="543" />
              <mxPoint x="1886" y="650" />
            </Array>
          </mxGeometry>
        </mxCell>
        <mxCell id="vcufhArVfd2CTRCupKjw-165" style="edgeStyle=orthogonalEdgeStyle;rounded=0;orthogonalLoop=1;jettySize=auto;html=1;entryX=0;entryY=0.5;entryDx=0;entryDy=0;" edge="1" parent="vcufhArVfd2CTRCupKjw-430" target="vcufhArVfd2CTRCupKjw-105">
          <mxGeometry relative="1" as="geometry">
            <mxPoint x="1549" y="532.0588235294117" as="sourcePoint" />
            <mxPoint x="2159.0934844192634" y="980.9411764705883" as="targetPoint" />
            <Array as="points">
              <mxPoint x="1549" y="543" />
              <mxPoint x="1886" y="543" />
              <mxPoint x="1886" y="986" />
              <mxPoint x="2159" y="986" />
            </Array>
          </mxGeometry>
        </mxCell>
        <mxCell id="vcufhArVfd2CTRCupKjw-253" style="edgeStyle=orthogonalEdgeStyle;rounded=0;orthogonalLoop=1;jettySize=auto;html=1;" edge="1" parent="vcufhArVfd2CTRCupKjw-430" source="vcufhArVfd2CTRCupKjw-63">
          <mxGeometry relative="1" as="geometry">
            <mxPoint x="858" y="535" as="targetPoint" />
          </mxGeometry>
        </mxCell>
        <mxCell id="vcufhArVfd2CTRCupKjw-347" style="edgeStyle=orthogonalEdgeStyle;rounded=0;orthogonalLoop=1;jettySize=auto;html=1;entryX=1;entryY=0.5;entryDx=0;entryDy=0;" edge="1" parent="vcufhArVfd2CTRCupKjw-430" source="vcufhArVfd2CTRCupKjw-63" target="vcufhArVfd2CTRCupKjw-327">
          <mxGeometry relative="1" as="geometry">
            <Array as="points">
              <mxPoint x="1102" y="535" />
              <mxPoint x="1102" y="166" />
              <mxPoint x="801" y="166" />
            </Array>
          </mxGeometry>
        </mxCell>
        <mxCell id="vcufhArVfd2CTRCupKjw-351" style="edgeStyle=orthogonalEdgeStyle;rounded=0;orthogonalLoop=1;jettySize=auto;html=1;entryX=1;entryY=0.5;entryDx=0;entryDy=0;" edge="1" parent="vcufhArVfd2CTRCupKjw-430" source="vcufhArVfd2CTRCupKjw-63">
          <mxGeometry relative="1" as="geometry">
            <mxPoint x="842" y="869.875" as="targetPoint" />
            <Array as="points">
              <mxPoint x="1103" y="535" />
              <mxPoint x="1103" y="911" />
              <mxPoint x="842" y="911" />
            </Array>
          </mxGeometry>
        </mxCell>
        <mxCell id="vcufhArVfd2CTRCupKjw-63" value="&lt;b&gt;&lt;font style=&quot;font-size: 14px;&quot;&gt;Oriane Se&lt;/font&gt;&lt;/b&gt;&lt;b style=&quot;background-color: transparent; color: light-dark(rgb(0, 0, 0), rgb(255, 255, 255));&quot;&gt;&lt;font style=&quot;font-size: 14px;&quot;&gt;arch API&lt;/font&gt;&lt;/b&gt;&lt;div&gt;(FastAPI - K8s)&lt;/div&gt;" style="rounded=0;whiteSpace=wrap;html=1;fillColor=#f8cecc;strokeColor=#b85450;" vertex="1" parent="vcufhArVfd2CTRCupKjw-430">
          <mxGeometry x="1364" y="505" width="185" height="60" as="geometry" />
        </mxCell>
        <mxCell id="vcufhArVfd2CTRCupKjw-66" value="" style="shape=image;verticalLabelPosition=bottom;labelBackgroundColor=default;verticalAlign=top;aspect=fixed;imageAspect=0;image=https://a.b.cdn.console.awsstatic.com/a/v1/KBJLRZENOPQL6KRM2T7ESBBGZPJ2UAW432YBKYUHK6YV6GJNV3PQ/icon/dca66d38fd916317687e1390a420c3fc-bcaecc0c3e268821d570a17049e38cc4.svg;" vertex="1" parent="vcufhArVfd2CTRCupKjw-430">
          <mxGeometry x="1342" y="483" width="38" height="38" as="geometry" />
        </mxCell>
        <mxCell id="vcufhArVfd2CTRCupKjw-70" value="" style="group" connectable="0" vertex="1" parent="vcufhArVfd2CTRCupKjw-430">
          <mxGeometry x="1339" y="642" width="108" height="263" as="geometry" />
        </mxCell>
        <mxCell id="vcufhArVfd2CTRCupKjw-60" value="" style="group" connectable="0" vertex="1" parent="vcufhArVfd2CTRCupKjw-70">
          <mxGeometry x="-5" y="167" width="90" height="112" as="geometry" />
        </mxCell>
        <mxCell id="vcufhArVfd2CTRCupKjw-57" value="" style="image;points=[];aspect=fixed;html=1;align=center;shadow=0;dashed=0;image=img/lib/allied_telesis/computer_and_terminals/Laptop.svg;" vertex="1" parent="vcufhArVfd2CTRCupKjw-60">
          <mxGeometry x="11" width="71.58" height="72.6" as="geometry" />
        </mxCell>
        <mxCell id="vcufhArVfd2CTRCupKjw-58" value="&lt;div&gt;&lt;b&gt;Client&lt;/b&gt;&lt;/div&gt;OrianeApp" style="text;html=1;align=center;verticalAlign=middle;whiteSpace=wrap;rounded=0;" vertex="1" parent="vcufhArVfd2CTRCupKjw-60">
          <mxGeometry y="73" width="90" height="39" as="geometry" />
        </mxCell>
        <mxCell id="vcufhArVfd2CTRCupKjw-166" value="&lt;span style=&quot;color: rgb(0, 0, 0); font-family: Helvetica; font-style: normal; font-variant-ligatures: normal; font-variant-caps: normal; letter-spacing: normal; orphans: 2; text-align: center; text-indent: 0px; text-transform: none; widows: 2; word-spacing: 0px; -webkit-text-stroke-width: 0px; white-space: normal; background-color: rgb(236, 236, 236); text-decoration-thickness: initial; text-decoration-style: initial; text-decoration-color: initial; float: none; display: inline !important;&quot;&gt;&lt;b style=&quot;&quot;&gt;&lt;font style=&quot;font-size: 14px;&quot;&gt;OrianeApp&lt;/font&gt;&lt;/b&gt;&lt;/span&gt;&lt;br style=&quot;forced-color-adjust: none; color: rgb(0, 0, 0); font-family: Helvetica; font-size: 12px; font-style: normal; font-variant-ligatures: normal; font-variant-caps: normal; font-weight: 400; letter-spacing: normal; orphans: 2; text-align: center; text-indent: 0px; text-transform: none; widows: 2; word-spacing: 0px; -webkit-text-stroke-width: 0px; white-space: normal; background-color: rgb(236, 236, 236); text-decoration-thickness: initial; text-decoration-style: initial; text-decoration-color: initial;&quot;&gt;&lt;span style=&quot;color: rgb(0, 0, 0); font-family: Helvetica; font-size: 12px; font-style: normal; font-variant-ligatures: normal; font-variant-caps: normal; font-weight: 400; letter-spacing: normal; orphans: 2; text-align: center; text-indent: 0px; text-transform: none; widows: 2; word-spacing: 0px; -webkit-text-stroke-width: 0px; white-space: normal; background-color: rgb(236, 236, 236); text-decoration-thickness: initial; text-decoration-style: initial; text-decoration-color: initial; float: none; display: inline !important;&quot;&gt;(Nuxt-Bun)&lt;/span&gt;" style="rounded=0;whiteSpace=wrap;html=1;fillColor=#e1d5e7;strokeColor=#9673a6;" vertex="1" parent="vcufhArVfd2CTRCupKjw-70">
          <mxGeometry x="-18" y="27" width="120" height="60" as="geometry" />
        </mxCell>
        <mxCell id="vcufhArVfd2CTRCupKjw-171" style="edgeStyle=orthogonalEdgeStyle;rounded=0;orthogonalLoop=1;jettySize=auto;html=1;entryX=0.5;entryY=1;entryDx=0;entryDy=0;" edge="1" parent="vcufhArVfd2CTRCupKjw-70" source="vcufhArVfd2CTRCupKjw-57" target="vcufhArVfd2CTRCupKjw-166">
          <mxGeometry relative="1" as="geometry" />
        </mxCell>
        <mxCell id="vcufhArVfd2CTRCupKjw-188" value="Bearer" style="text;html=1;align=center;verticalAlign=middle;whiteSpace=wrap;rounded=0;fontSize=11;" vertex="1" parent="vcufhArVfd2CTRCupKjw-70">
          <mxGeometry x="24" y="109" width="83" height="30" as="geometry" />
        </mxCell>
        <mxCell id="vcufhArVfd2CTRCupKjw-71" value="" style="group" connectable="0" vertex="1" parent="vcufhArVfd2CTRCupKjw-430">
          <mxGeometry x="1479" y="653" width="142" height="260" as="geometry" />
        </mxCell>
        <mxCell id="vcufhArVfd2CTRCupKjw-61" value="" style="group" connectable="0" vertex="1" parent="vcufhArVfd2CTRCupKjw-71">
          <mxGeometry x="30" y="158" width="90" height="112" as="geometry" />
        </mxCell>
        <mxCell id="vcufhArVfd2CTRCupKjw-55" value="" style="image;points=[];aspect=fixed;html=1;align=center;shadow=0;dashed=0;image=img/lib/allied_telesis/computer_and_terminals/Laptop.svg;" vertex="1" parent="vcufhArVfd2CTRCupKjw-61">
          <mxGeometry x="11" width="71.58" height="72.6" as="geometry" />
        </mxCell>
        <mxCell id="vcufhArVfd2CTRCupKjw-56" value="&lt;div&gt;&lt;b&gt;Client&lt;/b&gt;&lt;/div&gt;OrianeAdmin" style="text;html=1;align=center;verticalAlign=middle;whiteSpace=wrap;rounded=0;" vertex="1" parent="vcufhArVfd2CTRCupKjw-61">
          <mxGeometry y="73" width="90" height="39" as="geometry" />
        </mxCell>
        <mxCell id="vcufhArVfd2CTRCupKjw-168" value="&lt;span style=&quot;color: rgb(0, 0, 0); font-family: Helvetica; font-style: normal; font-variant-ligatures: normal; font-variant-caps: normal; letter-spacing: normal; orphans: 2; text-align: center; text-indent: 0px; text-transform: none; widows: 2; word-spacing: 0px; -webkit-text-stroke-width: 0px; white-space: normal; background-color: rgb(236, 236, 236); text-decoration-thickness: initial; text-decoration-style: initial; text-decoration-color: initial; float: none; display: inline !important;&quot;&gt;&lt;b style=&quot;&quot;&gt;&lt;font style=&quot;font-size: 14px;&quot;&gt;OrianeAdmin&lt;/font&gt;&lt;/b&gt;&lt;/span&gt;&lt;br style=&quot;forced-color-adjust: none; color: rgb(0, 0, 0); font-family: Helvetica; font-size: 12px; font-style: normal; font-variant-ligatures: normal; font-variant-caps: normal; font-weight: 400; letter-spacing: normal; orphans: 2; text-align: center; text-indent: 0px; text-transform: none; widows: 2; word-spacing: 0px; -webkit-text-stroke-width: 0px; white-space: normal; background-color: rgb(236, 236, 236); text-decoration-thickness: initial; text-decoration-style: initial; text-decoration-color: initial;&quot;&gt;&lt;span style=&quot;color: rgb(0, 0, 0); font-family: Helvetica; font-size: 12px; font-style: normal; font-variant-ligatures: normal; font-variant-caps: normal; font-weight: 400; letter-spacing: normal; orphans: 2; text-align: center; text-indent: 0px; text-transform: none; widows: 2; word-spacing: 0px; -webkit-text-stroke-width: 0px; white-space: normal; background-color: rgb(236, 236, 236); text-decoration-thickness: initial; text-decoration-style: initial; text-decoration-color: initial; float: none; display: inline !important;&quot;&gt;(React-NestJS-Bun)&lt;/span&gt;" style="rounded=0;whiteSpace=wrap;html=1;fillColor=#e1d5e7;strokeColor=#9673a6;" vertex="1" parent="vcufhArVfd2CTRCupKjw-71">
          <mxGeometry x="16" y="16" width="120" height="60" as="geometry" />
        </mxCell>
        <mxCell id="vcufhArVfd2CTRCupKjw-65" value="" style="shape=image;verticalLabelPosition=bottom;labelBackgroundColor=default;verticalAlign=top;aspect=fixed;imageAspect=0;image=https://a.b.cdn.console.awsstatic.com/a/v1/4O423MMLOJSHN2IMAAUMYOMXKD76H7SBF6BPXC4TTKXRXKBG7AZA/icon/051de32597041e41f73b97d61c67a13b-9cbdaf85e3bcf29b656fdedd8e6d1305.svg;" vertex="1" parent="vcufhArVfd2CTRCupKjw-71">
          <mxGeometry y="-4" width="35" height="35" as="geometry" />
        </mxCell>
        <mxCell id="vcufhArVfd2CTRCupKjw-170" style="edgeStyle=orthogonalEdgeStyle;rounded=0;orthogonalLoop=1;jettySize=auto;html=1;" edge="1" parent="vcufhArVfd2CTRCupKjw-71" source="vcufhArVfd2CTRCupKjw-55" target="vcufhArVfd2CTRCupKjw-168">
          <mxGeometry relative="1" as="geometry" />
        </mxCell>
        <mxCell id="vcufhArVfd2CTRCupKjw-189" value="Bearer" style="text;html=1;align=center;verticalAlign=middle;whiteSpace=wrap;rounded=0;fontSize=11;" vertex="1" parent="vcufhArVfd2CTRCupKjw-71">
          <mxGeometry x="60" y="98" width="83" height="30" as="geometry" />
        </mxCell>
        <mxCell id="vcufhArVfd2CTRCupKjw-208" value="" style="group" connectable="0" vertex="1" parent="vcufhArVfd2CTRCupKjw-71">
          <mxGeometry x="-322" y="-2" width="124.5" height="90" as="geometry" />
        </mxCell>
        <mxCell id="vcufhArVfd2CTRCupKjw-209" value="&lt;div&gt;&lt;b&gt;Postgres DB&lt;/b&gt;&lt;/div&gt;oriane-app" style="shape=cylinder3;whiteSpace=wrap;html=1;boundedLbl=1;backgroundOutline=1;size=15;" vertex="1" parent="vcufhArVfd2CTRCupKjw-208">
          <mxGeometry x="16" y="7" width="108.5" height="83" as="geometry" />
        </mxCell>
        <mxCell id="vcufhArVfd2CTRCupKjw-210" value="" style="shape=image;verticalLabelPosition=bottom;labelBackgroundColor=default;verticalAlign=top;aspect=fixed;imageAspect=0;image=https://images.seeklogo.com/logo-png/43/1/aws-aurora-logo-png_seeklogo-430929.png;" vertex="1" parent="vcufhArVfd2CTRCupKjw-208">
          <mxGeometry width="38" height="38" as="geometry" />
        </mxCell>
        <mxCell id="vcufhArVfd2CTRCupKjw-413" value="" style="shape=image;verticalLabelPosition=bottom;labelBackgroundColor=default;verticalAlign=top;aspect=fixed;imageAspect=0;image=https://a.b.cdn.console.awsstatic.com/a/v1/RHSMMGZKYJXPPNI2IOC6Z63HJEW4FD5ZYMKJSXD7HQ5IPUTQR2TQ/icon/d88319dfa5d204f019b4284149886c59-7d586ea82f792b61a8c87de60565133d.svg;" vertex="1" parent="vcufhArVfd2CTRCupKjw-208">
          <mxGeometry x="49" y="-16" width="38" height="38" as="geometry" />
        </mxCell>
        <mxCell id="vcufhArVfd2CTRCupKjw-67" value="&lt;div&gt;&lt;b&gt;Nitro&lt;/b&gt;&lt;/div&gt;&lt;div&gt;&lt;b&gt;Servers&lt;/b&gt;&lt;/div&gt;" style="text;html=1;align=center;verticalAlign=middle;whiteSpace=wrap;rounded=0;" vertex="1" parent="vcufhArVfd2CTRCupKjw-71">
          <mxGeometry x="-56" y="56" width="90" height="39" as="geometry" />
        </mxCell>
        <mxCell id="vcufhArVfd2CTRCupKjw-84" style="edgeStyle=orthogonalEdgeStyle;rounded=0;orthogonalLoop=1;jettySize=auto;html=1;exitX=0.5;exitY=0;exitDx=0;exitDy=0;entryX=0.5;entryY=1;entryDx=0;entryDy=0;" edge="1" parent="vcufhArVfd2CTRCupKjw-430" source="vcufhArVfd2CTRCupKjw-168" target="vcufhArVfd2CTRCupKjw-63">
          <mxGeometry relative="1" as="geometry">
            <mxPoint x="1465" y="575" as="targetPoint" />
            <mxPoint x="1534" y="662" as="sourcePoint" />
            <Array as="points">
              <mxPoint x="1555" y="619" />
              <mxPoint x="1457" y="619" />
            </Array>
          </mxGeometry>
        </mxCell>
        <mxCell id="vcufhArVfd2CTRCupKjw-64" value="" style="shape=image;verticalLabelPosition=bottom;labelBackgroundColor=default;verticalAlign=top;aspect=fixed;imageAspect=0;image=https://a.b.cdn.console.awsstatic.com/a/v1/4O423MMLOJSHN2IMAAUMYOMXKD76H7SBF6BPXC4TTKXRXKBG7AZA/icon/051de32597041e41f73b97d61c67a13b-9cbdaf85e3bcf29b656fdedd8e6d1305.svg;" vertex="1" parent="vcufhArVfd2CTRCupKjw-430">
          <mxGeometry x="1306" y="651" width="35" height="35" as="geometry" />
        </mxCell>
        <mxCell id="vcufhArVfd2CTRCupKjw-184" style="edgeStyle=orthogonalEdgeStyle;rounded=0;orthogonalLoop=1;jettySize=auto;html=1;entryX=0.5;entryY=1;entryDx=0;entryDy=0;" edge="1" parent="vcufhArVfd2CTRCupKjw-430" source="vcufhArVfd2CTRCupKjw-185" target="vcufhArVfd2CTRCupKjw-166">
          <mxGeometry relative="1" as="geometry">
            <mxPoint x="1220" y="802" as="sourcePoint" />
            <Array as="points">
              <mxPoint x="1246" y="776" />
              <mxPoint x="1381" y="776" />
            </Array>
          </mxGeometry>
        </mxCell>
        <mxCell id="vcufhArVfd2CTRCupKjw-186" value="" style="group" connectable="0" vertex="1" parent="vcufhArVfd2CTRCupKjw-430">
          <mxGeometry x="1197" y="813" width="99" height="107" as="geometry" />
        </mxCell>
        <mxCell id="vcufhArVfd2CTRCupKjw-182" value="&lt;div&gt;&lt;b&gt;Server&lt;/b&gt;&lt;/div&gt;OrianeAPI" style="text;html=1;align=center;verticalAlign=middle;whiteSpace=wrap;rounded=0;" vertex="1" parent="vcufhArVfd2CTRCupKjw-186">
          <mxGeometry x="5" y="68" width="90" height="39" as="geometry" />
        </mxCell>
        <mxCell id="vcufhArVfd2CTRCupKjw-185" value="" style="image;html=1;image=img/lib/clip_art/computers/Server_128x128.png" vertex="1" parent="vcufhArVfd2CTRCupKjw-186">
          <mxGeometry width="99" height="69" as="geometry" />
        </mxCell>
        <mxCell id="vcufhArVfd2CTRCupKjw-187" value="ApiKey" style="text;html=1;align=center;verticalAlign=middle;whiteSpace=wrap;rounded=0;fontSize=11;" vertex="1" parent="vcufhArVfd2CTRCupKjw-430">
          <mxGeometry x="1270" y="750" width="83" height="28" as="geometry" />
        </mxCell>
        <mxCell id="vcufhArVfd2CTRCupKjw-190" value="AWS Cognito" style="text;html=1;align=center;verticalAlign=middle;whiteSpace=wrap;rounded=0;fontSize=11;" vertex="1" parent="vcufhArVfd2CTRCupKjw-430">
          <mxGeometry x="1458" y="577" width="118" height="30" as="geometry" />
        </mxCell>
        <mxCell id="vcufhArVfd2CTRCupKjw-191" value="jobs/run/{job_id}" style="text;html=1;align=center;verticalAlign=middle;whiteSpace=wrap;rounded=0;fontStyle=1" vertex="1" parent="vcufhArVfd2CTRCupKjw-430">
          <mxGeometry x="1747" y="499" width="135" height="30" as="geometry" />
        </mxCell>
        <mxCell id="vcufhArVfd2CTRCupKjw-192" value="add-content/{user_id}/" style="text;html=1;align=center;verticalAlign=middle;whiteSpace=wrap;rounded=0;fontStyle=1" vertex="1" parent="vcufhArVfd2CTRCupKjw-430">
          <mxGeometry x="1733" y="545" width="143" height="30" as="geometry" />
        </mxCell>
        <mxCell id="vcufhArVfd2CTRCupKjw-202" value="" style="group" connectable="0" vertex="1" parent="vcufhArVfd2CTRCupKjw-430">
          <mxGeometry x="1830" y="531" width="1042" height="634" as="geometry" />
        </mxCell>
        <mxCell id="vcufhArVfd2CTRCupKjw-98" value="&lt;div&gt;&amp;nbsp; {&lt;/div&gt;&lt;div&gt;&amp;nbsp; &amp;nbsp; &amp;nbsp; user_id: &amp;lt;user-uuid&amp;gt;,&lt;/div&gt;&lt;div&gt;&amp;nbsp; &amp;nbsp; &amp;nbsp; video: &amp;lt;binary-buffer&amp;gt;,&lt;/div&gt;&lt;div&gt;&amp;nbsp; }&lt;/div&gt;" style="text;html=1;align=left;verticalAlign=middle;whiteSpace=wrap;rounded=0;fillColor=#f5f5f5;fontColor=#333333;strokeColor=#666666;glass=0;shadow=1;" vertex="1" parent="vcufhArVfd2CTRCupKjw-202">
          <mxGeometry x="98" y="417" width="156" height="82" as="geometry" />
        </mxCell>
        <mxCell id="vcufhArVfd2CTRCupKjw-164" value="" style="group" connectable="0" vertex="1" parent="vcufhArVfd2CTRCupKjw-202">
          <mxGeometry x="249" y="321" width="793" height="308" as="geometry" />
        </mxCell>
        <mxCell id="vcufhArVfd2CTRCupKjw-99" value="" style="group;fillColor=#d5e8d4;strokeColor=#82b366;container=0;" connectable="0" vertex="1" parent="vcufhArVfd2CTRCupKjw-164">
          <mxGeometry x="21" y="17" width="772" height="291" as="geometry" />
        </mxCell>
        <mxCell id="vcufhArVfd2CTRCupKjw-115" value="" style="shape=image;verticalLabelPosition=bottom;labelBackgroundColor=default;verticalAlign=top;aspect=fixed;imageAspect=0;image=https://a.b.cdn.console.awsstatic.com/a/v1/KBJLRZENOPQL6KRM2T7ESBBGZPJ2UAW432YBKYUHK6YV6GJNV3PQ/icon/dca66d38fd916317687e1390a420c3fc-bcaecc0c3e268821d570a17049e38cc4.svg;" vertex="1" parent="vcufhArVfd2CTRCupKjw-164">
          <mxGeometry width="41" height="41" as="geometry" />
        </mxCell>
        <mxCell id="vcufhArVfd2CTRCupKjw-100" value="&lt;div&gt;&lt;b&gt;AWS S3&lt;/b&gt;&lt;/div&gt;oriane-app" style="shape=cylinder3;whiteSpace=wrap;html=1;boundedLbl=1;backgroundOutline=1;size=15;" vertex="1" parent="vcufhArVfd2CTRCupKjw-164">
          <mxGeometry x="241.7778753541079" y="207" width="114.49362606232295" height="83" as="geometry" />
        </mxCell>
        <mxCell id="vcufhArVfd2CTRCupKjw-101" value="" style="shape=image;verticalLabelPosition=bottom;labelBackgroundColor=default;verticalAlign=top;aspect=fixed;imageAspect=0;image=https://cdn.worldvectorlogo.com/logos/amazon-s3-simple-storage-service.svg;" vertex="1" parent="vcufhArVfd2CTRCupKjw-164">
          <mxGeometry x="227.00450424929159" y="217" width="35" height="35" as="geometry" />
        </mxCell>
        <mxCell id="vcufhArVfd2CTRCupKjw-102" value="Upload Video Pipeline" style="text;html=1;align=center;verticalAlign=middle;whiteSpace=wrap;rounded=0;fontStyle=1;fontSize=14;" vertex="1" parent="vcufhArVfd2CTRCupKjw-164">
          <mxGeometry x="320" y="15" width="210" height="30" as="geometry" />
        </mxCell>
        <mxCell id="vcufhArVfd2CTRCupKjw-103" value="&lt;div&gt;&lt;span style=&quot;background-color: transparent; color: light-dark(rgb(0, 0, 0), rgb(255, 255, 255));&quot;&gt;&lt;b&gt;Qdrant&lt;/b&gt;&lt;/span&gt;&lt;/div&gt;&lt;div&gt;user_videos&lt;/div&gt;" style="shape=cylinder3;whiteSpace=wrap;html=1;boundedLbl=1;backgroundOutline=1;size=15;" vertex="1" parent="vcufhArVfd2CTRCupKjw-164">
          <mxGeometry x="627.7752407932012" y="208" width="114.49362606232295" height="83" as="geometry" />
        </mxCell>
        <mxCell id="vcufhArVfd2CTRCupKjw-104" value="" style="shape=image;verticalLabelPosition=bottom;labelBackgroundColor=default;verticalAlign=top;aspect=fixed;imageAspect=0;image=data:image/png,iVBORw0KGgoAAAANSUhEUgAAAMgAAADICAMAAACahl6sAAABRFBMVEX////cJEyyv+h1ib4kOGz/M2SUnrcyNWjZ4PS2stthMWC/i7P1Ll3hJFDnJ1TtKlj4+fzf4/Dw8viSosvZJk54hruElsXl6fN8j8GZp8/TLFXJNmDNMlx6hLmAf7Jjd6yGeKq+yeuyvdvI0OWMcaPFOWTCPGiPbqCDe69BVYmDjqydq9Gptte/yOGClMS/QGzQL1i0SnerU4EwRHimteCXaJmiXYydYpJMYJRYbKE1SX3Dg6y4qNE7NWhINGW3J1Kjq8FBUn/75upreJuuUH65RXI8UIWmWYfcOl95RnHLXoeOLFnFd59xMF/SSHKiKlZ9LlzAmMKxKFORLFnwPmylKlXoUHzJaJG7ncbPUnvHcJleMmL0OWjgVoOFPGq4v9D30trkVnX1vspZaJDyq7vumKrrhZvocYvP1N9MXIblYX1hb5UEN/r/AAAHwElEQVR4nO2d61vTSBTG2yG1Flss2AqUS11RQUXlInIR8MrKIqigi/dddde9/v/fN2mhySQzkzNnMpmZffp+J5zf43lP3syJpFDQrpHxmyP6f4t21S8P+LpcN12HqmZuD3R0e8Z0JUoavjDQ04Vh09WgNTI/QMlRq9RvDcQ1dstBq8xcTHD4uuiaVUYvsDA6Vhk1XZuE4uagNe9Mf90aE3EEVjFdIUhnmeaIWeWs6SpTNTqejhFo3G6rdPMITDanlpkUc9CyNrUMA8xBy8rUMnJTFiOQdamlflmqqyKyyyqnYR0ji1ILP4/AZElqEecRmOYtsEpaHoHJeGqB5BGYjKYWVXPQMpZa6hmYg5aZUZyNOWiN5T+K5fMITBfzTS24PAJTjqlFJqwjNJaXVVTyCEy5BPzhTEcuT9oDfhZ5BCatqaWuY+TypDG1sA8P9UlTask2j8CkIeAr5JG5O3fm0D+c9bEk3hxTTxvFYuPpFPbnM7WKQh5ZbRU7aq2iL5FZaoEeHjJ0ZaLY08QV9GUySS0KeWR6p0hpZxp9KfXUgs8jzaVGMabGUhN7NcXUopBHVhbiGIEWVtAXVEgtCnnk0lUWRqCrl9AXRaYWxjITqulFHkagRbRVUMtUfB5pPmuJOPxR/AxtFeljSYU8sjIpxgg0qWAVmdSiYo5r6RiBruWRWhTzCEz6Uwv+8LB5L8UctFRSS3rAV8kjAHPQUkgtKceSCnlkbie98KR2NFllBjusppYwGIHQqWXtjMgf5C7KIavMPALTAsoq7WVPDELIXemZdYWbR2C6Km2V9o+elwpCiFx/ifMITJKpZc3zQCAy/dV8Br5ziNSQSC3ryx4UxEcBPoZA8ghM0NTSPsEAghAyDrAKNI/AdA0Q8NvXPU8SJN0q04uZdFWo9NSy5nkIELFVJPMITK17IqusL3s4ENEons3MHLQmuaO4veF5aBDfKsyLzt3RgxGIk1que3HJgbCsMpU8H8lSjaWkVdYSGPIgCausajAHrXhqiZkDC0JbJXp4qE/R1NLJI9mAhP0VPzzUp15qYXUVHoSQoL8yyiMwdVMLu6tUQPzUwj481KeFlTYfAw9CKvliBCoLOPIHmZxF3z1tAumkDmyesQjkdPjgHr+sAYkevfMP6K0HiS9D5KeeFSCMp1fp+5ANIOyFoWQyMA/CPwyVymqmQcTH0xLp2SwI63mCEnz5YBQE8uIJ9AnTIMjkbDpGIFhqMQYiPgWhBEothkAacke4gNRiBgRyUkgrNbWYANlFbZxXdq0DOYfaEK3/ZB8IYkPU3vAGLQSBneCHagaHh3aCSC27usc8toKAl12nxzzWgsCWqeHJusUg6VZpRk7WrQZJsQp1Bmo5iMAqsTNQ20F4e+HE2sl+EJZV2sm1kwsgCauwFgRugFBWWWdW4whIaBXegsAZkK5VeNszp0B8q3C3Z46BEEE1fZA+SB+kD9IH6YP0QfogfZA+SB/EHMh9HMiBdSCNvYo8SPm5eFFtZvXW2pcFOUjbh5ra6i4cyoBsP0i9oLk9+4tNKMjWS8DlDL4wwLQKo4pXoLc4DILUagyrJGoYBL5XY/JdlFqtthu3SqwCgDnsAKkNxaxC/f7yayiGeZDa0NAeDwRmDvMgJxxD5z9FrBL+8kG59zNN/4sEIOfPvzmMg2wfSWHYAlKtHleiIOXX0v/XwYbWCkCq1b0QJDWP2AxSKlX3uyAfUe/529JaPkip5FvF2/oZg2EZSKl0LHHnsAukRoOUsByaQEjlPZjDbhBC3qW/D+4GCCH304aoKyCk8lZ4W3OktTrafPE/ASHkUHB3cwqEkH2uVRwDIZU9AYjt9xFa75hWccsjJzrHeh/cRRBCPiRHsZsgSas42VodxVKLuyDx1OIwCJ1aXAbxU0sY8N27j9A6TS2yHtG06CmM/oBGORnFUiCtA007RKV/lO4DpARI43lZ1zI0UH0GjXI4IdNaR1uetq1uVyP4/tpvQUEWPnaq0QpSKAyjUSp7IJDGq5NqNIMU6nirbL5IB3ndq1A3iJJVzu2KQR5sh9XoB1EaxW8FIK3BaDV5gPhWQZNUPnNAeubIFUTFKodvWCAvt2LV5ASiNoo/xUGi5sgbRMkq76tRkNYBo5ocQVRSy+ZxDyTII6ZBlEbxpy7IUdwcRkCUrPKhWipOfuRVkzeISmohn3/hV5M/iIpVBNWYAMFbxTYQtFXsA0FaxUYQVGqxEgTTX5aCyKcWa0FkR7HFIHKj2GYQKavYDSJhFdtBwFaxHwRoFQdAYFZxAgRy1uIISHpqcQUk+C6cAZCHGkBSRrGgGvSfbnv0qxaOgnAUc6vZeFj48hUDsnxG44e2+VbhlXOj84HDb/y/DMgDeaL50+e8Ucyu5rfeJyd/56GwQf7+Sy9GILZVWNVQPV7/zt7uskD0mYMWq7+S1SR6/PEfLJQkiFZz0GKkFlCPP/4TAPIk+49RC5SwStwcnB5PDrAYSB7moBU7awH3+LevAhB/VucvehRHy7kh7nF6gEVBbmgeuTxFrSLT49QAC0H+zdUctMJRLNfj9XCAnYLkNXJ5GqZA4D3eG2BdkOWHuY1cnk6sIt/jX/4JQUyZg1ZnFAc9LvsJ7M4sLvNndf7yrYLrcX+AlU2bg9ZZ7LPcd4k88h/I6J5xlManeQAAAABJRU5ErkJggg==;" vertex="1" parent="vcufhArVfd2CTRCupKjw-164">
          <mxGeometry x="613.0018696883853" y="197" width="40" height="40" as="geometry" />
        </mxCell>
        <mxCell id="vcufhArVfd2CTRCupKjw-105" value="&lt;div&gt;&lt;div&gt;&lt;b&gt;AWS EC2: g3&lt;/b&gt;&lt;b style=&quot;background-color: transparent; color: light-dark(rgb(0, 0, 0), rgb(255, 255, 255));&quot;&gt;.xmiddle (2vCPU, 1vGPU, 2vGiB)&lt;/b&gt;&lt;/div&gt;&lt;div&gt;&lt;b&gt;&lt;br&gt;&lt;/b&gt;&lt;/div&gt;&lt;div&gt;&lt;b&gt;&lt;br&gt;&lt;/b&gt;&lt;/div&gt;&lt;div&gt;&lt;br&gt;&lt;/div&gt;&lt;div&gt;&lt;br&gt;&lt;/div&gt;&lt;/div&gt;" style="rounded=0;whiteSpace=wrap;html=1;" vertex="1" parent="vcufhArVfd2CTRCupKjw-164">
          <mxGeometry x="80.0934844192634" y="61" width="685.9065155807366" height="99.75" as="geometry" />
        </mxCell>
        <mxCell id="vcufhArVfd2CTRCupKjw-106" value="" style="shape=image;verticalLabelPosition=bottom;labelBackgroundColor=default;verticalAlign=top;aspect=fixed;imageAspect=0;image=https://a.b.cdn.console.awsstatic.com/a/v1/RHSMMGZKYJXPPNI2IOC6Z63HJEW4FD5ZYMKJSXD7HQ5IPUTQR2TQ/icon/d88319dfa5d204f019b4284149886c59-7d586ea82f792b61a8c87de60565133d.svg;" vertex="1" parent="vcufhArVfd2CTRCupKjw-164">
          <mxGeometry x="62.15439093484429" y="39" width="38" height="38" as="geometry" />
        </mxCell>
        <mxCell id="vcufhArVfd2CTRCupKjw-110" style="edgeStyle=orthogonalEdgeStyle;rounded=0;orthogonalLoop=1;jettySize=auto;html=1;" edge="1" parent="vcufhArVfd2CTRCupKjw-164" source="vcufhArVfd2CTRCupKjw-109" target="vcufhArVfd2CTRCupKjw-100">
          <mxGeometry relative="1" as="geometry">
            <Array as="points">
              <mxPoint x="178" y="185" />
              <mxPoint x="299" y="185" />
            </Array>
          </mxGeometry>
        </mxCell>
        <mxCell id="vcufhArVfd2CTRCupKjw-112" value="&lt;div&gt;&lt;span style=&quot;font-size: 11px;&quot;&gt;.mp4&amp;nbsp;&lt;/span&gt;&lt;span style=&quot;font-size: 11px; background-color: transparent; color: light-dark(rgb(0, 0, 0), rgb(255, 255, 255));&quot;&gt;720p&lt;/span&gt;&lt;/div&gt;" style="text;html=1;align=left;verticalAlign=middle;whiteSpace=wrap;rounded=0;" vertex="1" parent="vcufhArVfd2CTRCupKjw-164">
          <mxGeometry x="185" y="166" width="90" height="17" as="geometry" />
        </mxCell>
        <mxCell id="vcufhArVfd2CTRCupKjw-113" value="&lt;span style=&quot;font-size: 11px;&quot;&gt;· Instance timeout: 360s (5min)&amp;nbsp; &amp;nbsp; &amp;nbsp; &amp;nbsp; &amp;nbsp; &amp;nbsp; &amp;nbsp; &amp;nbsp; &amp;nbsp; &amp;nbsp; &amp;nbsp;· Instance batch size: 1 image&lt;/span&gt;" style="text;html=1;align=left;verticalAlign=middle;whiteSpace=wrap;rounded=0;" vertex="1" parent="vcufhArVfd2CTRCupKjw-164">
          <mxGeometry x="124.41359773371096" y="44" width="432.6487252124646" height="17" as="geometry" />
        </mxCell>
        <mxCell id="vcufhArVfd2CTRCupKjw-156" style="edgeStyle=orthogonalEdgeStyle;rounded=0;orthogonalLoop=1;jettySize=auto;html=1;" edge="1" parent="vcufhArVfd2CTRCupKjw-164" source="vcufhArVfd2CTRCupKjw-147" target="vcufhArVfd2CTRCupKjw-103">
          <mxGeometry relative="1" as="geometry" />
        </mxCell>
        <mxCell id="vcufhArVfd2CTRCupKjw-157" value="" style="group" connectable="0" vertex="1" parent="vcufhArVfd2CTRCupKjw-164">
          <mxGeometry x="90.6458923512746" y="99" width="653.5421246458923" height="46.44444444444446" as="geometry" />
        </mxCell>
        <mxCell id="vcufhArVfd2CTRCupKjw-109" value="1. Store video (x720p)&lt;div&gt;&amp;lt;user-uuid&amp;gt;/vid/&amp;lt;dt&amp;gt;.mp4&lt;/div&gt;" style="rounded=1;whiteSpace=wrap;html=1;" vertex="1" parent="vcufhArVfd2CTRCupKjw-157">
          <mxGeometry x="14" width="161.17" height="46.44" as="geometry" />
        </mxCell>
        <mxCell id="vcufhArVfd2CTRCupKjw-145" value="2. VideoCropping&lt;div&gt;(opencv-cuda) GPU&lt;/div&gt;" style="rounded=1;whiteSpace=wrap;html=1;" vertex="1" parent="vcufhArVfd2CTRCupKjw-157">
          <mxGeometry x="214.3541076487252" width="118" height="46.44" as="geometry" />
        </mxCell>
        <mxCell id="vcufhArVfd2CTRCupKjw-146" value="3. SceneFraming&lt;div&gt;(ffmpeg-cuda) GPU&lt;/div&gt;" style="rounded=1;whiteSpace=wrap;html=1;" vertex="1" parent="vcufhArVfd2CTRCupKjw-157">
          <mxGeometry x="374.3547592067989" width="118.18696883852692" height="46.44444444444444" as="geometry" />
        </mxCell>
        <mxCell id="vcufhArVfd2CTRCupKjw-147" value="4. Embbedings&lt;div&gt;(open-clip) GPU&lt;/div&gt;" style="rounded=1;whiteSpace=wrap;html=1;" vertex="1" parent="vcufhArVfd2CTRCupKjw-157">
          <mxGeometry x="535.3551558073653" width="118.18696883852692" height="46.44444444444444" as="geometry" />
        </mxCell>
        <mxCell id="vcufhArVfd2CTRCupKjw-149" value="&lt;span style=&quot;font-size: 11px;&quot;&gt;.png&lt;/span&gt;" style="text;html=1;align=left;verticalAlign=middle;whiteSpace=wrap;rounded=0;" vertex="1" parent="vcufhArVfd2CTRCupKjw-157">
          <mxGeometry x="498.3569688385269" y="2.997777777777827" width="37.98866855524079" height="17" as="geometry" />
        </mxCell>
        <mxCell id="vcufhArVfd2CTRCupKjw-151" value="&lt;span style=&quot;font-size: 11px;&quot;&gt;.mp4&lt;/span&gt;" style="text;html=1;align=left;verticalAlign=middle;whiteSpace=wrap;rounded=0;" vertex="1" parent="vcufhArVfd2CTRCupKjw-157">
          <mxGeometry x="178.3541076487252" y="3" width="37.98866855524079" height="17" as="geometry" />
        </mxCell>
        <mxCell id="vcufhArVfd2CTRCupKjw-155" value="&lt;span style=&quot;font-size: 11px;&quot;&gt;.mp4&lt;/span&gt;" style="text;html=1;align=left;verticalAlign=middle;whiteSpace=wrap;rounded=0;" vertex="1" parent="vcufhArVfd2CTRCupKjw-157">
          <mxGeometry x="336.3541076487252" y="3" width="37.98866855524079" height="17" as="geometry" />
        </mxCell>
        <mxCell id="vcufhArVfd2CTRCupKjw-150" style="edgeStyle=orthogonalEdgeStyle;rounded=0;orthogonalLoop=1;jettySize=auto;html=1;" edge="1" parent="vcufhArVfd2CTRCupKjw-157" source="vcufhArVfd2CTRCupKjw-109" target="vcufhArVfd2CTRCupKjw-145">
          <mxGeometry relative="1" as="geometry" />
        </mxCell>
        <mxCell id="vcufhArVfd2CTRCupKjw-152" style="edgeStyle=orthogonalEdgeStyle;rounded=0;orthogonalLoop=1;jettySize=auto;html=1;" edge="1" parent="vcufhArVfd2CTRCupKjw-157" source="vcufhArVfd2CTRCupKjw-145" target="vcufhArVfd2CTRCupKjw-146">
          <mxGeometry relative="1" as="geometry" />
        </mxCell>
        <mxCell id="vcufhArVfd2CTRCupKjw-154" style="edgeStyle=orthogonalEdgeStyle;rounded=0;orthogonalLoop=1;jettySize=auto;html=1;" edge="1" parent="vcufhArVfd2CTRCupKjw-157" source="vcufhArVfd2CTRCupKjw-146" target="vcufhArVfd2CTRCupKjw-147">
          <mxGeometry relative="1" as="geometry" />
        </mxCell>
        <mxCell id="vcufhArVfd2CTRCupKjw-159" style="edgeStyle=orthogonalEdgeStyle;rounded=0;orthogonalLoop=1;jettySize=auto;html=1;entryX=0.5;entryY=0;entryDx=0;entryDy=0;entryPerimeter=0;exitX=0.5;exitY=1;exitDx=0;exitDy=0;" edge="1" parent="vcufhArVfd2CTRCupKjw-164">
          <mxGeometry relative="1" as="geometry">
            <mxPoint x="524.0941359773369" y="144.44444444444434" as="sourcePoint" />
            <mxPoint x="299.0246883852692" y="206" as="targetPoint" />
            <Array as="points">
              <mxPoint x="524" y="185" />
              <mxPoint x="299" y="185" />
            </Array>
          </mxGeometry>
        </mxCell>
        <mxCell id="vcufhArVfd2CTRCupKjw-160" value="&lt;span style=&quot;font-size: 11px;&quot;&gt;&amp;lt;user-uuid&amp;gt;/vid/&amp;lt;dt&amp;gt;/frames/&amp;lt;n&amp;gt;_&amp;lt;sec&amp;gt;.png&lt;/span&gt;" style="text;html=1;align=left;verticalAlign=middle;whiteSpace=wrap;rounded=0;" vertex="1" parent="vcufhArVfd2CTRCupKjw-164">
          <mxGeometry x="298" y="167" width="225" height="17" as="geometry" />
        </mxCell>
        <mxCell id="vcufhArVfd2CTRCupKjw-163" value="&lt;div&gt;&lt;span style=&quot;font-size: 11px;&quot;&gt;vecs&lt;/span&gt;&lt;/div&gt;&lt;div&gt;&lt;span style=&quot;font-size: 11px;&quot;&gt;512DIM&lt;/span&gt;&lt;/div&gt;" style="text;html=1;align=left;verticalAlign=middle;whiteSpace=wrap;rounded=0;" vertex="1" parent="vcufhArVfd2CTRCupKjw-164">
          <mxGeometry x="691" y="170" width="36" height="17" as="geometry" />
        </mxCell>
        <mxCell id="vcufhArVfd2CTRCupKjw-88" value="&lt;div&gt;&amp;nbsp; {&lt;/div&gt;&lt;div&gt;&amp;nbsp; &amp;nbsp; &amp;nbsp; user_id: &amp;lt;user-uuid&amp;gt;,&lt;/div&gt;&lt;div&gt;&amp;nbsp; &amp;nbsp; &amp;nbsp; image: &amp;lt;binary-buffer&amp;gt;&lt;/div&gt;&lt;div&gt;&amp;nbsp; }&lt;/div&gt;" style="text;html=1;align=left;verticalAlign=middle;whiteSpace=wrap;rounded=0;fillColor=#f5f5f5;fontColor=#333333;strokeColor=#666666;glass=0;shadow=1;" vertex="1" parent="vcufhArVfd2CTRCupKjw-202">
          <mxGeometry x="98" y="80" width="156" height="80" as="geometry" />
        </mxCell>
        <mxCell id="vcufhArVfd2CTRCupKjw-86" value="" style="group;fillColor=#d5e8d4;strokeColor=#82b366;" connectable="0" vertex="1" parent="vcufhArVfd2CTRCupKjw-202">
          <mxGeometry x="269" y="-22" width="543" height="291" as="geometry" />
        </mxCell>
        <mxCell id="vcufhArVfd2CTRCupKjw-77" value="&lt;div&gt;&lt;b&gt;AWS S3&lt;/b&gt;&lt;/div&gt;oriane-app" style="shape=cylinder3;whiteSpace=wrap;html=1;boundedLbl=1;backgroundOutline=1;size=15;" vertex="1" parent="vcufhArVfd2CTRCupKjw-86">
          <mxGeometry x="128.5" y="185" width="108.5" height="83" as="geometry" />
        </mxCell>
        <mxCell id="vcufhArVfd2CTRCupKjw-78" value="" style="shape=image;verticalLabelPosition=bottom;labelBackgroundColor=default;verticalAlign=top;aspect=fixed;imageAspect=0;image=https://cdn.worldvectorlogo.com/logos/amazon-s3-simple-storage-service.svg;" vertex="1" parent="vcufhArVfd2CTRCupKjw-86">
          <mxGeometry x="116" y="178" width="35" height="35" as="geometry" />
        </mxCell>
        <mxCell id="vcufhArVfd2CTRCupKjw-79" value="Upload Image Pipeline" style="text;html=1;align=center;verticalAlign=middle;whiteSpace=wrap;rounded=0;fontStyle=1;fontSize=14;" vertex="1" parent="vcufhArVfd2CTRCupKjw-86">
          <mxGeometry x="189" width="211" height="30" as="geometry" />
        </mxCell>
        <mxCell id="vcufhArVfd2CTRCupKjw-82" value="&lt;div&gt;&lt;span style=&quot;background-color: transparent; color: light-dark(rgb(0, 0, 0), rgb(255, 255, 255));&quot;&gt;&lt;b&gt;Qdrant&lt;/b&gt;&lt;/span&gt;&lt;/div&gt;&lt;div&gt;user_images&lt;/div&gt;" style="shape=cylinder3;whiteSpace=wrap;html=1;boundedLbl=1;backgroundOutline=1;size=15;" vertex="1" parent="vcufhArVfd2CTRCupKjw-86">
          <mxGeometry x="354" y="182" width="108.5" height="83" as="geometry" />
        </mxCell>
        <mxCell id="vcufhArVfd2CTRCupKjw-83" value="" style="shape=image;verticalLabelPosition=bottom;labelBackgroundColor=default;verticalAlign=top;aspect=fixed;imageAspect=0;image=data:image/png,iVBORw0KGgoAAAANSUhEUgAAAMgAAADICAMAAACahl6sAAABRFBMVEX////cJEyyv+h1ib4kOGz/M2SUnrcyNWjZ4PS2stthMWC/i7P1Ll3hJFDnJ1TtKlj4+fzf4/Dw8viSosvZJk54hruElsXl6fN8j8GZp8/TLFXJNmDNMlx6hLmAf7Jjd6yGeKq+yeuyvdvI0OWMcaPFOWTCPGiPbqCDe69BVYmDjqydq9Gptte/yOGClMS/QGzQL1i0SnerU4EwRHimteCXaJmiXYydYpJMYJRYbKE1SX3Dg6y4qNE7NWhINGW3J1Kjq8FBUn/75upreJuuUH65RXI8UIWmWYfcOl95RnHLXoeOLFnFd59xMF/SSHKiKlZ9LlzAmMKxKFORLFnwPmylKlXoUHzJaJG7ncbPUnvHcJleMmL0OWjgVoOFPGq4v9D30trkVnX1vspZaJDyq7vumKrrhZvocYvP1N9MXIblYX1hb5UEN/r/AAAHwElEQVR4nO2d61vTSBTG2yG1Flss2AqUS11RQUXlInIR8MrKIqigi/dddde9/v/fN2mhySQzkzNnMpmZffp+J5zf43lP3syJpFDQrpHxmyP6f4t21S8P+LpcN12HqmZuD3R0e8Z0JUoavjDQ04Vh09WgNTI/QMlRq9RvDcQ1dstBq8xcTHD4uuiaVUYvsDA6Vhk1XZuE4uagNe9Mf90aE3EEVjFdIUhnmeaIWeWs6SpTNTqejhFo3G6rdPMITDanlpkUc9CyNrUMA8xBy8rUMnJTFiOQdamlflmqqyKyyyqnYR0ji1ILP4/AZElqEecRmOYtsEpaHoHJeGqB5BGYjKYWVXPQMpZa6hmYg5aZUZyNOWiN5T+K5fMITBfzTS24PAJTjqlFJqwjNJaXVVTyCEy5BPzhTEcuT9oDfhZ5BCatqaWuY+TypDG1sA8P9UlTask2j8CkIeAr5JG5O3fm0D+c9bEk3hxTTxvFYuPpFPbnM7WKQh5ZbRU7aq2iL5FZaoEeHjJ0ZaLY08QV9GUySS0KeWR6p0hpZxp9KfXUgs8jzaVGMabGUhN7NcXUopBHVhbiGIEWVtAXVEgtCnnk0lUWRqCrl9AXRaYWxjITqulFHkagRbRVUMtUfB5pPmuJOPxR/AxtFeljSYU8sjIpxgg0qWAVmdSiYo5r6RiBruWRWhTzCEz6Uwv+8LB5L8UctFRSS3rAV8kjAHPQUkgtKceSCnlkbie98KR2NFllBjusppYwGIHQqWXtjMgf5C7KIavMPALTAsoq7WVPDELIXemZdYWbR2C6Km2V9o+elwpCiFx/ifMITJKpZc3zQCAy/dV8Br5ziNSQSC3ryx4UxEcBPoZA8ghM0NTSPsEAghAyDrAKNI/AdA0Q8NvXPU8SJN0q04uZdFWo9NSy5nkIELFVJPMITK17IqusL3s4ENEons3MHLQmuaO4veF5aBDfKsyLzt3RgxGIk1que3HJgbCsMpU8H8lSjaWkVdYSGPIgCausajAHrXhqiZkDC0JbJXp4qE/R1NLJI9mAhP0VPzzUp15qYXUVHoSQoL8yyiMwdVMLu6tUQPzUwj481KeFlTYfAw9CKvliBCoLOPIHmZxF3z1tAumkDmyesQjkdPjgHr+sAYkevfMP6K0HiS9D5KeeFSCMp1fp+5ANIOyFoWQyMA/CPwyVymqmQcTH0xLp2SwI63mCEnz5YBQE8uIJ9AnTIMjkbDpGIFhqMQYiPgWhBEothkAacke4gNRiBgRyUkgrNbWYANlFbZxXdq0DOYfaEK3/ZB8IYkPU3vAGLQSBneCHagaHh3aCSC27usc8toKAl12nxzzWgsCWqeHJusUg6VZpRk7WrQZJsQp1Bmo5iMAqsTNQ20F4e+HE2sl+EJZV2sm1kwsgCauwFgRugFBWWWdW4whIaBXegsAZkK5VeNszp0B8q3C3Z46BEEE1fZA+SB+kD9IH6YP0QfogfZA+SB/EHMh9HMiBdSCNvYo8SPm5eFFtZvXW2pcFOUjbh5ra6i4cyoBsP0i9oLk9+4tNKMjWS8DlDL4wwLQKo4pXoLc4DILUagyrJGoYBL5XY/JdlFqtthu3SqwCgDnsAKkNxaxC/f7yayiGeZDa0NAeDwRmDvMgJxxD5z9FrBL+8kG59zNN/4sEIOfPvzmMg2wfSWHYAlKtHleiIOXX0v/XwYbWCkCq1b0QJDWP2AxSKlX3uyAfUe/529JaPkip5FvF2/oZg2EZSKl0LHHnsAukRoOUsByaQEjlPZjDbhBC3qW/D+4GCCH304aoKyCk8lZ4W3OktTrafPE/ASHkUHB3cwqEkH2uVRwDIZU9AYjt9xFa75hWccsjJzrHeh/cRRBCPiRHsZsgSas42VodxVKLuyDx1OIwCJ1aXAbxU0sY8N27j9A6TS2yHtG06CmM/oBGORnFUiCtA007RKV/lO4DpARI43lZ1zI0UH0GjXI4IdNaR1uetq1uVyP4/tpvQUEWPnaq0QpSKAyjUSp7IJDGq5NqNIMU6nirbL5IB3ndq1A3iJJVzu2KQR5sh9XoB1EaxW8FIK3BaDV5gPhWQZNUPnNAeubIFUTFKodvWCAvt2LV5ASiNoo/xUGi5sgbRMkq76tRkNYBo5ocQVRSy+ZxDyTII6ZBlEbxpy7IUdwcRkCUrPKhWipOfuRVkzeISmohn3/hV5M/iIpVBNWYAMFbxTYQtFXsA0FaxUYQVGqxEgTTX5aCyKcWa0FkR7HFIHKj2GYQKavYDSJhFdtBwFaxHwRoFQdAYFZxAgRy1uIISHpqcQUk+C6cAZCHGkBSRrGgGvSfbnv0qxaOgnAUc6vZeFj48hUDsnxG44e2+VbhlXOj84HDb/y/DMgDeaL50+e8Ucyu5rfeJyd/56GwQf7+Sy9GILZVWNVQPV7/zt7uskD0mYMWq7+S1SR6/PEfLJQkiFZz0GKkFlCPP/4TAPIk+49RC5SwStwcnB5PDrAYSB7moBU7awH3+LevAhB/VucvehRHy7kh7nF6gEVBbmgeuTxFrSLT49QAC0H+zdUctMJRLNfj9XCAnYLkNXJ5GqZA4D3eG2BdkOWHuY1cnk6sIt/jX/4JQUyZg1ZnFAc9LvsJ7M4sLvNndf7yrYLrcX+AlU2bg9ZZ7LPcd4k88h/I6J5xlManeQAAAABJRU5ErkJggg==;" vertex="1" parent="vcufhArVfd2CTRCupKjw-86">
          <mxGeometry x="340" y="169" width="40" height="40" as="geometry" />
        </mxCell>
        <mxCell id="vcufhArVfd2CTRCupKjw-85" value="&lt;div&gt;&lt;div&gt;&lt;b&gt;AWS EC2: g3&lt;/b&gt;&lt;b style=&quot;background-color: transparent; color: light-dark(rgb(0, 0, 0), rgb(255, 255, 255));&quot;&gt;.xmiddle (2vCPU, 1vGPU, 2vGiB)&lt;/b&gt;&lt;/div&gt;&lt;div&gt;&lt;b&gt;&lt;br&gt;&lt;/b&gt;&lt;/div&gt;&lt;div&gt;&lt;b&gt;&lt;br&gt;&lt;/b&gt;&lt;/div&gt;&lt;div&gt;&lt;br&gt;&lt;/div&gt;&lt;div&gt;&lt;br&gt;&lt;/div&gt;&lt;/div&gt;" style="rounded=0;whiteSpace=wrap;html=1;" vertex="1" parent="vcufhArVfd2CTRCupKjw-86">
          <mxGeometry x="56" y="44" width="466.02197802197804" height="99.75" as="geometry" />
        </mxCell>
        <mxCell id="vcufhArVfd2CTRCupKjw-75" value="" style="shape=image;verticalLabelPosition=bottom;labelBackgroundColor=default;verticalAlign=top;aspect=fixed;imageAspect=0;image=https://a.b.cdn.console.awsstatic.com/a/v1/RHSMMGZKYJXPPNI2IOC6Z63HJEW4FD5ZYMKJSXD7HQ5IPUTQR2TQ/icon/d88319dfa5d204f019b4284149886c59-7d586ea82f792b61a8c87de60565133d.svg;" vertex="1" parent="vcufhArVfd2CTRCupKjw-86">
          <mxGeometry x="39" y="22" width="38" height="38" as="geometry" />
        </mxCell>
        <mxCell id="vcufhArVfd2CTRCupKjw-94" style="edgeStyle=orthogonalEdgeStyle;rounded=0;orthogonalLoop=1;jettySize=auto;html=1;" edge="1" parent="vcufhArVfd2CTRCupKjw-86" source="vcufhArVfd2CTRCupKjw-92" target="vcufhArVfd2CTRCupKjw-82">
          <mxGeometry relative="1" as="geometry" />
        </mxCell>
        <mxCell id="vcufhArVfd2CTRCupKjw-92" value="2 Infer Embedding&lt;div&gt;(open-clip) GPU&lt;/div&gt;" style="rounded=1;whiteSpace=wrap;html=1;" vertex="1" parent="vcufhArVfd2CTRCupKjw-86">
          <mxGeometry x="326" y="79" width="165" height="46.44" as="geometry" />
        </mxCell>
        <mxCell id="vcufhArVfd2CTRCupKjw-90" value="1. Store image (x720p)&lt;div&gt;&amp;lt;user-uuid&amp;gt;/img/&amp;lt;dt&amp;gt;.png&lt;/div&gt;" style="rounded=1;whiteSpace=wrap;html=1;" vertex="1" parent="vcufhArVfd2CTRCupKjw-86">
          <mxGeometry x="99" y="79" width="166" height="46.44" as="geometry" />
        </mxCell>
        <mxCell id="vcufhArVfd2CTRCupKjw-91" style="edgeStyle=orthogonalEdgeStyle;rounded=0;orthogonalLoop=1;jettySize=auto;html=1;" edge="1" parent="vcufhArVfd2CTRCupKjw-86" source="vcufhArVfd2CTRCupKjw-90" target="vcufhArVfd2CTRCupKjw-77">
          <mxGeometry relative="1" as="geometry" />
        </mxCell>
        <mxCell id="vcufhArVfd2CTRCupKjw-93" style="edgeStyle=orthogonalEdgeStyle;rounded=0;orthogonalLoop=1;jettySize=auto;html=1;entryX=0;entryY=0.5;entryDx=0;entryDy=0;" edge="1" parent="vcufhArVfd2CTRCupKjw-86" source="vcufhArVfd2CTRCupKjw-90" target="vcufhArVfd2CTRCupKjw-92">
          <mxGeometry relative="1" as="geometry" />
        </mxCell>
        <mxCell id="vcufhArVfd2CTRCupKjw-95" value="&lt;div&gt;&lt;span style=&quot;font-size: 11px;&quot;&gt;.png&lt;/span&gt;&lt;/div&gt;&lt;div&gt;&lt;span style=&quot;font-size: 11px;&quot;&gt;720p&lt;/span&gt;&lt;/div&gt;" style="text;html=1;align=left;verticalAlign=middle;whiteSpace=wrap;rounded=0;" vertex="1" parent="vcufhArVfd2CTRCupKjw-86">
          <mxGeometry x="186" y="150" width="36" height="17" as="geometry" />
        </mxCell>
        <mxCell id="vcufhArVfd2CTRCupKjw-96" value="&lt;span style=&quot;font-size: 11px;&quot;&gt;· Instance timeout: 360s (5min)&amp;nbsp; &amp;nbsp; &amp;nbsp; &amp;nbsp; &amp;nbsp; &amp;nbsp; &amp;nbsp; &amp;nbsp; &amp;nbsp; &amp;nbsp; &amp;nbsp;· Instance batch size: 1 image&lt;/span&gt;" style="text;html=1;align=left;verticalAlign=middle;whiteSpace=wrap;rounded=0;" vertex="1" parent="vcufhArVfd2CTRCupKjw-86">
          <mxGeometry x="98" y="27" width="410" height="17" as="geometry" />
        </mxCell>
        <mxCell id="vcufhArVfd2CTRCupKjw-255" value="&lt;div&gt;&lt;span style=&quot;font-size: 11px;&quot;&gt;vecs&lt;/span&gt;&lt;/div&gt;&lt;div&gt;&lt;span style=&quot;font-size: 11px;&quot;&gt;512DIM&lt;/span&gt;&lt;/div&gt;" style="text;html=1;align=left;verticalAlign=middle;whiteSpace=wrap;rounded=0;" vertex="1" parent="vcufhArVfd2CTRCupKjw-86">
          <mxGeometry x="414" y="150" width="36" height="17" as="geometry" />
        </mxCell>
        <mxCell id="vcufhArVfd2CTRCupKjw-89" value="Upload Image (Sync)" style="text;html=1;align=center;verticalAlign=middle;whiteSpace=wrap;rounded=0;" vertex="1" parent="vcufhArVfd2CTRCupKjw-202">
          <mxGeometry x="110" y="49" width="135" height="30" as="geometry" />
        </mxCell>
        <mxCell id="vcufhArVfd2CTRCupKjw-97" value="" style="shape=image;verticalLabelPosition=bottom;labelBackgroundColor=default;verticalAlign=top;aspect=fixed;imageAspect=0;image=https://a.b.cdn.console.awsstatic.com/a/v1/KBJLRZENOPQL6KRM2T7ESBBGZPJ2UAW432YBKYUHK6YV6GJNV3PQ/icon/dca66d38fd916317687e1390a420c3fc-bcaecc0c3e268821d570a17049e38cc4.svg;" vertex="1" parent="vcufhArVfd2CTRCupKjw-202">
          <mxGeometry x="249" y="-39" width="41" height="41" as="geometry" />
        </mxCell>
        <mxCell id="vcufhArVfd2CTRCupKjw-114" value="Upload Video (Sync)" style="text;html=1;align=center;verticalAlign=middle;whiteSpace=wrap;rounded=0;" vertex="1" parent="vcufhArVfd2CTRCupKjw-202">
          <mxGeometry x="110" y="390" width="135" height="30" as="geometry" />
        </mxCell>
        <mxCell id="vcufhArVfd2CTRCupKjw-195" value="payload" style="text;html=1;align=center;verticalAlign=middle;whiteSpace=wrap;rounded=0;fontSize=11;" vertex="1" parent="vcufhArVfd2CTRCupKjw-202">
          <mxGeometry x="135" y="500" width="83" height="30" as="geometry" />
        </mxCell>
        <mxCell id="vcufhArVfd2CTRCupKjw-196" value="payload" style="text;html=1;align=center;verticalAlign=middle;whiteSpace=wrap;rounded=0;fontSize=11;" vertex="1" parent="vcufhArVfd2CTRCupKjw-202">
          <mxGeometry x="134" y="160" width="83" height="30" as="geometry" />
        </mxCell>
        <mxCell id="vcufhArVfd2CTRCupKjw-200" value="/image" style="text;html=1;align=center;verticalAlign=middle;whiteSpace=wrap;rounded=0;fontStyle=1" vertex="1" parent="vcufhArVfd2CTRCupKjw-202">
          <mxGeometry y="103" width="62" height="30" as="geometry" />
        </mxCell>
        <mxCell id="vcufhArVfd2CTRCupKjw-201" value="/video" style="text;html=1;align=center;verticalAlign=middle;whiteSpace=wrap;rounded=0;fontStyle=1" vertex="1" parent="vcufhArVfd2CTRCupKjw-202">
          <mxGeometry y="438" width="62" height="30" as="geometry" />
        </mxCell>
        <mxCell id="vcufhArVfd2CTRCupKjw-203" value="" style="group" connectable="0" vertex="1" parent="vcufhArVfd2CTRCupKjw-430">
          <mxGeometry x="1932" y="76" width="738" height="309" as="geometry" />
        </mxCell>
        <mxCell id="vcufhArVfd2CTRCupKjw-72" value="&lt;div&gt;&amp;nbsp; [&lt;div&gt;&amp;nbsp; &amp;nbsp; &amp;nbsp; {&lt;/div&gt;&lt;div&gt;&amp;nbsp; &amp;nbsp; &amp;nbsp; &amp;nbsp; &amp;nbsp; platform: &#39;instagram&#39;,&lt;/div&gt;&lt;div&gt;&amp;nbsp; &amp;nbsp; &amp;nbsp; &amp;nbsp; &amp;nbsp; code: &amp;lt;video-code&amp;gt;&lt;/div&gt;&lt;div&gt;&amp;nbsp; &amp;nbsp; &amp;nbsp; },&lt;br&gt;&amp;nbsp; &amp;nbsp; &amp;nbsp; ...&lt;/div&gt;&lt;div&gt;&amp;nbsp; ]&lt;/div&gt;&lt;/div&gt;" style="text;html=1;align=left;verticalAlign=middle;whiteSpace=wrap;rounded=0;fillColor=#f5f5f5;fontColor=#333333;strokeColor=#666666;glass=0;shadow=1;" vertex="1" parent="vcufhArVfd2CTRCupKjw-203">
          <mxGeometry y="127" width="156" height="114" as="geometry" />
        </mxCell>
        <mxCell id="vcufhArVfd2CTRCupKjw-49" value="" style="group" connectable="0" vertex="1" parent="vcufhArVfd2CTRCupKjw-203">
          <mxGeometry x="195" y="43" width="543" height="266" as="geometry" />
        </mxCell>
        <mxCell id="vcufhArVfd2CTRCupKjw-23" value="" style="group" connectable="0" vertex="1" parent="vcufhArVfd2CTRCupKjw-49">
          <mxGeometry width="543" height="266" as="geometry" />
        </mxCell>
        <mxCell id="vcufhArVfd2CTRCupKjw-50" value="" style="rounded=0;whiteSpace=wrap;html=1;fillColor=#ffe6cc;strokeColor=#d79b00;" vertex="1" parent="vcufhArVfd2CTRCupKjw-23">
          <mxGeometry x="-24" y="-23" width="543" height="289" as="geometry" />
        </mxCell>
        <mxCell id="vcufhArVfd2CTRCupKjw-24" value="&lt;div&gt;AWS EC2 with GPU&lt;/div&gt;&lt;div&gt;CropperExtractor&lt;/div&gt;" style="rounded=0;whiteSpace=wrap;html=1;" vertex="1" parent="vcufhArVfd2CTRCupKjw-23">
          <mxGeometry x="12.263736263736265" y="19.95" width="466.02197802197804" height="99.75" as="geometry" />
        </mxCell>
        <mxCell id="vcufhArVfd2CTRCupKjw-25" value="&lt;div&gt;AWS EC2 with GPU&lt;/div&gt;&lt;div&gt;CropperExtractor&lt;/div&gt;" style="rounded=0;whiteSpace=wrap;html=1;" vertex="1" parent="vcufhArVfd2CTRCupKjw-23">
          <mxGeometry x="20.43956043956044" y="26.6" width="466.02197802197804" height="99.75" as="geometry" />
        </mxCell>
        <mxCell id="vcufhArVfd2CTRCupKjw-26" value="&lt;div&gt;&lt;b&gt;AWS EC2: ExtractionGPU:&amp;nbsp;&lt;/b&gt;&lt;b style=&quot;background-color: transparent; color: light-dark(rgb(0, 0, 0), rgb(255, 255, 255));&quot;&gt;g5.xlarge (4vCPU, 1vGPU, 16vGiB)&lt;/b&gt;&lt;/div&gt;&lt;div&gt;&lt;b&gt;&lt;br&gt;&lt;/b&gt;&lt;/div&gt;&lt;div&gt;&lt;b&gt;&lt;br&gt;&lt;/b&gt;&lt;/div&gt;&lt;div&gt;&lt;br&gt;&lt;/div&gt;&lt;div&gt;&lt;br&gt;&lt;/div&gt;" style="rounded=0;whiteSpace=wrap;html=1;" vertex="1" parent="vcufhArVfd2CTRCupKjw-23">
          <mxGeometry x="28.978021978021978" y="33.25" width="466.02197802197804" height="99.75" as="geometry" />
        </mxCell>
        <mxCell id="vcufhArVfd2CTRCupKjw-27" value="" style="shape=image;verticalLabelPosition=bottom;labelBackgroundColor=default;verticalAlign=top;aspect=fixed;imageAspect=0;image=https://cdn.freebiesupply.com/logos/large/2x/aws-ec2-logo-svg-vector.svg;" vertex="1" parent="vcufhArVfd2CTRCupKjw-23">
          <mxGeometry x="4" y="4" width="36.33" height="44" as="geometry" />
        </mxCell>
        <mxCell id="vcufhArVfd2CTRCupKjw-28" style="edgeStyle=orthogonalEdgeStyle;rounded=0;orthogonalLoop=1;jettySize=auto;html=1;" edge="1" parent="vcufhArVfd2CTRCupKjw-23" source="vcufhArVfd2CTRCupKjw-29" target="vcufhArVfd2CTRCupKjw-31">
          <mxGeometry relative="1" as="geometry" />
        </mxCell>
        <mxCell id="vcufhArVfd2CTRCupKjw-29" value="1. VideoCropping&lt;div&gt;(opencv-cuda) GPU&lt;/div&gt;" style="rounded=1;whiteSpace=wrap;html=1;" vertex="1" parent="vcufhArVfd2CTRCupKjw-23">
          <mxGeometry x="44" y="73.22" width="130" height="46.44" as="geometry" />
        </mxCell>
        <mxCell id="vcufhArVfd2CTRCupKjw-30" style="edgeStyle=orthogonalEdgeStyle;rounded=0;orthogonalLoop=1;jettySize=auto;html=1;" edge="1" parent="vcufhArVfd2CTRCupKjw-23" source="vcufhArVfd2CTRCupKjw-31" target="vcufhArVfd2CTRCupKjw-32">
          <mxGeometry relative="1" as="geometry" />
        </mxCell>
        <mxCell id="vcufhArVfd2CTRCupKjw-31" value="2. SceneFraming&lt;div&gt;(ffmpeg-cuda) GPU&lt;/div&gt;" style="rounded=1;whiteSpace=wrap;html=1;" vertex="1" parent="vcufhArVfd2CTRCupKjw-23">
          <mxGeometry x="207" y="73.22" width="133" height="46.44" as="geometry" />
        </mxCell>
        <mxCell id="vcufhArVfd2CTRCupKjw-32" value="3. Embbedings&lt;div&gt;(open-clip) GPU&lt;/div&gt;" style="rounded=1;whiteSpace=wrap;html=1;" vertex="1" parent="vcufhArVfd2CTRCupKjw-23">
          <mxGeometry x="370" y="73.22222222222223" width="112" height="46.44444444444444" as="geometry" />
        </mxCell>
        <mxCell id="vcufhArVfd2CTRCupKjw-33" value="&lt;span style=&quot;font-size: 11px;&quot;&gt;· Instance timeout: 10,800s (3h)&amp;nbsp; &amp;nbsp; &amp;nbsp; &amp;nbsp; &amp;nbsp; &amp;nbsp; &amp;nbsp; &amp;nbsp;· Instance batch size: 1,000 videos&lt;/span&gt;" style="text;html=1;align=left;verticalAlign=middle;whiteSpace=wrap;rounded=0;" vertex="1" parent="vcufhArVfd2CTRCupKjw-23">
          <mxGeometry x="69" y="1" width="410" height="17" as="geometry" />
        </mxCell>
        <mxCell id="vcufhArVfd2CTRCupKjw-34" value="&lt;span style=&quot;font-size: 11px;&quot;&gt;.mp4&lt;/span&gt;" style="text;html=1;align=left;verticalAlign=middle;whiteSpace=wrap;rounded=0;" vertex="1" parent="vcufhArVfd2CTRCupKjw-23">
          <mxGeometry x="175" y="74" width="36" height="17" as="geometry" />
        </mxCell>
        <mxCell id="vcufhArVfd2CTRCupKjw-35" value="&lt;span style=&quot;font-size: 11px;&quot;&gt;.png&lt;/span&gt;" style="text;html=1;align=left;verticalAlign=middle;whiteSpace=wrap;rounded=0;" vertex="1" parent="vcufhArVfd2CTRCupKjw-23">
          <mxGeometry x="340" y="75" width="36" height="17" as="geometry" />
        </mxCell>
        <mxCell id="vcufhArVfd2CTRCupKjw-51" value="Extraction Job Pipeline" style="text;html=1;align=center;verticalAlign=middle;whiteSpace=wrap;rounded=0;fontStyle=1;fontSize=14;" vertex="1" parent="vcufhArVfd2CTRCupKjw-23">
          <mxGeometry x="173" y="-23" width="167" height="30" as="geometry" />
        </mxCell>
        <mxCell id="vcufhArVfd2CTRCupKjw-36" value="&lt;div&gt;&lt;span style=&quot;font-size: 11px;&quot;&gt;.png&lt;/span&gt;&lt;/div&gt;&lt;div&gt;&lt;span style=&quot;font-size: 11px;&quot;&gt;720p&lt;/span&gt;&lt;/div&gt;" style="text;html=1;align=left;verticalAlign=middle;whiteSpace=wrap;rounded=0;" vertex="1" parent="vcufhArVfd2CTRCupKjw-49">
          <mxGeometry x="277" y="139" width="36" height="17" as="geometry" />
        </mxCell>
        <mxCell id="vcufhArVfd2CTRCupKjw-37" value="&lt;div&gt;&lt;span style=&quot;font-size: 11px;&quot;&gt;.mp4&lt;/span&gt;&lt;/div&gt;&lt;div&gt;&lt;span style=&quot;font-size: 11px;&quot;&gt;720p&lt;/span&gt;&lt;/div&gt;" style="text;html=1;align=left;verticalAlign=middle;whiteSpace=wrap;rounded=0;" vertex="1" parent="vcufhArVfd2CTRCupKjw-49">
          <mxGeometry x="115" y="140" width="36" height="17" as="geometry" />
        </mxCell>
        <mxCell id="vcufhArVfd2CTRCupKjw-38" value="&lt;div&gt;&lt;span style=&quot;background-color: transparent; color: light-dark(rgb(0, 0, 0), rgb(255, 255, 255));&quot;&gt;&lt;b&gt;Qdrant&lt;/b&gt;&lt;/span&gt;&lt;/div&gt;&lt;div&gt;watched_frames&lt;/div&gt;" style="shape=cylinder3;whiteSpace=wrap;html=1;boundedLbl=1;backgroundOutline=1;size=15;" vertex="1" parent="vcufhArVfd2CTRCupKjw-49">
          <mxGeometry x="371" y="169" width="108.5" height="83" as="geometry" />
        </mxCell>
        <mxCell id="vcufhArVfd2CTRCupKjw-43" style="edgeStyle=orthogonalEdgeStyle;rounded=0;orthogonalLoop=1;jettySize=auto;html=1;" edge="1" parent="vcufhArVfd2CTRCupKjw-49" source="vcufhArVfd2CTRCupKjw-39" target="vcufhArVfd2CTRCupKjw-29">
          <mxGeometry relative="1" as="geometry" />
        </mxCell>
        <mxCell id="vcufhArVfd2CTRCupKjw-39" value="&lt;div&gt;&lt;b&gt;AWS S3&lt;/b&gt;&lt;/div&gt;oriane-contents" style="shape=cylinder3;whiteSpace=wrap;html=1;boundedLbl=1;backgroundOutline=1;size=15;" vertex="1" parent="vcufhArVfd2CTRCupKjw-49">
          <mxGeometry x="55.5" y="167" width="108.5" height="83" as="geometry" />
        </mxCell>
        <mxCell id="vcufhArVfd2CTRCupKjw-40" value="" style="shape=image;verticalLabelPosition=bottom;labelBackgroundColor=default;verticalAlign=top;aspect=fixed;imageAspect=0;image=https://cdn.worldvectorlogo.com/logos/amazon-s3-simple-storage-service.svg;" vertex="1" parent="vcufhArVfd2CTRCupKjw-49">
          <mxGeometry x="43" y="160" width="35" height="35" as="geometry" />
        </mxCell>
        <mxCell id="vcufhArVfd2CTRCupKjw-41" value="&lt;div&gt;&lt;b&gt;AWS S3&lt;/b&gt;&lt;/div&gt;oriane-frames" style="shape=cylinder3;whiteSpace=wrap;html=1;boundedLbl=1;backgroundOutline=1;size=15;" vertex="1" parent="vcufhArVfd2CTRCupKjw-49">
          <mxGeometry x="218.5" y="169" width="108.5" height="83" as="geometry" />
        </mxCell>
        <mxCell id="vcufhArVfd2CTRCupKjw-42" value="&lt;div&gt;&lt;span style=&quot;font-size: 11px;&quot;&gt;vecs&lt;/span&gt;&lt;/div&gt;&lt;div&gt;&lt;span style=&quot;font-size: 11px;&quot;&gt;512DIM&lt;/span&gt;&lt;/div&gt;" style="text;html=1;align=left;verticalAlign=middle;whiteSpace=wrap;rounded=0;" vertex="1" parent="vcufhArVfd2CTRCupKjw-49">
          <mxGeometry x="431" y="139" width="36" height="17" as="geometry" />
        </mxCell>
        <mxCell id="vcufhArVfd2CTRCupKjw-45" value="" style="edgeStyle=orthogonalEdgeStyle;rounded=0;orthogonalLoop=1;jettySize=auto;html=1;" edge="1" parent="vcufhArVfd2CTRCupKjw-49" source="vcufhArVfd2CTRCupKjw-31" target="vcufhArVfd2CTRCupKjw-41">
          <mxGeometry relative="1" as="geometry" />
        </mxCell>
        <mxCell id="vcufhArVfd2CTRCupKjw-46" value="" style="shape=image;verticalLabelPosition=bottom;labelBackgroundColor=default;verticalAlign=top;aspect=fixed;imageAspect=0;image=https://cdn.worldvectorlogo.com/logos/amazon-s3-simple-storage-service.svg;" vertex="1" parent="vcufhArVfd2CTRCupKjw-49">
          <mxGeometry x="204" y="160" width="35" height="35" as="geometry" />
        </mxCell>
        <mxCell id="vcufhArVfd2CTRCupKjw-47" value="" style="shape=image;verticalLabelPosition=bottom;labelBackgroundColor=default;verticalAlign=top;aspect=fixed;imageAspect=0;image=data:image/png,iVBORw0KGgoAAAANSUhEUgAAAMgAAADICAMAAACahl6sAAABRFBMVEX////cJEyyv+h1ib4kOGz/M2SUnrcyNWjZ4PS2stthMWC/i7P1Ll3hJFDnJ1TtKlj4+fzf4/Dw8viSosvZJk54hruElsXl6fN8j8GZp8/TLFXJNmDNMlx6hLmAf7Jjd6yGeKq+yeuyvdvI0OWMcaPFOWTCPGiPbqCDe69BVYmDjqydq9Gptte/yOGClMS/QGzQL1i0SnerU4EwRHimteCXaJmiXYydYpJMYJRYbKE1SX3Dg6y4qNE7NWhINGW3J1Kjq8FBUn/75upreJuuUH65RXI8UIWmWYfcOl95RnHLXoeOLFnFd59xMF/SSHKiKlZ9LlzAmMKxKFORLFnwPmylKlXoUHzJaJG7ncbPUnvHcJleMmL0OWjgVoOFPGq4v9D30trkVnX1vspZaJDyq7vumKrrhZvocYvP1N9MXIblYX1hb5UEN/r/AAAHwElEQVR4nO2d61vTSBTG2yG1Flss2AqUS11RQUXlInIR8MrKIqigi/dddde9/v/fN2mhySQzkzNnMpmZffp+J5zf43lP3syJpFDQrpHxmyP6f4t21S8P+LpcN12HqmZuD3R0e8Z0JUoavjDQ04Vh09WgNTI/QMlRq9RvDcQ1dstBq8xcTHD4uuiaVUYvsDA6Vhk1XZuE4uagNe9Mf90aE3EEVjFdIUhnmeaIWeWs6SpTNTqejhFo3G6rdPMITDanlpkUc9CyNrUMA8xBy8rUMnJTFiOQdamlflmqqyKyyyqnYR0ji1ILP4/AZElqEecRmOYtsEpaHoHJeGqB5BGYjKYWVXPQMpZa6hmYg5aZUZyNOWiN5T+K5fMITBfzTS24PAJTjqlFJqwjNJaXVVTyCEy5BPzhTEcuT9oDfhZ5BCatqaWuY+TypDG1sA8P9UlTask2j8CkIeAr5JG5O3fm0D+c9bEk3hxTTxvFYuPpFPbnM7WKQh5ZbRU7aq2iL5FZaoEeHjJ0ZaLY08QV9GUySS0KeWR6p0hpZxp9KfXUgs8jzaVGMabGUhN7NcXUopBHVhbiGIEWVtAXVEgtCnnk0lUWRqCrl9AXRaYWxjITqulFHkagRbRVUMtUfB5pPmuJOPxR/AxtFeljSYU8sjIpxgg0qWAVmdSiYo5r6RiBruWRWhTzCEz6Uwv+8LB5L8UctFRSS3rAV8kjAHPQUkgtKceSCnlkbie98KR2NFllBjusppYwGIHQqWXtjMgf5C7KIavMPALTAsoq7WVPDELIXemZdYWbR2C6Km2V9o+elwpCiFx/ifMITJKpZc3zQCAy/dV8Br5ziNSQSC3ryx4UxEcBPoZA8ghM0NTSPsEAghAyDrAKNI/AdA0Q8NvXPU8SJN0q04uZdFWo9NSy5nkIELFVJPMITK17IqusL3s4ENEons3MHLQmuaO4veF5aBDfKsyLzt3RgxGIk1que3HJgbCsMpU8H8lSjaWkVdYSGPIgCausajAHrXhqiZkDC0JbJXp4qE/R1NLJI9mAhP0VPzzUp15qYXUVHoSQoL8yyiMwdVMLu6tUQPzUwj481KeFlTYfAw9CKvliBCoLOPIHmZxF3z1tAumkDmyesQjkdPjgHr+sAYkevfMP6K0HiS9D5KeeFSCMp1fp+5ANIOyFoWQyMA/CPwyVymqmQcTH0xLp2SwI63mCEnz5YBQE8uIJ9AnTIMjkbDpGIFhqMQYiPgWhBEothkAacke4gNRiBgRyUkgrNbWYANlFbZxXdq0DOYfaEK3/ZB8IYkPU3vAGLQSBneCHagaHh3aCSC27usc8toKAl12nxzzWgsCWqeHJusUg6VZpRk7WrQZJsQp1Bmo5iMAqsTNQ20F4e+HE2sl+EJZV2sm1kwsgCauwFgRugFBWWWdW4whIaBXegsAZkK5VeNszp0B8q3C3Z46BEEE1fZA+SB+kD9IH6YP0QfogfZA+SB/EHMh9HMiBdSCNvYo8SPm5eFFtZvXW2pcFOUjbh5ra6i4cyoBsP0i9oLk9+4tNKMjWS8DlDL4wwLQKo4pXoLc4DILUagyrJGoYBL5XY/JdlFqtthu3SqwCgDnsAKkNxaxC/f7yayiGeZDa0NAeDwRmDvMgJxxD5z9FrBL+8kG59zNN/4sEIOfPvzmMg2wfSWHYAlKtHleiIOXX0v/XwYbWCkCq1b0QJDWP2AxSKlX3uyAfUe/529JaPkip5FvF2/oZg2EZSKl0LHHnsAukRoOUsByaQEjlPZjDbhBC3qW/D+4GCCH304aoKyCk8lZ4W3OktTrafPE/ASHkUHB3cwqEkH2uVRwDIZU9AYjt9xFa75hWccsjJzrHeh/cRRBCPiRHsZsgSas42VodxVKLuyDx1OIwCJ1aXAbxU0sY8N27j9A6TS2yHtG06CmM/oBGORnFUiCtA007RKV/lO4DpARI43lZ1zI0UH0GjXI4IdNaR1uetq1uVyP4/tpvQUEWPnaq0QpSKAyjUSp7IJDGq5NqNIMU6nirbL5IB3ndq1A3iJJVzu2KQR5sh9XoB1EaxW8FIK3BaDV5gPhWQZNUPnNAeubIFUTFKodvWCAvt2LV5ASiNoo/xUGi5sgbRMkq76tRkNYBo5ocQVRSy+ZxDyTII6ZBlEbxpy7IUdwcRkCUrPKhWipOfuRVkzeISmohn3/hV5M/iIpVBNWYAMFbxTYQtFXsA0FaxUYQVGqxEgTTX5aCyKcWa0FkR7HFIHKj2GYQKavYDSJhFdtBwFaxHwRoFQdAYFZxAgRy1uIISHpqcQUk+C6cAZCHGkBSRrGgGvSfbnv0qxaOgnAUc6vZeFj48hUDsnxG44e2+VbhlXOj84HDb/y/DMgDeaL50+e8Ucyu5rfeJyd/56GwQf7+Sy9GILZVWNVQPV7/zt7uskD0mYMWq7+S1SR6/PEfLJQkiFZz0GKkFlCPP/4TAPIk+49RC5SwStwcnB5PDrAYSB7moBU7awH3+LevAhB/VucvehRHy7kh7nF6gEVBbmgeuTxFrSLT49QAC0H+zdUctMJRLNfj9XCAnYLkNXJ5GqZA4D3eG2BdkOWHuY1cnk6sIt/jX/4JQUyZg1ZnFAc9LvsJ7M4sLvNndf7yrYLrcX+AlU2bg9ZZ7LPcd4k88h/I6J5xlManeQAAAABJRU5ErkJggg==;" vertex="1" parent="vcufhArVfd2CTRCupKjw-49">
          <mxGeometry x="357" y="156" width="40" height="40" as="geometry" />
        </mxCell>
        <mxCell id="vcufhArVfd2CTRCupKjw-48" style="edgeStyle=orthogonalEdgeStyle;rounded=0;orthogonalLoop=1;jettySize=auto;html=1;entryX=0.5;entryY=0;entryDx=0;entryDy=0;entryPerimeter=0;" edge="1" parent="vcufhArVfd2CTRCupKjw-49" source="vcufhArVfd2CTRCupKjw-32" target="vcufhArVfd2CTRCupKjw-38">
          <mxGeometry relative="1" as="geometry" />
        </mxCell>
        <mxCell id="vcufhArVfd2CTRCupKjw-74" value="" style="shape=image;verticalLabelPosition=bottom;labelBackgroundColor=default;verticalAlign=top;aspect=fixed;imageAspect=0;image=https://a.b.cdn.console.awsstatic.com/a/v1/KBJLRZENOPQL6KRM2T7ESBBGZPJ2UAW432YBKYUHK6YV6GJNV3PQ/icon/dca66d38fd916317687e1390a420c3fc-bcaecc0c3e268821d570a17049e38cc4.svg;" vertex="1" parent="vcufhArVfd2CTRCupKjw-203">
          <mxGeometry x="150" width="41" height="41" as="geometry" />
        </mxCell>
        <mxCell id="vcufhArVfd2CTRCupKjw-81" value="Job Extraction (Async)" style="text;html=1;align=center;verticalAlign=middle;whiteSpace=wrap;rounded=0;" vertex="1" parent="vcufhArVfd2CTRCupKjw-203">
          <mxGeometry x="11" y="97" width="135" height="30" as="geometry" />
        </mxCell>
        <mxCell id="vcufhArVfd2CTRCupKjw-197" value="payload" style="text;html=1;align=center;verticalAlign=middle;whiteSpace=wrap;rounded=0;fontSize=11;" vertex="1" parent="vcufhArVfd2CTRCupKjw-203">
          <mxGeometry x="38" y="241" width="83" height="30" as="geometry" />
        </mxCell>
        <mxCell id="vcufhArVfd2CTRCupKjw-205" value="" style="group" connectable="0" vertex="1" parent="vcufhArVfd2CTRCupKjw-430">
          <mxGeometry x="1636" y="650" width="124.5" height="90" as="geometry" />
        </mxCell>
        <mxCell id="vcufhArVfd2CTRCupKjw-206" value="&lt;div&gt;&lt;b&gt;Postgres DB&lt;/b&gt;&lt;/div&gt;oriane-admin" style="shape=cylinder3;whiteSpace=wrap;html=1;boundedLbl=1;backgroundOutline=1;size=15;" vertex="1" parent="vcufhArVfd2CTRCupKjw-205">
          <mxGeometry x="16" y="7" width="108.5" height="83" as="geometry" />
        </mxCell>
        <mxCell id="vcufhArVfd2CTRCupKjw-207" value="" style="shape=image;verticalLabelPosition=bottom;labelBackgroundColor=default;verticalAlign=top;aspect=fixed;imageAspect=0;image=https://images.seeklogo.com/logo-png/43/1/aws-aurora-logo-png_seeklogo-430929.png;" vertex="1" parent="vcufhArVfd2CTRCupKjw-205">
          <mxGeometry width="38" height="38" as="geometry" />
        </mxCell>
        <mxCell id="vcufhArVfd2CTRCupKjw-427" value="" style="shape=image;verticalLabelPosition=bottom;labelBackgroundColor=default;verticalAlign=top;aspect=fixed;imageAspect=0;image=https://a.b.cdn.console.awsstatic.com/a/v1/RHSMMGZKYJXPPNI2IOC6Z63HJEW4FD5ZYMKJSXD7HQ5IPUTQR2TQ/icon/d88319dfa5d204f019b4284149886c59-7d586ea82f792b61a8c87de60565133d.svg;" vertex="1" parent="vcufhArVfd2CTRCupKjw-205">
          <mxGeometry x="50" y="-16" width="38" height="38" as="geometry" />
        </mxCell>
        <mxCell id="vcufhArVfd2CTRCupKjw-211" style="edgeStyle=orthogonalEdgeStyle;rounded=0;orthogonalLoop=1;jettySize=auto;html=1;" edge="1" parent="vcufhArVfd2CTRCupKjw-430" source="vcufhArVfd2CTRCupKjw-166" target="vcufhArVfd2CTRCupKjw-209">
          <mxGeometry relative="1" as="geometry" />
        </mxCell>
        <mxCell id="vcufhArVfd2CTRCupKjw-212" style="edgeStyle=orthogonalEdgeStyle;rounded=0;orthogonalLoop=1;jettySize=auto;html=1;" edge="1" parent="vcufhArVfd2CTRCupKjw-430" source="vcufhArVfd2CTRCupKjw-168" target="vcufhArVfd2CTRCupKjw-206">
          <mxGeometry relative="1" as="geometry" />
        </mxCell>
        <mxCell id="vcufhArVfd2CTRCupKjw-213" style="edgeStyle=orthogonalEdgeStyle;rounded=0;orthogonalLoop=1;jettySize=auto;html=1;" edge="1" parent="vcufhArVfd2CTRCupKjw-430" source="vcufhArVfd2CTRCupKjw-166" target="vcufhArVfd2CTRCupKjw-168">
          <mxGeometry relative="1" as="geometry" />
        </mxCell>
        <mxCell id="vcufhArVfd2CTRCupKjw-214" value="" style="whiteSpace=wrap;html=1;aspect=fixed;" vertex="1" parent="vcufhArVfd2CTRCupKjw-430">
          <mxGeometry x="1433" y="595" width="47" height="47" as="geometry" />
        </mxCell>
        <mxCell id="vcufhArVfd2CTRCupKjw-173" value="" style="shape=image;verticalLabelPosition=bottom;labelBackgroundColor=default;verticalAlign=top;aspect=fixed;imageAspect=0;image=https://a.b.cdn.console.awsstatic.com/a/v1/3CSLX2VAEWMTW5EKPITLKWHNVUQ2XCH7D3UJGK2KAYLSIK72BMAQ/icon/7c8353710f9831898e50921c0879977a-393ba9c98bdcec2ebfd74a7cbac07d88.svg;" vertex="1" parent="vcufhArVfd2CTRCupKjw-430">
          <mxGeometry x="1437" y="599" width="40" height="40" as="geometry" />
        </mxCell>
        <mxCell id="vcufhArVfd2CTRCupKjw-219" value="&lt;div&gt;&amp;nbsp; {&lt;/div&gt;&lt;div&gt;&amp;nbsp; &amp;nbsp; &amp;nbsp; user_id: &amp;lt;user-uuid&amp;gt;,&lt;/div&gt;&lt;div&gt;&amp;nbsp; &amp;nbsp; &amp;nbsp; image_id: &amp;lt;image-uuid&amp;gt;,&lt;/div&gt;&lt;div&gt;&amp;nbsp; &amp;nbsp; &amp;nbsp; image_path: &amp;lt;s3-bucket-path&amp;gt;.png&lt;/div&gt;&lt;div&gt;&amp;nbsp; }&lt;/div&gt;" style="text;html=1;align=left;verticalAlign=middle;whiteSpace=wrap;rounded=0;fillColor=#f5f5f5;fontColor=#333333;strokeColor=#666666;glass=0;shadow=1;" vertex="1" parent="vcufhArVfd2CTRCupKjw-430">
          <mxGeometry x="2697" y="560" width="232" height="91" as="geometry" />
        </mxCell>
        <mxCell id="vcufhArVfd2CTRCupKjw-222" value="200 response" style="text;html=1;align=center;verticalAlign=middle;whiteSpace=wrap;rounded=0;fontSize=11;" vertex="1" parent="vcufhArVfd2CTRCupKjw-430">
          <mxGeometry x="2773" y="650" width="83" height="30" as="geometry" />
        </mxCell>
        <mxCell id="vcufhArVfd2CTRCupKjw-223" value="&lt;div&gt;&amp;nbsp; {&lt;/div&gt;&lt;div&gt;&amp;nbsp; &amp;nbsp; &amp;nbsp; user_id: &amp;lt;user-uuid&amp;gt;,&lt;/div&gt;&lt;div&gt;&amp;nbsp; &amp;nbsp; &amp;nbsp; video_id: &amp;lt;video-uuid&amp;gt;,&lt;/div&gt;&lt;div&gt;&amp;nbsp; &amp;nbsp; &amp;nbsp; video_path: &amp;lt;s3-bucket-path&amp;gt;.mp4,&lt;br&gt;&amp;nbsp; &amp;nbsp; &amp;nbsp; video_frames: [&lt;br&gt;&amp;nbsp; &amp;nbsp; &amp;nbsp; &amp;nbsp; &amp;nbsp; {&lt;/div&gt;&lt;div&gt;&amp;nbsp; &amp;nbsp; &amp;nbsp; &amp;nbsp; &amp;nbsp; &amp;nbsp; &amp;nbsp; &amp;nbsp;frame_number: 1,&lt;br&gt;&amp;nbsp; &amp;nbsp; &amp;nbsp; &amp;nbsp; &amp;nbsp; &amp;nbsp; &amp;nbsp; &amp;nbsp;frame_second: 2.22,&lt;/div&gt;&lt;div&gt;&amp;nbsp; &amp;nbsp; &amp;nbsp; &amp;nbsp; &amp;nbsp; &amp;nbsp; &amp;nbsp; &amp;nbsp;frame_path: &amp;lt;s3-bucket-path&amp;gt;.png&lt;br&gt;&amp;nbsp; &amp;nbsp; &amp;nbsp; &amp;nbsp; &amp;nbsp; &amp;nbsp;}&lt;/div&gt;&lt;div&gt;&amp;nbsp; &amp;nbsp; &amp;nbsp; &amp;nbsp; &amp;nbsp; &amp;nbsp;...&lt;br&gt;&amp;nbsp; &amp;nbsp; &amp;nbsp; &amp;nbsp;]&lt;/div&gt;&lt;div&gt;&amp;nbsp; }&lt;/div&gt;" style="text;html=1;align=left;verticalAlign=middle;whiteSpace=wrap;rounded=0;fillColor=#f5f5f5;fontColor=#333333;strokeColor=#666666;glass=0;shadow=1;" vertex="1" parent="vcufhArVfd2CTRCupKjw-430">
          <mxGeometry x="2920" y="862" width="263" height="203" as="geometry" />
        </mxCell>
        <mxCell id="vcufhArVfd2CTRCupKjw-224" value="200 response" style="text;html=1;align=center;verticalAlign=middle;whiteSpace=wrap;rounded=0;fontSize=11;" vertex="1" parent="vcufhArVfd2CTRCupKjw-430">
          <mxGeometry x="3013" y="1065" width="83" height="30" as="geometry" />
        </mxCell>
        <mxCell id="vcufhArVfd2CTRCupKjw-226" value="" style="group" connectable="0" vertex="1" parent="vcufhArVfd2CTRCupKjw-430">
          <mxGeometry x="2738" y="274" width="124.5" height="90" as="geometry" />
        </mxCell>
        <mxCell id="vcufhArVfd2CTRCupKjw-227" value="&lt;div&gt;&lt;b&gt;Postgres DB&lt;/b&gt;&lt;/div&gt;oriane-admin" style="shape=cylinder3;whiteSpace=wrap;html=1;boundedLbl=1;backgroundOutline=1;size=15;" vertex="1" parent="vcufhArVfd2CTRCupKjw-226">
          <mxGeometry x="16" y="7" width="108.5" height="83" as="geometry" />
        </mxCell>
        <mxCell id="vcufhArVfd2CTRCupKjw-228" value="" style="shape=image;verticalLabelPosition=bottom;labelBackgroundColor=default;verticalAlign=top;aspect=fixed;imageAspect=0;image=https://images.seeklogo.com/logo-png/43/1/aws-aurora-logo-png_seeklogo-430929.png;" vertex="1" parent="vcufhArVfd2CTRCupKjw-226">
          <mxGeometry width="38" height="38" as="geometry" />
        </mxCell>
        <mxCell id="vcufhArVfd2CTRCupKjw-230" value="store full process logs" style="text;html=1;align=center;verticalAlign=middle;whiteSpace=wrap;rounded=0;fontSize=11;" vertex="1" parent="vcufhArVfd2CTRCupKjw-430">
          <mxGeometry x="2662" y="217" width="129" height="30" as="geometry" />
        </mxCell>
        <mxCell id="vcufhArVfd2CTRCupKjw-233" style="rounded=0;orthogonalLoop=1;jettySize=auto;html=1;entryX=0;entryY=0.5;entryDx=0;entryDy=0;" edge="1" parent="vcufhArVfd2CTRCupKjw-430" target="vcufhArVfd2CTRCupKjw-234">
          <mxGeometry relative="1" as="geometry">
            <mxPoint x="2803" y="215.64274802725186" as="sourcePoint" />
            <mxPoint x="2969.9220219780227" y="214.76000000000022" as="targetPoint" />
          </mxGeometry>
        </mxCell>
        <mxCell id="vcufhArVfd2CTRCupKjw-234" value="&lt;div&gt;&amp;nbsp; {&lt;/div&gt;&lt;div&gt;&amp;nbsp; &amp;nbsp; &amp;nbsp; job_id: &amp;lt;job-uuid&amp;gt;,&lt;/div&gt;&lt;div&gt;&amp;nbsp; &amp;nbsp; &amp;nbsp; extraction_id: &amp;lt;process-uuid-to-verify-state&amp;gt;,&lt;/div&gt;&lt;div&gt;&amp;nbsp; &amp;nbsp; &amp;nbsp; queued: &amp;lt;num-of-videos-queued&amp;gt;,&lt;/div&gt;&lt;div&gt;&amp;nbsp; &amp;nbsp; &amp;nbsp; failed: &amp;lt;num-of-videos-failed-to-queue&amp;gt;&lt;/div&gt;&lt;div&gt;&amp;nbsp; }&lt;/div&gt;" style="text;html=1;align=left;verticalAlign=middle;whiteSpace=wrap;rounded=0;fillColor=#f5f5f5;fontColor=#333333;strokeColor=#666666;glass=0;shadow=1;" vertex="1" parent="vcufhArVfd2CTRCupKjw-430">
          <mxGeometry x="2880" y="163" width="293.02" height="107" as="geometry" />
        </mxCell>
        <mxCell id="vcufhArVfd2CTRCupKjw-235" value="200 response" style="text;html=1;align=center;verticalAlign=middle;whiteSpace=wrap;rounded=0;fontSize=11;" vertex="1" parent="vcufhArVfd2CTRCupKjw-430">
          <mxGeometry x="2986" y="271" width="83" height="30" as="geometry" />
        </mxCell>
        <mxCell id="vcufhArVfd2CTRCupKjw-256" value="search/" style="text;html=1;align=center;verticalAlign=middle;whiteSpace=wrap;rounded=0;fontStyle=1" vertex="1" parent="vcufhArVfd2CTRCupKjw-430">
          <mxGeometry x="1192" y="507" width="135" height="30" as="geometry" />
        </mxCell>
        <mxCell id="vcufhArVfd2CTRCupKjw-257" value="Search Image (Sync)" style="text;html=1;align=center;verticalAlign=middle;whiteSpace=wrap;rounded=0;" vertex="1" parent="vcufhArVfd2CTRCupKjw-430">
          <mxGeometry x="908" y="462" width="135" height="30" as="geometry" />
        </mxCell>
        <mxCell id="vcufhArVfd2CTRCupKjw-258" value="&lt;div&gt;&amp;nbsp; {&lt;/div&gt;&lt;div&gt;&lt;span style=&quot;background-color: transparent; color: light-dark(rgb(51, 51, 51), rgb(193, 193, 193));&quot;&gt;&amp;nbsp; &amp;nbsp; &amp;nbsp; image_id: &amp;lt;image-uuid&amp;gt;,&lt;br&gt;&amp;nbsp; &amp;nbsp; &amp;nbsp; limit: 10&lt;/span&gt;&lt;/div&gt;&lt;div&gt;&amp;nbsp; }&lt;/div&gt;" style="text;html=1;align=left;verticalAlign=middle;whiteSpace=wrap;rounded=0;fillColor=#f5f5f5;fontColor=#333333;strokeColor=#666666;glass=0;shadow=1;" vertex="1" parent="vcufhArVfd2CTRCupKjw-430">
          <mxGeometry x="893" y="494" width="175" height="80" as="geometry" />
        </mxCell>
        <mxCell id="vcufhArVfd2CTRCupKjw-259" value="payload" style="text;html=1;align=center;verticalAlign=middle;whiteSpace=wrap;rounded=0;fontSize=11;" vertex="1" parent="vcufhArVfd2CTRCupKjw-430">
          <mxGeometry x="936" y="573" width="83" height="30" as="geometry" />
        </mxCell>
        <mxCell id="vcufhArVfd2CTRCupKjw-319" value="" style="group" connectable="0" vertex="1" parent="vcufhArVfd2CTRCupKjw-430">
          <mxGeometry x="76" width="793" height="308" as="geometry" />
        </mxCell>
        <mxCell id="vcufhArVfd2CTRCupKjw-320" value="" style="group;fillColor=#dae8fc;strokeColor=#6c8ebf;container=0;" connectable="0" vertex="1" parent="vcufhArVfd2CTRCupKjw-319">
          <mxGeometry x="270" y="17" width="523" height="291" as="geometry" />
        </mxCell>
        <mxCell id="vcufhArVfd2CTRCupKjw-321" value="" style="shape=image;verticalLabelPosition=bottom;labelBackgroundColor=default;verticalAlign=top;aspect=fixed;imageAspect=0;image=https://a.b.cdn.console.awsstatic.com/a/v1/KBJLRZENOPQL6KRM2T7ESBBGZPJ2UAW432YBKYUHK6YV6GJNV3PQ/icon/dca66d38fd916317687e1390a420c3fc-bcaecc0c3e268821d570a17049e38cc4.svg;" vertex="1" parent="vcufhArVfd2CTRCupKjw-319">
          <mxGeometry x="252" width="41" height="41" as="geometry" />
        </mxCell>
        <mxCell id="vcufhArVfd2CTRCupKjw-324" value="Search Text Pipeline" style="text;html=1;align=center;verticalAlign=middle;whiteSpace=wrap;rounded=0;fontStyle=1;fontSize=14;" vertex="1" parent="vcufhArVfd2CTRCupKjw-319">
          <mxGeometry x="435" y="15" width="210" height="30" as="geometry" />
        </mxCell>
        <mxCell id="vcufhArVfd2CTRCupKjw-325" value="&lt;div&gt;&lt;span style=&quot;background-color: transparent; color: light-dark(rgb(0, 0, 0), rgb(255, 255, 255));&quot;&gt;&lt;b&gt;Qdrant&lt;/b&gt;&lt;/span&gt;&lt;/div&gt;&lt;div&gt;watched_frames&lt;/div&gt;" style="shape=cylinder3;whiteSpace=wrap;html=1;boundedLbl=1;backgroundOutline=1;size=15;" vertex="1" parent="vcufhArVfd2CTRCupKjw-319">
          <mxGeometry x="559.6252407932012" y="214" width="114.49362606232295" height="83" as="geometry" />
        </mxCell>
        <mxCell id="vcufhArVfd2CTRCupKjw-326" value="" style="shape=image;verticalLabelPosition=bottom;labelBackgroundColor=default;verticalAlign=top;aspect=fixed;imageAspect=0;image=data:image/png,iVBORw0KGgoAAAANSUhEUgAAAMgAAADICAMAAACahl6sAAABRFBMVEX////cJEyyv+h1ib4kOGz/M2SUnrcyNWjZ4PS2stthMWC/i7P1Ll3hJFDnJ1TtKlj4+fzf4/Dw8viSosvZJk54hruElsXl6fN8j8GZp8/TLFXJNmDNMlx6hLmAf7Jjd6yGeKq+yeuyvdvI0OWMcaPFOWTCPGiPbqCDe69BVYmDjqydq9Gptte/yOGClMS/QGzQL1i0SnerU4EwRHimteCXaJmiXYydYpJMYJRYbKE1SX3Dg6y4qNE7NWhINGW3J1Kjq8FBUn/75upreJuuUH65RXI8UIWmWYfcOl95RnHLXoeOLFnFd59xMF/SSHKiKlZ9LlzAmMKxKFORLFnwPmylKlXoUHzJaJG7ncbPUnvHcJleMmL0OWjgVoOFPGq4v9D30trkVnX1vspZaJDyq7vumKrrhZvocYvP1N9MXIblYX1hb5UEN/r/AAAHwElEQVR4nO2d61vTSBTG2yG1Flss2AqUS11RQUXlInIR8MrKIqigi/dddde9/v/fN2mhySQzkzNnMpmZffp+J5zf43lP3syJpFDQrpHxmyP6f4t21S8P+LpcN12HqmZuD3R0e8Z0JUoavjDQ04Vh09WgNTI/QMlRq9RvDcQ1dstBq8xcTHD4uuiaVUYvsDA6Vhk1XZuE4uagNe9Mf90aE3EEVjFdIUhnmeaIWeWs6SpTNTqejhFo3G6rdPMITDanlpkUc9CyNrUMA8xBy8rUMnJTFiOQdamlflmqqyKyyyqnYR0ji1ILP4/AZElqEecRmOYtsEpaHoHJeGqB5BGYjKYWVXPQMpZa6hmYg5aZUZyNOWiN5T+K5fMITBfzTS24PAJTjqlFJqwjNJaXVVTyCEy5BPzhTEcuT9oDfhZ5BCatqaWuY+TypDG1sA8P9UlTask2j8CkIeAr5JG5O3fm0D+c9bEk3hxTTxvFYuPpFPbnM7WKQh5ZbRU7aq2iL5FZaoEeHjJ0ZaLY08QV9GUySS0KeWR6p0hpZxp9KfXUgs8jzaVGMabGUhN7NcXUopBHVhbiGIEWVtAXVEgtCnnk0lUWRqCrl9AXRaYWxjITqulFHkagRbRVUMtUfB5pPmuJOPxR/AxtFeljSYU8sjIpxgg0qWAVmdSiYo5r6RiBruWRWhTzCEz6Uwv+8LB5L8UctFRSS3rAV8kjAHPQUkgtKceSCnlkbie98KR2NFllBjusppYwGIHQqWXtjMgf5C7KIavMPALTAsoq7WVPDELIXemZdYWbR2C6Km2V9o+elwpCiFx/ifMITJKpZc3zQCAy/dV8Br5ziNSQSC3ryx4UxEcBPoZA8ghM0NTSPsEAghAyDrAKNI/AdA0Q8NvXPU8SJN0q04uZdFWo9NSy5nkIELFVJPMITK17IqusL3s4ENEons3MHLQmuaO4veF5aBDfKsyLzt3RgxGIk1que3HJgbCsMpU8H8lSjaWkVdYSGPIgCausajAHrXhqiZkDC0JbJXp4qE/R1NLJI9mAhP0VPzzUp15qYXUVHoSQoL8yyiMwdVMLu6tUQPzUwj481KeFlTYfAw9CKvliBCoLOPIHmZxF3z1tAumkDmyesQjkdPjgHr+sAYkevfMP6K0HiS9D5KeeFSCMp1fp+5ANIOyFoWQyMA/CPwyVymqmQcTH0xLp2SwI63mCEnz5YBQE8uIJ9AnTIMjkbDpGIFhqMQYiPgWhBEothkAacke4gNRiBgRyUkgrNbWYANlFbZxXdq0DOYfaEK3/ZB8IYkPU3vAGLQSBneCHagaHh3aCSC27usc8toKAl12nxzzWgsCWqeHJusUg6VZpRk7WrQZJsQp1Bmo5iMAqsTNQ20F4e+HE2sl+EJZV2sm1kwsgCauwFgRugFBWWWdW4whIaBXegsAZkK5VeNszp0B8q3C3Z46BEEE1fZA+SB+kD9IH6YP0QfogfZA+SB/EHMh9HMiBdSCNvYo8SPm5eFFtZvXW2pcFOUjbh5ra6i4cyoBsP0i9oLk9+4tNKMjWS8DlDL4wwLQKo4pXoLc4DILUagyrJGoYBL5XY/JdlFqtthu3SqwCgDnsAKkNxaxC/f7yayiGeZDa0NAeDwRmDvMgJxxD5z9FrBL+8kG59zNN/4sEIOfPvzmMg2wfSWHYAlKtHleiIOXX0v/XwYbWCkCq1b0QJDWP2AxSKlX3uyAfUe/529JaPkip5FvF2/oZg2EZSKl0LHHnsAukRoOUsByaQEjlPZjDbhBC3qW/D+4GCCH304aoKyCk8lZ4W3OktTrafPE/ASHkUHB3cwqEkH2uVRwDIZU9AYjt9xFa75hWccsjJzrHeh/cRRBCPiRHsZsgSas42VodxVKLuyDx1OIwCJ1aXAbxU0sY8N27j9A6TS2yHtG06CmM/oBGORnFUiCtA007RKV/lO4DpARI43lZ1zI0UH0GjXI4IdNaR1uetq1uVyP4/tpvQUEWPnaq0QpSKAyjUSp7IJDGq5NqNIMU6nirbL5IB3ndq1A3iJJVzu2KQR5sh9XoB1EaxW8FIK3BaDV5gPhWQZNUPnNAeubIFUTFKodvWCAvt2LV5ASiNoo/xUGi5sgbRMkq76tRkNYBo5ocQVRSy+ZxDyTII6ZBlEbxpy7IUdwcRkCUrPKhWipOfuRVkzeISmohn3/hV5M/iIpVBNWYAMFbxTYQtFXsA0FaxUYQVGqxEgTTX5aCyKcWa0FkR7HFIHKj2GYQKavYDSJhFdtBwFaxHwRoFQdAYFZxAgRy1uIISHpqcQUk+C6cAZCHGkBSRrGgGvSfbnv0qxaOgnAUc6vZeFj48hUDsnxG44e2+VbhlXOj84HDb/y/DMgDeaL50+e8Ucyu5rfeJyd/56GwQf7+Sy9GILZVWNVQPV7/zt7uskD0mYMWq7+S1SR6/PEfLJQkiFZz0GKkFlCPP/4TAPIk+49RC5SwStwcnB5PDrAYSB7moBU7awH3+LevAhB/VucvehRHy7kh7nF6gEVBbmgeuTxFrSLT49QAC0H+zdUctMJRLNfj9XCAnYLkNXJ5GqZA4D3eG2BdkOWHuY1cnk6sIt/jX/4JQUyZg1ZnFAc9LvsJ7M4sLvNndf7yrYLrcX+AlU2bg9ZZ7LPcd4k88h/I6J5xlManeQAAAABJRU5ErkJggg==;" vertex="1" parent="vcufhArVfd2CTRCupKjw-319">
          <mxGeometry x="544.8518696883854" y="203" width="40" height="40" as="geometry" />
        </mxCell>
        <mxCell id="vcufhArVfd2CTRCupKjw-327" value="&lt;div&gt;&lt;div&gt;&lt;b&gt;AWS EC2: g3&lt;/b&gt;&lt;b style=&quot;background-color: transparent; color: light-dark(rgb(0, 0, 0), rgb(255, 255, 255));&quot;&gt;.xmiddle (2vCPU, 1vGPU, 2vGiB)&lt;/b&gt;&lt;/div&gt;&lt;div&gt;&lt;b&gt;&lt;br&gt;&lt;/b&gt;&lt;/div&gt;&lt;div&gt;&lt;b&gt;&lt;br&gt;&lt;/b&gt;&lt;/div&gt;&lt;div&gt;&lt;br&gt;&lt;/div&gt;&lt;div&gt;&lt;br&gt;&lt;/div&gt;&lt;/div&gt;" style="rounded=0;whiteSpace=wrap;html=1;" vertex="1" parent="vcufhArVfd2CTRCupKjw-319">
          <mxGeometry x="324.94" y="72" width="399.91" height="99.75" as="geometry" />
        </mxCell>
        <mxCell id="vcufhArVfd2CTRCupKjw-328" value="" style="shape=image;verticalLabelPosition=bottom;labelBackgroundColor=default;verticalAlign=top;aspect=fixed;imageAspect=0;image=https://a.b.cdn.console.awsstatic.com/a/v1/RHSMMGZKYJXPPNI2IOC6Z63HJEW4FD5ZYMKJSXD7HQ5IPUTQR2TQ/icon/d88319dfa5d204f019b4284149886c59-7d586ea82f792b61a8c87de60565133d.svg;" vertex="1" parent="vcufhArVfd2CTRCupKjw-319">
          <mxGeometry x="307.0043909348443" y="50" width="38" height="38" as="geometry" />
        </mxCell>
        <mxCell id="vcufhArVfd2CTRCupKjw-331" value="&lt;span style=&quot;font-size: 11px;&quot;&gt;· Instance timeout: 60s (1min)&amp;nbsp; &amp;nbsp; &amp;nbsp; &amp;nbsp; &amp;nbsp; &amp;nbsp; &amp;nbsp; &amp;nbsp; &amp;nbsp; &amp;nbsp; &amp;nbsp;· Instance batch size: 1 prompt&lt;/span&gt;" style="text;html=1;align=left;verticalAlign=middle;whiteSpace=wrap;rounded=0;" vertex="1" parent="vcufhArVfd2CTRCupKjw-319">
          <mxGeometry x="369.263597733711" y="55" width="432.6487252124646" height="17" as="geometry" />
        </mxCell>
        <mxCell id="vcufhArVfd2CTRCupKjw-333" value="" style="group" connectable="0" vertex="1" parent="vcufhArVfd2CTRCupKjw-319">
          <mxGeometry x="90.6458923512746" y="99" width="653.5421246458923" height="46.44444444444446" as="geometry" />
        </mxCell>
        <mxCell id="vcufhArVfd2CTRCupKjw-334" value="1. Infer Embeddings&lt;div&gt;(open-clip) GPU&lt;/div&gt;" style="rounded=1;whiteSpace=wrap;html=1;" vertex="1" parent="vcufhArVfd2CTRCupKjw-333">
          <mxGeometry x="258.35" y="12" width="161.17" height="46.44" as="geometry" />
        </mxCell>
        <mxCell id="vcufhArVfd2CTRCupKjw-335" value="2. Cosine Search" style="rounded=1;whiteSpace=wrap;html=1;" vertex="1" parent="vcufhArVfd2CTRCupKjw-333">
          <mxGeometry x="458.7" y="12" width="135.65" height="46.44" as="geometry" />
        </mxCell>
        <mxCell id="vcufhArVfd2CTRCupKjw-341" style="edgeStyle=orthogonalEdgeStyle;rounded=0;orthogonalLoop=1;jettySize=auto;html=1;" edge="1" parent="vcufhArVfd2CTRCupKjw-333" source="vcufhArVfd2CTRCupKjw-334" target="vcufhArVfd2CTRCupKjw-335">
          <mxGeometry relative="1" as="geometry" />
        </mxCell>
        <mxCell id="vcufhArVfd2CTRCupKjw-346" value="&lt;div&gt;&lt;span style=&quot;font-size: 11px;&quot;&gt;vecs&lt;/span&gt;&lt;/div&gt;&lt;div&gt;&lt;span style=&quot;font-size: 11px;&quot;&gt;512DIM&lt;/span&gt;&lt;/div&gt;" style="text;html=1;align=left;verticalAlign=middle;whiteSpace=wrap;rounded=0;" vertex="1" parent="vcufhArVfd2CTRCupKjw-319">
          <mxGeometry x="623.85" y="181" width="36" height="17" as="geometry" />
        </mxCell>
        <mxCell id="vcufhArVfd2CTRCupKjw-369" style="edgeStyle=orthogonalEdgeStyle;rounded=0;orthogonalLoop=1;jettySize=auto;html=1;entryX=0.5;entryY=0;entryDx=0;entryDy=0;entryPerimeter=0;" edge="1" parent="vcufhArVfd2CTRCupKjw-319" source="vcufhArVfd2CTRCupKjw-335" target="vcufhArVfd2CTRCupKjw-325">
          <mxGeometry relative="1" as="geometry" />
        </mxCell>
        <mxCell id="vcufhArVfd2CTRCupKjw-348" value="&lt;div&gt;&amp;nbsp; {&lt;/div&gt;&lt;div&gt;&lt;span style=&quot;background-color: transparent; color: light-dark(rgb(51, 51, 51), rgb(193, 193, 193));&quot;&gt;&amp;nbsp; &amp;nbsp; &amp;nbsp; prompt: &quot;dogs smoking&quot;,&lt;br&gt;&amp;nbsp; &amp;nbsp; &amp;nbsp; limit: 10&lt;/span&gt;&lt;/div&gt;&lt;div&gt;&amp;nbsp; }&lt;/div&gt;" style="text;html=1;align=left;verticalAlign=middle;whiteSpace=wrap;rounded=0;fillColor=#f5f5f5;fontColor=#333333;strokeColor=#666666;glass=0;shadow=1;" vertex="1" parent="vcufhArVfd2CTRCupKjw-430">
          <mxGeometry x="891" y="125" width="175" height="80" as="geometry" />
        </mxCell>
        <mxCell id="vcufhArVfd2CTRCupKjw-349" value="Search Text (Sync)" style="text;html=1;align=center;verticalAlign=middle;whiteSpace=wrap;rounded=0;" vertex="1" parent="vcufhArVfd2CTRCupKjw-430">
          <mxGeometry x="905" y="92" width="135" height="30" as="geometry" />
        </mxCell>
        <mxCell id="vcufhArVfd2CTRCupKjw-350" value="payload" style="text;html=1;align=center;verticalAlign=middle;whiteSpace=wrap;rounded=0;fontSize=11;" vertex="1" parent="vcufhArVfd2CTRCupKjw-430">
          <mxGeometry x="936" y="204" width="83" height="30" as="geometry" />
        </mxCell>
        <mxCell id="vcufhArVfd2CTRCupKjw-352" value="/image" style="text;html=1;align=center;verticalAlign=middle;whiteSpace=wrap;rounded=0;fontStyle=1" vertex="1" parent="vcufhArVfd2CTRCupKjw-430">
          <mxGeometry x="1063" y="507" width="135" height="30" as="geometry" />
        </mxCell>
        <mxCell id="vcufhArVfd2CTRCupKjw-353" value="/video" style="text;html=1;align=center;verticalAlign=middle;whiteSpace=wrap;rounded=0;fontStyle=1" vertex="1" parent="vcufhArVfd2CTRCupKjw-430">
          <mxGeometry x="1062" y="893" width="135" height="30" as="geometry" />
        </mxCell>
        <mxCell id="vcufhArVfd2CTRCupKjw-354" value="/text" style="text;html=1;align=center;verticalAlign=middle;whiteSpace=wrap;rounded=0;fontStyle=1" vertex="1" parent="vcufhArVfd2CTRCupKjw-430">
          <mxGeometry x="1055" y="152" width="135" height="30" as="geometry" />
        </mxCell>
        <mxCell id="vcufhArVfd2CTRCupKjw-355" value="Search Video (Sync)" style="text;html=1;align=center;verticalAlign=middle;whiteSpace=wrap;rounded=0;" vertex="1" parent="vcufhArVfd2CTRCupKjw-430">
          <mxGeometry x="909" y="837" width="135" height="30" as="geometry" />
        </mxCell>
        <mxCell id="vcufhArVfd2CTRCupKjw-356" value="&lt;div&gt;&amp;nbsp; {&lt;/div&gt;&lt;div&gt;&lt;span style=&quot;background-color: transparent; color: light-dark(rgb(51, 51, 51), rgb(193, 193, 193));&quot;&gt;&amp;nbsp; &amp;nbsp; &amp;nbsp; video_id: &amp;lt;video-uuid&amp;gt;,&lt;br&gt;&amp;nbsp; &amp;nbsp; &amp;nbsp; limit: 50&lt;/span&gt;&lt;/div&gt;&lt;div&gt;&amp;nbsp; }&lt;/div&gt;" style="text;html=1;align=left;verticalAlign=middle;whiteSpace=wrap;rounded=0;fillColor=#f5f5f5;fontColor=#333333;strokeColor=#666666;glass=0;shadow=1;" vertex="1" parent="vcufhArVfd2CTRCupKjw-430">
          <mxGeometry x="894" y="869" width="175" height="80" as="geometry" />
        </mxCell>
        <mxCell id="vcufhArVfd2CTRCupKjw-357" value="payload" style="text;html=1;align=center;verticalAlign=middle;whiteSpace=wrap;rounded=0;fontSize=11;" vertex="1" parent="vcufhArVfd2CTRCupKjw-430">
          <mxGeometry x="937" y="948" width="83" height="30" as="geometry" />
        </mxCell>
        <mxCell id="vcufhArVfd2CTRCupKjw-358" value="&lt;div&gt;&amp;nbsp; {&lt;/div&gt;&lt;div&gt;&amp;nbsp; &amp;nbsp; &amp;nbsp; prompt: &quot;dogs smoking&quot;,&lt;/div&gt;&lt;div&gt;&amp;nbsp; &amp;nbsp; &amp;nbsp; max_similiarity: 0.77&lt;/div&gt;&lt;div&gt;&amp;nbsp; &amp;nbsp; &amp;nbsp; avg_similarity: 0.52,&lt;/div&gt;&lt;div&gt;&amp;nbsp; &amp;nbsp; &amp;nbsp; std_similarity: 0.24,&lt;/div&gt;&lt;div&gt;&amp;nbsp; &amp;nbsp; &amp;nbsp; results: [&lt;br&gt;&amp;nbsp; &amp;nbsp; &amp;nbsp; &amp;nbsp; &amp;nbsp; {&lt;/div&gt;&lt;div&gt;&amp;nbsp; &amp;nbsp; &amp;nbsp; &amp;nbsp; &amp;nbsp; &amp;nbsp; &amp;nbsp; &amp;nbsp;id: &amp;lt;point-uuid&amp;gt;,&lt;/div&gt;&lt;div&gt;&amp;nbsp; &amp;nbsp; &amp;nbsp; &amp;nbsp; &amp;nbsp; &amp;nbsp; &amp;nbsp; &amp;nbsp;similarity: 0.77,&lt;br&gt;&amp;nbsp; &amp;nbsp; &amp;nbsp; &amp;nbsp; &amp;nbsp; &amp;nbsp; &amp;nbsp; &amp;nbsp;platform: &quot;instagram&quot;,&lt;/div&gt;&lt;div&gt;&amp;nbsp; &amp;nbsp; &amp;nbsp; &amp;nbsp; &amp;nbsp; &amp;nbsp; &amp;nbsp; &amp;nbsp;video_code: &amp;lt;video-code&amp;gt;,&lt;/div&gt;&lt;div&gt;&amp;nbsp; &amp;nbsp; &amp;nbsp; &amp;nbsp; &amp;nbsp; &amp;nbsp; &amp;nbsp; &amp;nbsp;frame_number: 4,&lt;br&gt;&amp;nbsp; &amp;nbsp; &amp;nbsp; &amp;nbsp; &amp;nbsp; &amp;nbsp; &amp;nbsp; &amp;nbsp;frame_second: 14.29,&lt;/div&gt;&lt;div&gt;&amp;nbsp; &amp;nbsp; &amp;nbsp; &amp;nbsp; &amp;nbsp; &amp;nbsp; &amp;nbsp; &amp;nbsp;frame_path: &amp;lt;s3-bucket-path&amp;gt;.png,&lt;/div&gt;&lt;div&gt;&amp;nbsp; &amp;nbsp; &amp;nbsp; &amp;nbsp; &amp;nbsp; &amp;nbsp; &amp;nbsp; &amp;nbsp;created_at: &amp;lt;timestamp&amp;gt;&lt;br&gt;&amp;nbsp; &amp;nbsp; &amp;nbsp; &amp;nbsp; &amp;nbsp; &amp;nbsp;}&lt;/div&gt;&lt;div&gt;&amp;nbsp; &amp;nbsp; &amp;nbsp; &amp;nbsp; &amp;nbsp; &amp;nbsp;...&lt;br&gt;&amp;nbsp; &amp;nbsp; &amp;nbsp; &amp;nbsp;]&lt;/div&gt;&lt;div&gt;&amp;nbsp; }&lt;/div&gt;" style="text;html=1;align=left;verticalAlign=middle;whiteSpace=wrap;rounded=0;fillColor=#f5f5f5;fontColor=#333333;strokeColor=#666666;glass=0;shadow=1;" vertex="1" parent="vcufhArVfd2CTRCupKjw-430">
          <mxGeometry y="26" width="263" height="290" as="geometry" />
        </mxCell>
        <mxCell id="vcufhArVfd2CTRCupKjw-359" value="200 response" style="text;html=1;align=center;verticalAlign=middle;whiteSpace=wrap;rounded=0;fontSize=11;" vertex="1" parent="vcufhArVfd2CTRCupKjw-430">
          <mxGeometry x="87" y="316" width="83" height="30" as="geometry" />
        </mxCell>
        <mxCell id="vcufhArVfd2CTRCupKjw-361" value="&lt;div&gt;&amp;nbsp; {&lt;/div&gt;&lt;div&gt;&amp;nbsp; &amp;nbsp; &amp;nbsp; image_id: &amp;lt;image-uuid&amp;gt;,&lt;/div&gt;&lt;div&gt;&amp;nbsp; &amp;nbsp; &amp;nbsp; max_similiarity: 0.77&lt;/div&gt;&lt;div&gt;&amp;nbsp; &amp;nbsp; &amp;nbsp; avg_similarity: 0.52,&lt;/div&gt;&lt;div&gt;&amp;nbsp; &amp;nbsp; &amp;nbsp; std_similarity: 0.24,&lt;/div&gt;&lt;div&gt;&amp;nbsp; &amp;nbsp; &amp;nbsp; results: [&lt;br&gt;&amp;nbsp; &amp;nbsp; &amp;nbsp; &amp;nbsp; &amp;nbsp; {&lt;/div&gt;&lt;div&gt;&amp;nbsp; &amp;nbsp; &amp;nbsp; &amp;nbsp; &amp;nbsp; &amp;nbsp; &amp;nbsp; &amp;nbsp;id: &amp;lt;point-uuid&amp;gt;,&lt;/div&gt;&lt;div&gt;&amp;nbsp; &amp;nbsp; &amp;nbsp; &amp;nbsp; &amp;nbsp; &amp;nbsp; &amp;nbsp; &amp;nbsp;similarity: 0.77,&lt;br&gt;&amp;nbsp; &amp;nbsp; &amp;nbsp; &amp;nbsp; &amp;nbsp; &amp;nbsp; &amp;nbsp; &amp;nbsp;platform: &quot;instagram&quot;,&lt;/div&gt;&lt;div&gt;&amp;nbsp; &amp;nbsp; &amp;nbsp; &amp;nbsp; &amp;nbsp; &amp;nbsp; &amp;nbsp; &amp;nbsp;video_code: &amp;lt;video-code&amp;gt;,&lt;/div&gt;&lt;div&gt;&amp;nbsp; &amp;nbsp; &amp;nbsp; &amp;nbsp; &amp;nbsp; &amp;nbsp; &amp;nbsp; &amp;nbsp;frame_number: 4,&lt;br&gt;&amp;nbsp; &amp;nbsp; &amp;nbsp; &amp;nbsp; &amp;nbsp; &amp;nbsp; &amp;nbsp; &amp;nbsp;frame_second: 14.29,&lt;/div&gt;&lt;div&gt;&amp;nbsp; &amp;nbsp; &amp;nbsp; &amp;nbsp; &amp;nbsp; &amp;nbsp; &amp;nbsp; &amp;nbsp;frame_path: &amp;lt;s3-bucket-path&amp;gt;.png,&lt;/div&gt;&lt;div&gt;&amp;nbsp; &amp;nbsp; &amp;nbsp; &amp;nbsp; &amp;nbsp; &amp;nbsp; &amp;nbsp; &amp;nbsp;created_at: &amp;lt;timestamp&amp;gt;&lt;br&gt;&amp;nbsp; &amp;nbsp; &amp;nbsp; &amp;nbsp; &amp;nbsp; &amp;nbsp;}&lt;/div&gt;&lt;div&gt;&amp;nbsp; &amp;nbsp; &amp;nbsp; &amp;nbsp; &amp;nbsp; &amp;nbsp;...&lt;br&gt;&amp;nbsp; &amp;nbsp; &amp;nbsp; &amp;nbsp;]&lt;/div&gt;&lt;div&gt;&amp;nbsp; }&lt;/div&gt;" style="text;html=1;align=left;verticalAlign=middle;whiteSpace=wrap;rounded=0;fillColor=#f5f5f5;fontColor=#333333;strokeColor=#666666;glass=0;shadow=1;" vertex="1" parent="vcufhArVfd2CTRCupKjw-430">
          <mxGeometry x="2" y="401" width="263" height="290" as="geometry" />
        </mxCell>
        <mxCell id="vcufhArVfd2CTRCupKjw-362" value="200 response" style="text;html=1;align=center;verticalAlign=middle;whiteSpace=wrap;rounded=0;fontSize=11;" vertex="1" parent="vcufhArVfd2CTRCupKjw-430">
          <mxGeometry x="89" y="691" width="83" height="30" as="geometry" />
        </mxCell>
        <mxCell id="vcufhArVfd2CTRCupKjw-363" value="&lt;div&gt;&amp;nbsp; {&lt;/div&gt;&lt;div&gt;&amp;nbsp; &amp;nbsp; &amp;nbsp; video_id: &amp;lt;video-uuid&amp;gt;,&lt;/div&gt;&lt;div&gt;&amp;nbsp; &amp;nbsp; &amp;nbsp; max_similiarity: 0.77&lt;/div&gt;&lt;div&gt;&amp;nbsp; &amp;nbsp; &amp;nbsp; avg_similarity: 0.52,&lt;/div&gt;&lt;div&gt;&amp;nbsp; &amp;nbsp; &amp;nbsp; std_similarity: 0.24,&lt;/div&gt;&lt;div&gt;&amp;nbsp; &amp;nbsp; &amp;nbsp; results: [&lt;br&gt;&amp;nbsp; &amp;nbsp; &amp;nbsp; &amp;nbsp; &amp;nbsp; {&lt;/div&gt;&lt;div&gt;&amp;nbsp; &amp;nbsp; &amp;nbsp; &amp;nbsp; &amp;nbsp; &amp;nbsp; &amp;nbsp; &amp;nbsp;id: &amp;lt;point-uuid&amp;gt;,&lt;/div&gt;&lt;div&gt;&amp;nbsp; &amp;nbsp; &amp;nbsp; &amp;nbsp; &amp;nbsp; &amp;nbsp; &amp;nbsp; &amp;nbsp;similarity: 0.77,&lt;br&gt;&amp;nbsp; &amp;nbsp; &amp;nbsp; &amp;nbsp; &amp;nbsp; &amp;nbsp; &amp;nbsp; &amp;nbsp;platform: &quot;instagram&quot;,&lt;/div&gt;&lt;div&gt;&amp;nbsp; &amp;nbsp; &amp;nbsp; &amp;nbsp; &amp;nbsp; &amp;nbsp; &amp;nbsp; &amp;nbsp;video_code: &amp;lt;video-code&amp;gt;,&lt;/div&gt;&lt;div&gt;&amp;nbsp; &amp;nbsp; &amp;nbsp; &amp;nbsp; &amp;nbsp; &amp;nbsp; &amp;nbsp; &amp;nbsp;frame_number: 4,&lt;br&gt;&amp;nbsp; &amp;nbsp; &amp;nbsp; &amp;nbsp; &amp;nbsp; &amp;nbsp; &amp;nbsp; &amp;nbsp;frame_second: 14.29,&lt;/div&gt;&lt;div&gt;&amp;nbsp; &amp;nbsp; &amp;nbsp; &amp;nbsp; &amp;nbsp; &amp;nbsp; &amp;nbsp; &amp;nbsp;frame_path: &amp;lt;s3-bucket-path&amp;gt;.png,&lt;/div&gt;&lt;div&gt;&amp;nbsp; &amp;nbsp; &amp;nbsp; &amp;nbsp; &amp;nbsp; &amp;nbsp; &amp;nbsp; &amp;nbsp;created_at: &amp;lt;timestamp&amp;gt;&lt;br&gt;&amp;nbsp; &amp;nbsp; &amp;nbsp; &amp;nbsp; &amp;nbsp; &amp;nbsp;}&lt;/div&gt;&lt;div&gt;&amp;nbsp; &amp;nbsp; &amp;nbsp; &amp;nbsp; &amp;nbsp; &amp;nbsp;...&lt;br&gt;&amp;nbsp; &amp;nbsp; &amp;nbsp; &amp;nbsp;]&lt;/div&gt;&lt;div&gt;&amp;nbsp; }&lt;/div&gt;" style="text;html=1;align=left;verticalAlign=middle;whiteSpace=wrap;rounded=0;fillColor=#f5f5f5;fontColor=#333333;strokeColor=#666666;glass=0;shadow=1;" vertex="1" parent="vcufhArVfd2CTRCupKjw-430">
          <mxGeometry x="3" y="778" width="263" height="290" as="geometry" />
        </mxCell>
        <mxCell id="vcufhArVfd2CTRCupKjw-364" value="200 response" style="text;html=1;align=center;verticalAlign=middle;whiteSpace=wrap;rounded=0;fontSize=11;" vertex="1" parent="vcufhArVfd2CTRCupKjw-430">
          <mxGeometry x="97" y="1067" width="83" height="30" as="geometry" />
        </mxCell>
        <mxCell id="vcufhArVfd2CTRCupKjw-372" value="" style="group" connectable="0" vertex="1" parent="vcufhArVfd2CTRCupKjw-430">
          <mxGeometry x="79" y="369" width="793" height="308" as="geometry" />
        </mxCell>
        <mxCell id="vcufhArVfd2CTRCupKjw-373" value="" style="group;fillColor=#dae8fc;strokeColor=#6c8ebf;container=0;" connectable="0" vertex="1" parent="vcufhArVfd2CTRCupKjw-372">
          <mxGeometry x="270" y="17" width="523" height="291" as="geometry" />
        </mxCell>
        <mxCell id="vcufhArVfd2CTRCupKjw-374" value="" style="shape=image;verticalLabelPosition=bottom;labelBackgroundColor=default;verticalAlign=top;aspect=fixed;imageAspect=0;image=https://a.b.cdn.console.awsstatic.com/a/v1/KBJLRZENOPQL6KRM2T7ESBBGZPJ2UAW432YBKYUHK6YV6GJNV3PQ/icon/dca66d38fd916317687e1390a420c3fc-bcaecc0c3e268821d570a17049e38cc4.svg;" vertex="1" parent="vcufhArVfd2CTRCupKjw-372">
          <mxGeometry x="252" width="41" height="41" as="geometry" />
        </mxCell>
        <mxCell id="vcufhArVfd2CTRCupKjw-375" value="Search Image Pipeline" style="text;html=1;align=center;verticalAlign=middle;whiteSpace=wrap;rounded=0;fontStyle=1;fontSize=14;" vertex="1" parent="vcufhArVfd2CTRCupKjw-372">
          <mxGeometry x="435" y="15" width="210" height="30" as="geometry" />
        </mxCell>
        <mxCell id="vcufhArVfd2CTRCupKjw-376" value="&lt;div&gt;&lt;span style=&quot;background-color: transparent; color: light-dark(rgb(0, 0, 0), rgb(255, 255, 255));&quot;&gt;&lt;b&gt;Qdrant&lt;/b&gt;&lt;/span&gt;&lt;/div&gt;&lt;div&gt;watched_frames&lt;/div&gt;" style="shape=cylinder3;whiteSpace=wrap;html=1;boundedLbl=1;backgroundOutline=1;size=15;" vertex="1" parent="vcufhArVfd2CTRCupKjw-372">
          <mxGeometry x="559.6252407932012" y="214" width="114.49362606232295" height="83" as="geometry" />
        </mxCell>
        <mxCell id="vcufhArVfd2CTRCupKjw-377" value="" style="shape=image;verticalLabelPosition=bottom;labelBackgroundColor=default;verticalAlign=top;aspect=fixed;imageAspect=0;image=data:image/png,iVBORw0KGgoAAAANSUhEUgAAAMgAAADICAMAAACahl6sAAABRFBMVEX////cJEyyv+h1ib4kOGz/M2SUnrcyNWjZ4PS2stthMWC/i7P1Ll3hJFDnJ1TtKlj4+fzf4/Dw8viSosvZJk54hruElsXl6fN8j8GZp8/TLFXJNmDNMlx6hLmAf7Jjd6yGeKq+yeuyvdvI0OWMcaPFOWTCPGiPbqCDe69BVYmDjqydq9Gptte/yOGClMS/QGzQL1i0SnerU4EwRHimteCXaJmiXYydYpJMYJRYbKE1SX3Dg6y4qNE7NWhINGW3J1Kjq8FBUn/75upreJuuUH65RXI8UIWmWYfcOl95RnHLXoeOLFnFd59xMF/SSHKiKlZ9LlzAmMKxKFORLFnwPmylKlXoUHzJaJG7ncbPUnvHcJleMmL0OWjgVoOFPGq4v9D30trkVnX1vspZaJDyq7vumKrrhZvocYvP1N9MXIblYX1hb5UEN/r/AAAHwElEQVR4nO2d61vTSBTG2yG1Flss2AqUS11RQUXlInIR8MrKIqigi/dddde9/v/fN2mhySQzkzNnMpmZffp+J5zf43lP3syJpFDQrpHxmyP6f4t21S8P+LpcN12HqmZuD3R0e8Z0JUoavjDQ04Vh09WgNTI/QMlRq9RvDcQ1dstBq8xcTHD4uuiaVUYvsDA6Vhk1XZuE4uagNe9Mf90aE3EEVjFdIUhnmeaIWeWs6SpTNTqejhFo3G6rdPMITDanlpkUc9CyNrUMA8xBy8rUMnJTFiOQdamlflmqqyKyyyqnYR0ji1ILP4/AZElqEecRmOYtsEpaHoHJeGqB5BGYjKYWVXPQMpZa6hmYg5aZUZyNOWiN5T+K5fMITBfzTS24PAJTjqlFJqwjNJaXVVTyCEy5BPzhTEcuT9oDfhZ5BCatqaWuY+TypDG1sA8P9UlTask2j8CkIeAr5JG5O3fm0D+c9bEk3hxTTxvFYuPpFPbnM7WKQh5ZbRU7aq2iL5FZaoEeHjJ0ZaLY08QV9GUySS0KeWR6p0hpZxp9KfXUgs8jzaVGMabGUhN7NcXUopBHVhbiGIEWVtAXVEgtCnnk0lUWRqCrl9AXRaYWxjITqulFHkagRbRVUMtUfB5pPmuJOPxR/AxtFeljSYU8sjIpxgg0qWAVmdSiYo5r6RiBruWRWhTzCEz6Uwv+8LB5L8UctFRSS3rAV8kjAHPQUkgtKceSCnlkbie98KR2NFllBjusppYwGIHQqWXtjMgf5C7KIavMPALTAsoq7WVPDELIXemZdYWbR2C6Km2V9o+elwpCiFx/ifMITJKpZc3zQCAy/dV8Br5ziNSQSC3ryx4UxEcBPoZA8ghM0NTSPsEAghAyDrAKNI/AdA0Q8NvXPU8SJN0q04uZdFWo9NSy5nkIELFVJPMITK17IqusL3s4ENEons3MHLQmuaO4veF5aBDfKsyLzt3RgxGIk1que3HJgbCsMpU8H8lSjaWkVdYSGPIgCausajAHrXhqiZkDC0JbJXp4qE/R1NLJI9mAhP0VPzzUp15qYXUVHoSQoL8yyiMwdVMLu6tUQPzUwj481KeFlTYfAw9CKvliBCoLOPIHmZxF3z1tAumkDmyesQjkdPjgHr+sAYkevfMP6K0HiS9D5KeeFSCMp1fp+5ANIOyFoWQyMA/CPwyVymqmQcTH0xLp2SwI63mCEnz5YBQE8uIJ9AnTIMjkbDpGIFhqMQYiPgWhBEothkAacke4gNRiBgRyUkgrNbWYANlFbZxXdq0DOYfaEK3/ZB8IYkPU3vAGLQSBneCHagaHh3aCSC27usc8toKAl12nxzzWgsCWqeHJusUg6VZpRk7WrQZJsQp1Bmo5iMAqsTNQ20F4e+HE2sl+EJZV2sm1kwsgCauwFgRugFBWWWdW4whIaBXegsAZkK5VeNszp0B8q3C3Z46BEEE1fZA+SB+kD9IH6YP0QfogfZA+SB/EHMh9HMiBdSCNvYo8SPm5eFFtZvXW2pcFOUjbh5ra6i4cyoBsP0i9oLk9+4tNKMjWS8DlDL4wwLQKo4pXoLc4DILUagyrJGoYBL5XY/JdlFqtthu3SqwCgDnsAKkNxaxC/f7yayiGeZDa0NAeDwRmDvMgJxxD5z9FrBL+8kG59zNN/4sEIOfPvzmMg2wfSWHYAlKtHleiIOXX0v/XwYbWCkCq1b0QJDWP2AxSKlX3uyAfUe/529JaPkip5FvF2/oZg2EZSKl0LHHnsAukRoOUsByaQEjlPZjDbhBC3qW/D+4GCCH304aoKyCk8lZ4W3OktTrafPE/ASHkUHB3cwqEkH2uVRwDIZU9AYjt9xFa75hWccsjJzrHeh/cRRBCPiRHsZsgSas42VodxVKLuyDx1OIwCJ1aXAbxU0sY8N27j9A6TS2yHtG06CmM/oBGORnFUiCtA007RKV/lO4DpARI43lZ1zI0UH0GjXI4IdNaR1uetq1uVyP4/tpvQUEWPnaq0QpSKAyjUSp7IJDGq5NqNIMU6nirbL5IB3ndq1A3iJJVzu2KQR5sh9XoB1EaxW8FIK3BaDV5gPhWQZNUPnNAeubIFUTFKodvWCAvt2LV5ASiNoo/xUGi5sgbRMkq76tRkNYBo5ocQVRSy+ZxDyTII6ZBlEbxpy7IUdwcRkCUrPKhWipOfuRVkzeISmohn3/hV5M/iIpVBNWYAMFbxTYQtFXsA0FaxUYQVGqxEgTTX5aCyKcWa0FkR7HFIHKj2GYQKavYDSJhFdtBwFaxHwRoFQdAYFZxAgRy1uIISHpqcQUk+C6cAZCHGkBSRrGgGvSfbnv0qxaOgnAUc6vZeFj48hUDsnxG44e2+VbhlXOj84HDb/y/DMgDeaL50+e8Ucyu5rfeJyd/56GwQf7+Sy9GILZVWNVQPV7/zt7uskD0mYMWq7+S1SR6/PEfLJQkiFZz0GKkFlCPP/4TAPIk+49RC5SwStwcnB5PDrAYSB7moBU7awH3+LevAhB/VucvehRHy7kh7nF6gEVBbmgeuTxFrSLT49QAC0H+zdUctMJRLNfj9XCAnYLkNXJ5GqZA4D3eG2BdkOWHuY1cnk6sIt/jX/4JQUyZg1ZnFAc9LvsJ7M4sLvNndf7yrYLrcX+AlU2bg9ZZ7LPcd4k88h/I6J5xlManeQAAAABJRU5ErkJggg==;" vertex="1" parent="vcufhArVfd2CTRCupKjw-372">
          <mxGeometry x="544.8518696883854" y="203" width="40" height="40" as="geometry" />
        </mxCell>
        <mxCell id="vcufhArVfd2CTRCupKjw-378" value="&lt;div&gt;&lt;div&gt;&lt;b&gt;AWS EC2: g3&lt;/b&gt;&lt;b style=&quot;background-color: transparent; color: light-dark(rgb(0, 0, 0), rgb(255, 255, 255));&quot;&gt;.xmiddle (2vCPU, 1vGPU, 2vGiB)&lt;/b&gt;&lt;/div&gt;&lt;div&gt;&lt;b&gt;&lt;br&gt;&lt;/b&gt;&lt;/div&gt;&lt;div&gt;&lt;b&gt;&lt;br&gt;&lt;/b&gt;&lt;/div&gt;&lt;div&gt;&lt;br&gt;&lt;/div&gt;&lt;div&gt;&lt;br&gt;&lt;/div&gt;&lt;/div&gt;" style="rounded=0;whiteSpace=wrap;html=1;" vertex="1" parent="vcufhArVfd2CTRCupKjw-372">
          <mxGeometry x="324.94" y="72" width="399.91" height="99.75" as="geometry" />
        </mxCell>
        <mxCell id="vcufhArVfd2CTRCupKjw-379" value="" style="shape=image;verticalLabelPosition=bottom;labelBackgroundColor=default;verticalAlign=top;aspect=fixed;imageAspect=0;image=https://a.b.cdn.console.awsstatic.com/a/v1/RHSMMGZKYJXPPNI2IOC6Z63HJEW4FD5ZYMKJSXD7HQ5IPUTQR2TQ/icon/d88319dfa5d204f019b4284149886c59-7d586ea82f792b61a8c87de60565133d.svg;" vertex="1" parent="vcufhArVfd2CTRCupKjw-372">
          <mxGeometry x="307.0043909348443" y="50" width="38" height="38" as="geometry" />
        </mxCell>
        <mxCell id="vcufhArVfd2CTRCupKjw-380" value="&lt;span style=&quot;font-size: 11px;&quot;&gt;· Instance timeout: 60s (1min)&amp;nbsp; &amp;nbsp; &amp;nbsp; &amp;nbsp; &amp;nbsp; &amp;nbsp; &amp;nbsp; &amp;nbsp; &amp;nbsp; &amp;nbsp; &amp;nbsp;· Instance batch size: 1 image&lt;/span&gt;" style="text;html=1;align=left;verticalAlign=middle;whiteSpace=wrap;rounded=0;" vertex="1" parent="vcufhArVfd2CTRCupKjw-372">
          <mxGeometry x="369.263597733711" y="55" width="432.6487252124646" height="17" as="geometry" />
        </mxCell>
        <mxCell id="vcufhArVfd2CTRCupKjw-381" value="" style="group" connectable="0" vertex="1" parent="vcufhArVfd2CTRCupKjw-372">
          <mxGeometry x="90.6458923512746" y="99" width="653.5421246458923" height="46.44444444444446" as="geometry" />
        </mxCell>
        <mxCell id="vcufhArVfd2CTRCupKjw-382" value="1. Fetch Embeddings" style="rounded=1;whiteSpace=wrap;html=1;" vertex="1" parent="vcufhArVfd2CTRCupKjw-381">
          <mxGeometry x="258.35" y="12" width="161.17" height="46.44" as="geometry" />
        </mxCell>
        <mxCell id="vcufhArVfd2CTRCupKjw-383" value="2. Cosine Search" style="rounded=1;whiteSpace=wrap;html=1;" vertex="1" parent="vcufhArVfd2CTRCupKjw-381">
          <mxGeometry x="458.7" y="12" width="135.65" height="46.44" as="geometry" />
        </mxCell>
        <mxCell id="vcufhArVfd2CTRCupKjw-384" style="edgeStyle=orthogonalEdgeStyle;rounded=0;orthogonalLoop=1;jettySize=auto;html=1;" edge="1" parent="vcufhArVfd2CTRCupKjw-381" source="vcufhArVfd2CTRCupKjw-382" target="vcufhArVfd2CTRCupKjw-383">
          <mxGeometry relative="1" as="geometry" />
        </mxCell>
        <mxCell id="vcufhArVfd2CTRCupKjw-385" value="&lt;div&gt;&lt;span style=&quot;font-size: 11px;&quot;&gt;vecs&lt;/span&gt;&lt;/div&gt;&lt;div&gt;&lt;span style=&quot;font-size: 11px;&quot;&gt;512DIM&lt;/span&gt;&lt;/div&gt;" style="text;html=1;align=left;verticalAlign=middle;whiteSpace=wrap;rounded=0;" vertex="1" parent="vcufhArVfd2CTRCupKjw-372">
          <mxGeometry x="623.85" y="181" width="36" height="17" as="geometry" />
        </mxCell>
        <mxCell id="vcufhArVfd2CTRCupKjw-386" style="edgeStyle=orthogonalEdgeStyle;rounded=0;orthogonalLoop=1;jettySize=auto;html=1;entryX=0.5;entryY=0;entryDx=0;entryDy=0;entryPerimeter=0;" edge="1" parent="vcufhArVfd2CTRCupKjw-372" source="vcufhArVfd2CTRCupKjw-383" target="vcufhArVfd2CTRCupKjw-376">
          <mxGeometry relative="1" as="geometry" />
        </mxCell>
        <mxCell id="vcufhArVfd2CTRCupKjw-391" style="edgeStyle=orthogonalEdgeStyle;rounded=0;orthogonalLoop=1;jettySize=auto;html=1;entryX=0.5;entryY=1;entryDx=0;entryDy=0;" edge="1" parent="vcufhArVfd2CTRCupKjw-372" source="vcufhArVfd2CTRCupKjw-389" target="vcufhArVfd2CTRCupKjw-382">
          <mxGeometry relative="1" as="geometry" />
        </mxCell>
        <mxCell id="vcufhArVfd2CTRCupKjw-389" value="&lt;div&gt;&lt;span style=&quot;background-color: transparent; color: light-dark(rgb(0, 0, 0), rgb(255, 255, 255));&quot;&gt;&lt;b&gt;Qdrant&lt;/b&gt;&lt;/span&gt;&lt;/div&gt;&lt;div&gt;user_images&lt;/div&gt;" style="shape=cylinder3;whiteSpace=wrap;html=1;boundedLbl=1;backgroundOutline=1;size=15;" vertex="1" parent="vcufhArVfd2CTRCupKjw-372">
          <mxGeometry x="372.77337110481585" y="212" width="114.49362606232295" height="83" as="geometry" />
        </mxCell>
        <mxCell id="vcufhArVfd2CTRCupKjw-390" value="" style="shape=image;verticalLabelPosition=bottom;labelBackgroundColor=default;verticalAlign=top;aspect=fixed;imageAspect=0;image=data:image/png,iVBORw0KGgoAAAANSUhEUgAAAMgAAADICAMAAACahl6sAAABRFBMVEX////cJEyyv+h1ib4kOGz/M2SUnrcyNWjZ4PS2stthMWC/i7P1Ll3hJFDnJ1TtKlj4+fzf4/Dw8viSosvZJk54hruElsXl6fN8j8GZp8/TLFXJNmDNMlx6hLmAf7Jjd6yGeKq+yeuyvdvI0OWMcaPFOWTCPGiPbqCDe69BVYmDjqydq9Gptte/yOGClMS/QGzQL1i0SnerU4EwRHimteCXaJmiXYydYpJMYJRYbKE1SX3Dg6y4qNE7NWhINGW3J1Kjq8FBUn/75upreJuuUH65RXI8UIWmWYfcOl95RnHLXoeOLFnFd59xMF/SSHKiKlZ9LlzAmMKxKFORLFnwPmylKlXoUHzJaJG7ncbPUnvHcJleMmL0OWjgVoOFPGq4v9D30trkVnX1vspZaJDyq7vumKrrhZvocYvP1N9MXIblYX1hb5UEN/r/AAAHwElEQVR4nO2d61vTSBTG2yG1Flss2AqUS11RQUXlInIR8MrKIqigi/dddde9/v/fN2mhySQzkzNnMpmZffp+J5zf43lP3syJpFDQrpHxmyP6f4t21S8P+LpcN12HqmZuD3R0e8Z0JUoavjDQ04Vh09WgNTI/QMlRq9RvDcQ1dstBq8xcTHD4uuiaVUYvsDA6Vhk1XZuE4uagNe9Mf90aE3EEVjFdIUhnmeaIWeWs6SpTNTqejhFo3G6rdPMITDanlpkUc9CyNrUMA8xBy8rUMnJTFiOQdamlflmqqyKyyyqnYR0ji1ILP4/AZElqEecRmOYtsEpaHoHJeGqB5BGYjKYWVXPQMpZa6hmYg5aZUZyNOWiN5T+K5fMITBfzTS24PAJTjqlFJqwjNJaXVVTyCEy5BPzhTEcuT9oDfhZ5BCatqaWuY+TypDG1sA8P9UlTask2j8CkIeAr5JG5O3fm0D+c9bEk3hxTTxvFYuPpFPbnM7WKQh5ZbRU7aq2iL5FZaoEeHjJ0ZaLY08QV9GUySS0KeWR6p0hpZxp9KfXUgs8jzaVGMabGUhN7NcXUopBHVhbiGIEWVtAXVEgtCnnk0lUWRqCrl9AXRaYWxjITqulFHkagRbRVUMtUfB5pPmuJOPxR/AxtFeljSYU8sjIpxgg0qWAVmdSiYo5r6RiBruWRWhTzCEz6Uwv+8LB5L8UctFRSS3rAV8kjAHPQUkgtKceSCnlkbie98KR2NFllBjusppYwGIHQqWXtjMgf5C7KIavMPALTAsoq7WVPDELIXemZdYWbR2C6Km2V9o+elwpCiFx/ifMITJKpZc3zQCAy/dV8Br5ziNSQSC3ryx4UxEcBPoZA8ghM0NTSPsEAghAyDrAKNI/AdA0Q8NvXPU8SJN0q04uZdFWo9NSy5nkIELFVJPMITK17IqusL3s4ENEons3MHLQmuaO4veF5aBDfKsyLzt3RgxGIk1que3HJgbCsMpU8H8lSjaWkVdYSGPIgCausajAHrXhqiZkDC0JbJXp4qE/R1NLJI9mAhP0VPzzUp15qYXUVHoSQoL8yyiMwdVMLu6tUQPzUwj481KeFlTYfAw9CKvliBCoLOPIHmZxF3z1tAumkDmyesQjkdPjgHr+sAYkevfMP6K0HiS9D5KeeFSCMp1fp+5ANIOyFoWQyMA/CPwyVymqmQcTH0xLp2SwI63mCEnz5YBQE8uIJ9AnTIMjkbDpGIFhqMQYiPgWhBEothkAacke4gNRiBgRyUkgrNbWYANlFbZxXdq0DOYfaEK3/ZB8IYkPU3vAGLQSBneCHagaHh3aCSC27usc8toKAl12nxzzWgsCWqeHJusUg6VZpRk7WrQZJsQp1Bmo5iMAqsTNQ20F4e+HE2sl+EJZV2sm1kwsgCauwFgRugFBWWWdW4whIaBXegsAZkK5VeNszp0B8q3C3Z46BEEE1fZA+SB+kD9IH6YP0QfogfZA+SB/EHMh9HMiBdSCNvYo8SPm5eFFtZvXW2pcFOUjbh5ra6i4cyoBsP0i9oLk9+4tNKMjWS8DlDL4wwLQKo4pXoLc4DILUagyrJGoYBL5XY/JdlFqtthu3SqwCgDnsAKkNxaxC/f7yayiGeZDa0NAeDwRmDvMgJxxD5z9FrBL+8kG59zNN/4sEIOfPvzmMg2wfSWHYAlKtHleiIOXX0v/XwYbWCkCq1b0QJDWP2AxSKlX3uyAfUe/529JaPkip5FvF2/oZg2EZSKl0LHHnsAukRoOUsByaQEjlPZjDbhBC3qW/D+4GCCH304aoKyCk8lZ4W3OktTrafPE/ASHkUHB3cwqEkH2uVRwDIZU9AYjt9xFa75hWccsjJzrHeh/cRRBCPiRHsZsgSas42VodxVKLuyDx1OIwCJ1aXAbxU0sY8N27j9A6TS2yHtG06CmM/oBGORnFUiCtA007RKV/lO4DpARI43lZ1zI0UH0GjXI4IdNaR1uetq1uVyP4/tpvQUEWPnaq0QpSKAyjUSp7IJDGq5NqNIMU6nirbL5IB3ndq1A3iJJVzu2KQR5sh9XoB1EaxW8FIK3BaDV5gPhWQZNUPnNAeubIFUTFKodvWCAvt2LV5ASiNoo/xUGi5sgbRMkq76tRkNYBo5ocQVRSy+ZxDyTII6ZBlEbxpy7IUdwcRkCUrPKhWipOfuRVkzeISmohn3/hV5M/iIpVBNWYAMFbxTYQtFXsA0FaxUYQVGqxEgTTX5aCyKcWa0FkR7HFIHKj2GYQKavYDSJhFdtBwFaxHwRoFQdAYFZxAgRy1uIISHpqcQUk+C6cAZCHGkBSRrGgGvSfbnv0qxaOgnAUc6vZeFj48hUDsnxG44e2+VbhlXOj84HDb/y/DMgDeaL50+e8Ucyu5rfeJyd/56GwQf7+Sy9GILZVWNVQPV7/zt7uskD0mYMWq7+S1SR6/PEfLJQkiFZz0GKkFlCPP/4TAPIk+49RC5SwStwcnB5PDrAYSB7moBU7awH3+LevAhB/VucvehRHy7kh7nF6gEVBbmgeuTxFrSLT49QAC0H+zdUctMJRLNfj9XCAnYLkNXJ5GqZA4D3eG2BdkOWHuY1cnk6sIt/jX/4JQUyZg1ZnFAc9LvsJ7M4sLvNndf7yrYLrcX+AlU2bg9ZZ7LPcd4k88h/I6J5xlManeQAAAABJRU5ErkJggg==;" vertex="1" parent="vcufhArVfd2CTRCupKjw-372">
          <mxGeometry x="358" y="201" width="40" height="40" as="geometry" />
        </mxCell>
        <mxCell id="vcufhArVfd2CTRCupKjw-392" value="&lt;div&gt;&lt;span style=&quot;font-size: 11px;&quot;&gt;vecs&lt;/span&gt;&lt;/div&gt;&lt;div&gt;&lt;span style=&quot;font-size: 11px;&quot;&gt;512DIM&lt;/span&gt;&lt;/div&gt;" style="text;html=1;align=left;verticalAlign=middle;whiteSpace=wrap;rounded=0;" vertex="1" parent="vcufhArVfd2CTRCupKjw-372">
          <mxGeometry x="437" y="181" width="36" height="17" as="geometry" />
        </mxCell>
        <mxCell id="vcufhArVfd2CTRCupKjw-395" value="" style="group;fillColor=#dae8fc;strokeColor=#6c8ebf;container=0;" connectable="0" vertex="1" parent="vcufhArVfd2CTRCupKjw-430">
          <mxGeometry x="351" y="761" width="523" height="291" as="geometry" />
        </mxCell>
        <mxCell id="vcufhArVfd2CTRCupKjw-396" value="" style="shape=image;verticalLabelPosition=bottom;labelBackgroundColor=default;verticalAlign=top;aspect=fixed;imageAspect=0;image=https://a.b.cdn.console.awsstatic.com/a/v1/KBJLRZENOPQL6KRM2T7ESBBGZPJ2UAW432YBKYUHK6YV6GJNV3PQ/icon/dca66d38fd916317687e1390a420c3fc-bcaecc0c3e268821d570a17049e38cc4.svg;" vertex="1" parent="vcufhArVfd2CTRCupKjw-430">
          <mxGeometry x="333" y="744" width="41" height="41" as="geometry" />
        </mxCell>
        <mxCell id="vcufhArVfd2CTRCupKjw-397" value="Search Video Pipeline" style="text;html=1;align=center;verticalAlign=middle;whiteSpace=wrap;rounded=0;fontStyle=1;fontSize=14;" vertex="1" parent="vcufhArVfd2CTRCupKjw-430">
          <mxGeometry x="516" y="759" width="210" height="30" as="geometry" />
        </mxCell>
        <mxCell id="vcufhArVfd2CTRCupKjw-398" value="&lt;div&gt;&lt;span style=&quot;background-color: transparent; color: light-dark(rgb(0, 0, 0), rgb(255, 255, 255));&quot;&gt;&lt;b&gt;Qdrant&lt;/b&gt;&lt;/span&gt;&lt;/div&gt;&lt;div&gt;watched_frames&lt;/div&gt;" style="shape=cylinder3;whiteSpace=wrap;html=1;boundedLbl=1;backgroundOutline=1;size=15;" vertex="1" parent="vcufhArVfd2CTRCupKjw-430">
          <mxGeometry x="640.6252407932016" y="958" width="114.49362606232295" height="83" as="geometry" />
        </mxCell>
        <mxCell id="vcufhArVfd2CTRCupKjw-399" value="" style="shape=image;verticalLabelPosition=bottom;labelBackgroundColor=default;verticalAlign=top;aspect=fixed;imageAspect=0;image=data:image/png,iVBORw0KGgoAAAANSUhEUgAAAMgAAADICAMAAACahl6sAAABRFBMVEX////cJEyyv+h1ib4kOGz/M2SUnrcyNWjZ4PS2stthMWC/i7P1Ll3hJFDnJ1TtKlj4+fzf4/Dw8viSosvZJk54hruElsXl6fN8j8GZp8/TLFXJNmDNMlx6hLmAf7Jjd6yGeKq+yeuyvdvI0OWMcaPFOWTCPGiPbqCDe69BVYmDjqydq9Gptte/yOGClMS/QGzQL1i0SnerU4EwRHimteCXaJmiXYydYpJMYJRYbKE1SX3Dg6y4qNE7NWhINGW3J1Kjq8FBUn/75upreJuuUH65RXI8UIWmWYfcOl95RnHLXoeOLFnFd59xMF/SSHKiKlZ9LlzAmMKxKFORLFnwPmylKlXoUHzJaJG7ncbPUnvHcJleMmL0OWjgVoOFPGq4v9D30trkVnX1vspZaJDyq7vumKrrhZvocYvP1N9MXIblYX1hb5UEN/r/AAAHwElEQVR4nO2d61vTSBTG2yG1Flss2AqUS11RQUXlInIR8MrKIqigi/dddde9/v/fN2mhySQzkzNnMpmZffp+J5zf43lP3syJpFDQrpHxmyP6f4t21S8P+LpcN12HqmZuD3R0e8Z0JUoavjDQ04Vh09WgNTI/QMlRq9RvDcQ1dstBq8xcTHD4uuiaVUYvsDA6Vhk1XZuE4uagNe9Mf90aE3EEVjFdIUhnmeaIWeWs6SpTNTqejhFo3G6rdPMITDanlpkUc9CyNrUMA8xBy8rUMnJTFiOQdamlflmqqyKyyyqnYR0ji1ILP4/AZElqEecRmOYtsEpaHoHJeGqB5BGYjKYWVXPQMpZa6hmYg5aZUZyNOWiN5T+K5fMITBfzTS24PAJTjqlFJqwjNJaXVVTyCEy5BPzhTEcuT9oDfhZ5BCatqaWuY+TypDG1sA8P9UlTask2j8CkIeAr5JG5O3fm0D+c9bEk3hxTTxvFYuPpFPbnM7WKQh5ZbRU7aq2iL5FZaoEeHjJ0ZaLY08QV9GUySS0KeWR6p0hpZxp9KfXUgs8jzaVGMabGUhN7NcXUopBHVhbiGIEWVtAXVEgtCnnk0lUWRqCrl9AXRaYWxjITqulFHkagRbRVUMtUfB5pPmuJOPxR/AxtFeljSYU8sjIpxgg0qWAVmdSiYo5r6RiBruWRWhTzCEz6Uwv+8LB5L8UctFRSS3rAV8kjAHPQUkgtKceSCnlkbie98KR2NFllBjusppYwGIHQqWXtjMgf5C7KIavMPALTAsoq7WVPDELIXemZdYWbR2C6Km2V9o+elwpCiFx/ifMITJKpZc3zQCAy/dV8Br5ziNSQSC3ryx4UxEcBPoZA8ghM0NTSPsEAghAyDrAKNI/AdA0Q8NvXPU8SJN0q04uZdFWo9NSy5nkIELFVJPMITK17IqusL3s4ENEons3MHLQmuaO4veF5aBDfKsyLzt3RgxGIk1que3HJgbCsMpU8H8lSjaWkVdYSGPIgCausajAHrXhqiZkDC0JbJXp4qE/R1NLJI9mAhP0VPzzUp15qYXUVHoSQoL8yyiMwdVMLu6tUQPzUwj481KeFlTYfAw9CKvliBCoLOPIHmZxF3z1tAumkDmyesQjkdPjgHr+sAYkevfMP6K0HiS9D5KeeFSCMp1fp+5ANIOyFoWQyMA/CPwyVymqmQcTH0xLp2SwI63mCEnz5YBQE8uIJ9AnTIMjkbDpGIFhqMQYiPgWhBEothkAacke4gNRiBgRyUkgrNbWYANlFbZxXdq0DOYfaEK3/ZB8IYkPU3vAGLQSBneCHagaHh3aCSC27usc8toKAl12nxzzWgsCWqeHJusUg6VZpRk7WrQZJsQp1Bmo5iMAqsTNQ20F4e+HE2sl+EJZV2sm1kwsgCauwFgRugFBWWWdW4whIaBXegsAZkK5VeNszp0B8q3C3Z46BEEE1fZA+SB+kD9IH6YP0QfogfZA+SB/EHMh9HMiBdSCNvYo8SPm5eFFtZvXW2pcFOUjbh5ra6i4cyoBsP0i9oLk9+4tNKMjWS8DlDL4wwLQKo4pXoLc4DILUagyrJGoYBL5XY/JdlFqtthu3SqwCgDnsAKkNxaxC/f7yayiGeZDa0NAeDwRmDvMgJxxD5z9FrBL+8kG59zNN/4sEIOfPvzmMg2wfSWHYAlKtHleiIOXX0v/XwYbWCkCq1b0QJDWP2AxSKlX3uyAfUe/529JaPkip5FvF2/oZg2EZSKl0LHHnsAukRoOUsByaQEjlPZjDbhBC3qW/D+4GCCH304aoKyCk8lZ4W3OktTrafPE/ASHkUHB3cwqEkH2uVRwDIZU9AYjt9xFa75hWccsjJzrHeh/cRRBCPiRHsZsgSas42VodxVKLuyDx1OIwCJ1aXAbxU0sY8N27j9A6TS2yHtG06CmM/oBGORnFUiCtA007RKV/lO4DpARI43lZ1zI0UH0GjXI4IdNaR1uetq1uVyP4/tpvQUEWPnaq0QpSKAyjUSp7IJDGq5NqNIMU6nirbL5IB3ndq1A3iJJVzu2KQR5sh9XoB1EaxW8FIK3BaDV5gPhWQZNUPnNAeubIFUTFKodvWCAvt2LV5ASiNoo/xUGi5sgbRMkq76tRkNYBo5ocQVRSy+ZxDyTII6ZBlEbxpy7IUdwcRkCUrPKhWipOfuRVkzeISmohn3/hV5M/iIpVBNWYAMFbxTYQtFXsA0FaxUYQVGqxEgTTX5aCyKcWa0FkR7HFIHKj2GYQKavYDSJhFdtBwFaxHwRoFQdAYFZxAgRy1uIISHpqcQUk+C6cAZCHGkBSRrGgGvSfbnv0qxaOgnAUc6vZeFj48hUDsnxG44e2+VbhlXOj84HDb/y/DMgDeaL50+e8Ucyu5rfeJyd/56GwQf7+Sy9GILZVWNVQPV7/zt7uskD0mYMWq7+S1SR6/PEfLJQkiFZz0GKkFlCPP/4TAPIk+49RC5SwStwcnB5PDrAYSB7moBU7awH3+LevAhB/VucvehRHy7kh7nF6gEVBbmgeuTxFrSLT49QAC0H+zdUctMJRLNfj9XCAnYLkNXJ5GqZA4D3eG2BdkOWHuY1cnk6sIt/jX/4JQUyZg1ZnFAc9LvsJ7M4sLvNndf7yrYLrcX+AlU2bg9ZZ7LPcd4k88h/I6J5xlManeQAAAABJRU5ErkJggg==;" vertex="1" parent="vcufhArVfd2CTRCupKjw-430">
          <mxGeometry x="625.8518696883857" y="947" width="40" height="40" as="geometry" />
        </mxCell>
        <mxCell id="vcufhArVfd2CTRCupKjw-400" value="&lt;div&gt;&lt;div&gt;&lt;b&gt;AWS EC2: g3&lt;/b&gt;&lt;b style=&quot;background-color: transparent; color: light-dark(rgb(0, 0, 0), rgb(255, 255, 255));&quot;&gt;.xmiddle (2vCPU, 1vGPU, 2vGiB)&lt;/b&gt;&lt;/div&gt;&lt;div&gt;&lt;b&gt;&lt;br&gt;&lt;/b&gt;&lt;/div&gt;&lt;div&gt;&lt;b&gt;&lt;br&gt;&lt;/b&gt;&lt;/div&gt;&lt;div&gt;&lt;br&gt;&lt;/div&gt;&lt;div&gt;&lt;br&gt;&lt;/div&gt;&lt;/div&gt;" style="rounded=0;whiteSpace=wrap;html=1;" vertex="1" parent="vcufhArVfd2CTRCupKjw-430">
          <mxGeometry x="405.9399999999996" y="816" width="399.91" height="99.75" as="geometry" />
        </mxCell>
        <mxCell id="vcufhArVfd2CTRCupKjw-401" value="" style="shape=image;verticalLabelPosition=bottom;labelBackgroundColor=default;verticalAlign=top;aspect=fixed;imageAspect=0;image=https://a.b.cdn.console.awsstatic.com/a/v1/RHSMMGZKYJXPPNI2IOC6Z63HJEW4FD5ZYMKJSXD7HQ5IPUTQR2TQ/icon/d88319dfa5d204f019b4284149886c59-7d586ea82f792b61a8c87de60565133d.svg;" vertex="1" parent="vcufhArVfd2CTRCupKjw-430">
          <mxGeometry x="388.0043909348442" y="794" width="38" height="38" as="geometry" />
        </mxCell>
        <mxCell id="vcufhArVfd2CTRCupKjw-402" value="&lt;span style=&quot;font-size: 11px;&quot;&gt;· Instance timeout: 60s (1min)&amp;nbsp; &amp;nbsp; &amp;nbsp; &amp;nbsp; &amp;nbsp; &amp;nbsp; &amp;nbsp; &amp;nbsp; &amp;nbsp; &amp;nbsp; &amp;nbsp;· Instance batch size: 1 video&lt;/span&gt;" style="text;html=1;align=left;verticalAlign=middle;whiteSpace=wrap;rounded=0;" vertex="1" parent="vcufhArVfd2CTRCupKjw-430">
          <mxGeometry x="450.2635977337113" y="799" width="432.6487252124646" height="17" as="geometry" />
        </mxCell>
        <mxCell id="vcufhArVfd2CTRCupKjw-403" value="1. Fetch Embeddings" style="rounded=1;whiteSpace=wrap;html=1;" vertex="1" parent="vcufhArVfd2CTRCupKjw-430">
          <mxGeometry x="429.99589235127496" y="855" width="161.17" height="46.44" as="geometry" />
        </mxCell>
        <mxCell id="vcufhArVfd2CTRCupKjw-404" value="2. Cosine Search [ i ]" style="rounded=1;whiteSpace=wrap;html=1;" vertex="1" parent="vcufhArVfd2CTRCupKjw-430">
          <mxGeometry x="630.3458923512744" y="855" width="135.65" height="46.44" as="geometry" />
        </mxCell>
        <mxCell id="vcufhArVfd2CTRCupKjw-405" style="edgeStyle=orthogonalEdgeStyle;rounded=0;orthogonalLoop=1;jettySize=auto;html=1;" edge="1" parent="vcufhArVfd2CTRCupKjw-430" source="vcufhArVfd2CTRCupKjw-403" target="vcufhArVfd2CTRCupKjw-404">
          <mxGeometry relative="1" as="geometry" />
        </mxCell>
        <mxCell id="vcufhArVfd2CTRCupKjw-406" value="&lt;div&gt;&lt;span style=&quot;font-size: 11px;&quot;&gt;vecs&amp;nbsp;&lt;/span&gt;&lt;span style=&quot;font-size: 11px; background-color: transparent; color: light-dark(rgb(0, 0, 0), rgb(255, 255, 255));&quot;&gt;[ ]&lt;/span&gt;&lt;/div&gt;&lt;div&gt;&lt;span style=&quot;font-size: 11px;&quot;&gt;512DIM&lt;/span&gt;&lt;/div&gt;" style="text;html=1;align=left;verticalAlign=middle;whiteSpace=wrap;rounded=0;" vertex="1" parent="vcufhArVfd2CTRCupKjw-430">
          <mxGeometry x="704.8499999999999" y="925" width="61.15" height="17" as="geometry" />
        </mxCell>
        <mxCell id="vcufhArVfd2CTRCupKjw-407" style="edgeStyle=orthogonalEdgeStyle;rounded=0;orthogonalLoop=1;jettySize=auto;html=1;entryX=0.5;entryY=0;entryDx=0;entryDy=0;entryPerimeter=0;" edge="1" parent="vcufhArVfd2CTRCupKjw-430" source="vcufhArVfd2CTRCupKjw-404" target="vcufhArVfd2CTRCupKjw-398">
          <mxGeometry relative="1" as="geometry" />
        </mxCell>
        <mxCell id="vcufhArVfd2CTRCupKjw-408" style="edgeStyle=orthogonalEdgeStyle;rounded=0;orthogonalLoop=1;jettySize=auto;html=1;entryX=0.5;entryY=1;entryDx=0;entryDy=0;" edge="1" parent="vcufhArVfd2CTRCupKjw-430" source="vcufhArVfd2CTRCupKjw-409" target="vcufhArVfd2CTRCupKjw-403">
          <mxGeometry relative="1" as="geometry" />
        </mxCell>
        <mxCell id="vcufhArVfd2CTRCupKjw-409" value="&lt;div&gt;&lt;span style=&quot;background-color: transparent; color: light-dark(rgb(0, 0, 0), rgb(255, 255, 255));&quot;&gt;&lt;b&gt;Qdrant&lt;/b&gt;&lt;/span&gt;&lt;/div&gt;&lt;div&gt;user_videos&lt;/div&gt;" style="shape=cylinder3;whiteSpace=wrap;html=1;boundedLbl=1;backgroundOutline=1;size=15;" vertex="1" parent="vcufhArVfd2CTRCupKjw-430">
          <mxGeometry x="453.77337110481585" y="956" width="114.49362606232295" height="83" as="geometry" />
        </mxCell>
        <mxCell id="vcufhArVfd2CTRCupKjw-410" value="" style="shape=image;verticalLabelPosition=bottom;labelBackgroundColor=default;verticalAlign=top;aspect=fixed;imageAspect=0;image=data:image/png,iVBORw0KGgoAAAANSUhEUgAAAMgAAADICAMAAACahl6sAAABRFBMVEX////cJEyyv+h1ib4kOGz/M2SUnrcyNWjZ4PS2stthMWC/i7P1Ll3hJFDnJ1TtKlj4+fzf4/Dw8viSosvZJk54hruElsXl6fN8j8GZp8/TLFXJNmDNMlx6hLmAf7Jjd6yGeKq+yeuyvdvI0OWMcaPFOWTCPGiPbqCDe69BVYmDjqydq9Gptte/yOGClMS/QGzQL1i0SnerU4EwRHimteCXaJmiXYydYpJMYJRYbKE1SX3Dg6y4qNE7NWhINGW3J1Kjq8FBUn/75upreJuuUH65RXI8UIWmWYfcOl95RnHLXoeOLFnFd59xMF/SSHKiKlZ9LlzAmMKxKFORLFnwPmylKlXoUHzJaJG7ncbPUnvHcJleMmL0OWjgVoOFPGq4v9D30trkVnX1vspZaJDyq7vumKrrhZvocYvP1N9MXIblYX1hb5UEN/r/AAAHwElEQVR4nO2d61vTSBTG2yG1Flss2AqUS11RQUXlInIR8MrKIqigi/dddde9/v/fN2mhySQzkzNnMpmZffp+J5zf43lP3syJpFDQrpHxmyP6f4t21S8P+LpcN12HqmZuD3R0e8Z0JUoavjDQ04Vh09WgNTI/QMlRq9RvDcQ1dstBq8xcTHD4uuiaVUYvsDA6Vhk1XZuE4uagNe9Mf90aE3EEVjFdIUhnmeaIWeWs6SpTNTqejhFo3G6rdPMITDanlpkUc9CyNrUMA8xBy8rUMnJTFiOQdamlflmqqyKyyyqnYR0ji1ILP4/AZElqEecRmOYtsEpaHoHJeGqB5BGYjKYWVXPQMpZa6hmYg5aZUZyNOWiN5T+K5fMITBfzTS24PAJTjqlFJqwjNJaXVVTyCEy5BPzhTEcuT9oDfhZ5BCatqaWuY+TypDG1sA8P9UlTask2j8CkIeAr5JG5O3fm0D+c9bEk3hxTTxvFYuPpFPbnM7WKQh5ZbRU7aq2iL5FZaoEeHjJ0ZaLY08QV9GUySS0KeWR6p0hpZxp9KfXUgs8jzaVGMabGUhN7NcXUopBHVhbiGIEWVtAXVEgtCnnk0lUWRqCrl9AXRaYWxjITqulFHkagRbRVUMtUfB5pPmuJOPxR/AxtFeljSYU8sjIpxgg0qWAVmdSiYo5r6RiBruWRWhTzCEz6Uwv+8LB5L8UctFRSS3rAV8kjAHPQUkgtKceSCnlkbie98KR2NFllBjusppYwGIHQqWXtjMgf5C7KIavMPALTAsoq7WVPDELIXemZdYWbR2C6Km2V9o+elwpCiFx/ifMITJKpZc3zQCAy/dV8Br5ziNSQSC3ryx4UxEcBPoZA8ghM0NTSPsEAghAyDrAKNI/AdA0Q8NvXPU8SJN0q04uZdFWo9NSy5nkIELFVJPMITK17IqusL3s4ENEons3MHLQmuaO4veF5aBDfKsyLzt3RgxGIk1que3HJgbCsMpU8H8lSjaWkVdYSGPIgCausajAHrXhqiZkDC0JbJXp4qE/R1NLJI9mAhP0VPzzUp15qYXUVHoSQoL8yyiMwdVMLu6tUQPzUwj481KeFlTYfAw9CKvliBCoLOPIHmZxF3z1tAumkDmyesQjkdPjgHr+sAYkevfMP6K0HiS9D5KeeFSCMp1fp+5ANIOyFoWQyMA/CPwyVymqmQcTH0xLp2SwI63mCEnz5YBQE8uIJ9AnTIMjkbDpGIFhqMQYiPgWhBEothkAacke4gNRiBgRyUkgrNbWYANlFbZxXdq0DOYfaEK3/ZB8IYkPU3vAGLQSBneCHagaHh3aCSC27usc8toKAl12nxzzWgsCWqeHJusUg6VZpRk7WrQZJsQp1Bmo5iMAqsTNQ20F4e+HE2sl+EJZV2sm1kwsgCauwFgRugFBWWWdW4whIaBXegsAZkK5VeNszp0B8q3C3Z46BEEE1fZA+SB+kD9IH6YP0QfogfZA+SB/EHMh9HMiBdSCNvYo8SPm5eFFtZvXW2pcFOUjbh5ra6i4cyoBsP0i9oLk9+4tNKMjWS8DlDL4wwLQKo4pXoLc4DILUagyrJGoYBL5XY/JdlFqtthu3SqwCgDnsAKkNxaxC/f7yayiGeZDa0NAeDwRmDvMgJxxD5z9FrBL+8kG59zNN/4sEIOfPvzmMg2wfSWHYAlKtHleiIOXX0v/XwYbWCkCq1b0QJDWP2AxSKlX3uyAfUe/529JaPkip5FvF2/oZg2EZSKl0LHHnsAukRoOUsByaQEjlPZjDbhBC3qW/D+4GCCH304aoKyCk8lZ4W3OktTrafPE/ASHkUHB3cwqEkH2uVRwDIZU9AYjt9xFa75hWccsjJzrHeh/cRRBCPiRHsZsgSas42VodxVKLuyDx1OIwCJ1aXAbxU0sY8N27j9A6TS2yHtG06CmM/oBGORnFUiCtA007RKV/lO4DpARI43lZ1zI0UH0GjXI4IdNaR1uetq1uVyP4/tpvQUEWPnaq0QpSKAyjUSp7IJDGq5NqNIMU6nirbL5IB3ndq1A3iJJVzu2KQR5sh9XoB1EaxW8FIK3BaDV5gPhWQZNUPnNAeubIFUTFKodvWCAvt2LV5ASiNoo/xUGi5sgbRMkq76tRkNYBo5ocQVRSy+ZxDyTII6ZBlEbxpy7IUdwcRkCUrPKhWipOfuRVkzeISmohn3/hV5M/iIpVBNWYAMFbxTYQtFXsA0FaxUYQVGqxEgTTX5aCyKcWa0FkR7HFIHKj2GYQKavYDSJhFdtBwFaxHwRoFQdAYFZxAgRy1uIISHpqcQUk+C6cAZCHGkBSRrGgGvSfbnv0qxaOgnAUc6vZeFj48hUDsnxG44e2+VbhlXOj84HDb/y/DMgDeaL50+e8Ucyu5rfeJyd/56GwQf7+Sy9GILZVWNVQPV7/zt7uskD0mYMWq7+S1SR6/PEfLJQkiFZz0GKkFlCPP/4TAPIk+49RC5SwStwcnB5PDrAYSB7moBU7awH3+LevAhB/VucvehRHy7kh7nF6gEVBbmgeuTxFrSLT49QAC0H+zdUctMJRLNfj9XCAnYLkNXJ5GqZA4D3eG2BdkOWHuY1cnk6sIt/jX/4JQUyZg1ZnFAc9LvsJ7M4sLvNndf7yrYLrcX+AlU2bg9ZZ7LPcd4k88h/I6J5xlManeQAAAABJRU5ErkJggg==;" vertex="1" parent="vcufhArVfd2CTRCupKjw-430">
          <mxGeometry x="439" y="945" width="40" height="40" as="geometry" />
        </mxCell>
        <mxCell id="vcufhArVfd2CTRCupKjw-411" value="&lt;div&gt;&lt;span style=&quot;font-size: 11px;&quot;&gt;vecs [ ]&lt;/span&gt;&lt;/div&gt;&lt;div&gt;&lt;span style=&quot;font-size: 11px;&quot;&gt;512DIM&lt;/span&gt;&lt;/div&gt;" style="text;html=1;align=left;verticalAlign=middle;whiteSpace=wrap;rounded=0;" vertex="1" parent="vcufhArVfd2CTRCupKjw-430">
          <mxGeometry x="518" y="925" width="65" height="17" as="geometry" />
        </mxCell>
        <mxCell id="OlxrDQdH8DIg7lyY-xWF-1" value="&lt;div&gt;&lt;span style=&quot;font-size: 11px;&quot;&gt;i&lt;/span&gt;&lt;/div&gt;" style="text;html=1;align=left;verticalAlign=middle;whiteSpace=wrap;rounded=0;" vertex="1" parent="vcufhArVfd2CTRCupKjw-430">
          <mxGeometry x="608" y="860" width="18" height="17" as="geometry" />
        </mxCell>
        <mxCell id="m2SvXAgt29s_vC6wOjVH-1" value="&lt;b&gt;&lt;font style=&quot;font-size: 14px;&quot;&gt;Oriane Se&lt;/font&gt;&lt;/b&gt;&lt;b style=&quot;background-color: transparent; color: light-dark(rgb(0, 0, 0), rgb(255, 255, 255));&quot;&gt;&lt;font style=&quot;font-size: 14px;&quot;&gt;arch API&lt;/font&gt;&lt;/b&gt;&lt;div&gt;(FastAPI - K8s)&lt;/div&gt;" style="rounded=0;whiteSpace=wrap;html=1;fillColor=#f8cecc;strokeColor=#b85450;" vertex="1" parent="1">
          <mxGeometry x="-3759" y="3851" width="185" height="60" as="geometry" />
        </mxCell>
        <mxCell id="m2SvXAgt29s_vC6wOjVH-2" value="&lt;div&gt;&lt;span style=&quot;background-color: transparent; color: light-dark(rgb(0, 0, 0), rgb(255, 255, 255));&quot;&gt;&lt;b&gt;Qdrant&lt;/b&gt;&lt;/span&gt;&lt;/div&gt;&lt;div&gt;watched_frames&lt;/div&gt;" style="shape=cylinder3;whiteSpace=wrap;html=1;boundedLbl=1;backgroundOutline=1;size=15;" vertex="1" parent="1">
          <mxGeometry x="-3668.226628895184" y="3691" width="114.49362606232295" height="83" as="geometry" />
        </mxCell>
        <mxCell id="m2SvXAgt29s_vC6wOjVH-3" value="" style="shape=image;verticalLabelPosition=bottom;labelBackgroundColor=default;verticalAlign=top;aspect=fixed;imageAspect=0;image=data:image/png,iVBORw0KGgoAAAANSUhEUgAAAMgAAADICAMAAACahl6sAAABRFBMVEX////cJEyyv+h1ib4kOGz/M2SUnrcyNWjZ4PS2stthMWC/i7P1Ll3hJFDnJ1TtKlj4+fzf4/Dw8viSosvZJk54hruElsXl6fN8j8GZp8/TLFXJNmDNMlx6hLmAf7Jjd6yGeKq+yeuyvdvI0OWMcaPFOWTCPGiPbqCDe69BVYmDjqydq9Gptte/yOGClMS/QGzQL1i0SnerU4EwRHimteCXaJmiXYydYpJMYJRYbKE1SX3Dg6y4qNE7NWhINGW3J1Kjq8FBUn/75upreJuuUH65RXI8UIWmWYfcOl95RnHLXoeOLFnFd59xMF/SSHKiKlZ9LlzAmMKxKFORLFnwPmylKlXoUHzJaJG7ncbPUnvHcJleMmL0OWjgVoOFPGq4v9D30trkVnX1vspZaJDyq7vumKrrhZvocYvP1N9MXIblYX1hb5UEN/r/AAAHwElEQVR4nO2d61vTSBTG2yG1Flss2AqUS11RQUXlInIR8MrKIqigi/dddde9/v/fN2mhySQzkzNnMpmZffp+J5zf43lP3syJpFDQrpHxmyP6f4t21S8P+LpcN12HqmZuD3R0e8Z0JUoavjDQ04Vh09WgNTI/QMlRq9RvDcQ1dstBq8xcTHD4uuiaVUYvsDA6Vhk1XZuE4uagNe9Mf90aE3EEVjFdIUhnmeaIWeWs6SpTNTqejhFo3G6rdPMITDanlpkUc9CyNrUMA8xBy8rUMnJTFiOQdamlflmqqyKyyyqnYR0ji1ILP4/AZElqEecRmOYtsEpaHoHJeGqB5BGYjKYWVXPQMpZa6hmYg5aZUZyNOWiN5T+K5fMITBfzTS24PAJTjqlFJqwjNJaXVVTyCEy5BPzhTEcuT9oDfhZ5BCatqaWuY+TypDG1sA8P9UlTask2j8CkIeAr5JG5O3fm0D+c9bEk3hxTTxvFYuPpFPbnM7WKQh5ZbRU7aq2iL5FZaoEeHjJ0ZaLY08QV9GUySS0KeWR6p0hpZxp9KfXUgs8jzaVGMabGUhN7NcXUopBHVhbiGIEWVtAXVEgtCnnk0lUWRqCrl9AXRaYWxjITqulFHkagRbRVUMtUfB5pPmuJOPxR/AxtFeljSYU8sjIpxgg0qWAVmdSiYo5r6RiBruWRWhTzCEz6Uwv+8LB5L8UctFRSS3rAV8kjAHPQUkgtKceSCnlkbie98KR2NFllBjusppYwGIHQqWXtjMgf5C7KIavMPALTAsoq7WVPDELIXemZdYWbR2C6Km2V9o+elwpCiFx/ifMITJKpZc3zQCAy/dV8Br5ziNSQSC3ryx4UxEcBPoZA8ghM0NTSPsEAghAyDrAKNI/AdA0Q8NvXPU8SJN0q04uZdFWo9NSy5nkIELFVJPMITK17IqusL3s4ENEons3MHLQmuaO4veF5aBDfKsyLzt3RgxGIk1que3HJgbCsMpU8H8lSjaWkVdYSGPIgCausajAHrXhqiZkDC0JbJXp4qE/R1NLJI9mAhP0VPzzUp15qYXUVHoSQoL8yyiMwdVMLu6tUQPzUwj481KeFlTYfAw9CKvliBCoLOPIHmZxF3z1tAumkDmyesQjkdPjgHr+sAYkevfMP6K0HiS9D5KeeFSCMp1fp+5ANIOyFoWQyMA/CPwyVymqmQcTH0xLp2SwI63mCEnz5YBQE8uIJ9AnTIMjkbDpGIFhqMQYiPgWhBEothkAacke4gNRiBgRyUkgrNbWYANlFbZxXdq0DOYfaEK3/ZB8IYkPU3vAGLQSBneCHagaHh3aCSC27usc8toKAl12nxzzWgsCWqeHJusUg6VZpRk7WrQZJsQp1Bmo5iMAqsTNQ20F4e+HE2sl+EJZV2sm1kwsgCauwFgRugFBWWWdW4whIaBXegsAZkK5VeNszp0B8q3C3Z46BEEE1fZA+SB+kD9IH6YP0QfogfZA+SB/EHMh9HMiBdSCNvYo8SPm5eFFtZvXW2pcFOUjbh5ra6i4cyoBsP0i9oLk9+4tNKMjWS8DlDL4wwLQKo4pXoLc4DILUagyrJGoYBL5XY/JdlFqtthu3SqwCgDnsAKkNxaxC/f7yayiGeZDa0NAeDwRmDvMgJxxD5z9FrBL+8kG59zNN/4sEIOfPvzmMg2wfSWHYAlKtHleiIOXX0v/XwYbWCkCq1b0QJDWP2AxSKlX3uyAfUe/529JaPkip5FvF2/oZg2EZSKl0LHHnsAukRoOUsByaQEjlPZjDbhBC3qW/D+4GCCH304aoKyCk8lZ4W3OktTrafPE/ASHkUHB3cwqEkH2uVRwDIZU9AYjt9xFa75hWccsjJzrHeh/cRRBCPiRHsZsgSas42VodxVKLuyDx1OIwCJ1aXAbxU0sY8N27j9A6TS2yHtG06CmM/oBGORnFUiCtA007RKV/lO4DpARI43lZ1zI0UH0GjXI4IdNaR1uetq1uVyP4/tpvQUEWPnaq0QpSKAyjUSp7IJDGq5NqNIMU6nirbL5IB3ndq1A3iJJVzu2KQR5sh9XoB1EaxW8FIK3BaDV5gPhWQZNUPnNAeubIFUTFKodvWCAvt2LV5ASiNoo/xUGi5sgbRMkq76tRkNYBo5ocQVRSy+ZxDyTII6ZBlEbxpy7IUdwcRkCUrPKhWipOfuRVkzeISmohn3/hV5M/iIpVBNWYAMFbxTYQtFXsA0FaxUYQVGqxEgTTX5aCyKcWa0FkR7HFIHKj2GYQKavYDSJhFdtBwFaxHwRoFQdAYFZxAgRy1uIISHpqcQUk+C6cAZCHGkBSRrGgGvSfbnv0qxaOgnAUc6vZeFj48hUDsnxG44e2+VbhlXOj84HDb/y/DMgDeaL50+e8Ucyu5rfeJyd/56GwQf7+Sy9GILZVWNVQPV7/zt7uskD0mYMWq7+S1SR6/PEfLJQkiFZz0GKkFlCPP/4TAPIk+49RC5SwStwcnB5PDrAYSB7moBU7awH3+LevAhB/VucvehRHy7kh7nF6gEVBbmgeuTxFrSLT49QAC0H+zdUctMJRLNfj9XCAnYLkNXJ5GqZA4D3eG2BdkOWHuY1cnk6sIt/jX/4JQUyZg1ZnFAc9LvsJ7M4sLvNndf7yrYLrcX+AlU2bg9ZZ7LPcd4k88h/I6J5xlManeQAAAABJRU5ErkJggg==;" vertex="1" parent="1">
          <mxGeometry x="-3683" y="3680" width="40" height="40" as="geometry" />
        </mxCell>
        <mxCell id="m2SvXAgt29s_vC6wOjVH-4" value="&lt;div&gt;&lt;span style=&quot;font-size: 11px;&quot;&gt;vecs&amp;nbsp;&lt;/span&gt;&lt;span style=&quot;font-size: 11px; background-color: transparent; color: light-dark(rgb(0, 0, 0), rgb(255, 255, 255));&quot;&gt;[ ]&lt;/span&gt;&lt;/div&gt;&lt;div&gt;&lt;span style=&quot;font-size: 11px;&quot;&gt;512DIM&lt;/span&gt;&lt;/div&gt;" style="text;html=1;align=left;verticalAlign=middle;whiteSpace=wrap;rounded=0;" vertex="1" parent="1">
          <mxGeometry x="-3604.001869688386" y="3658" width="61.15" height="17" as="geometry" />
        </mxCell>
        <mxCell id="m2SvXAgt29s_vC6wOjVH-5" value="&lt;span style=&quot;color: rgb(0, 0, 0); font-family: Helvetica; font-style: normal; font-variant-ligatures: normal; font-variant-caps: normal; letter-spacing: normal; orphans: 2; text-align: center; text-indent: 0px; text-transform: none; widows: 2; word-spacing: 0px; -webkit-text-stroke-width: 0px; white-space: normal; background-color: rgb(236, 236, 236); text-decoration-thickness: initial; text-decoration-style: initial; text-decoration-color: initial; float: none; display: inline !important;&quot;&gt;&lt;b style=&quot;&quot;&gt;&lt;font style=&quot;font-size: 14px;&quot;&gt;OrianeApp&lt;/font&gt;&lt;/b&gt;&lt;/span&gt;&lt;br style=&quot;forced-color-adjust: none; color: rgb(0, 0, 0); font-family: Helvetica; font-size: 12px; font-style: normal; font-variant-ligatures: normal; font-variant-caps: normal; font-weight: 400; letter-spacing: normal; orphans: 2; text-align: center; text-indent: 0px; text-transform: none; widows: 2; word-spacing: 0px; -webkit-text-stroke-width: 0px; white-space: normal; background-color: rgb(236, 236, 236); text-decoration-thickness: initial; text-decoration-style: initial; text-decoration-color: initial;&quot;&gt;&lt;span style=&quot;color: rgb(0, 0, 0); font-family: Helvetica; font-size: 12px; font-style: normal; font-variant-ligatures: normal; font-variant-caps: normal; font-weight: 400; letter-spacing: normal; orphans: 2; text-align: center; text-indent: 0px; text-transform: none; widows: 2; word-spacing: 0px; -webkit-text-stroke-width: 0px; white-space: normal; background-color: rgb(236, 236, 236); text-decoration-thickness: initial; text-decoration-style: initial; text-decoration-color: initial; float: none; display: inline !important;&quot;&gt;(Nuxt-Bun)&lt;/span&gt;" style="rounded=0;whiteSpace=wrap;html=1;fillColor=#e1d5e7;strokeColor=#9673a6;" vertex="1" parent="1">
          <mxGeometry x="-3708" y="4068" width="120" height="60" as="geometry" />
        </mxCell>
        <mxCell id="m2SvXAgt29s_vC6wOjVH-6" value="Bearer" style="text;html=1;align=center;verticalAlign=middle;whiteSpace=wrap;rounded=0;fontSize=11;" vertex="1" parent="1">
          <mxGeometry x="-3666" y="4150" width="83" height="30" as="geometry" />
        </mxCell>
        <mxCell id="m2SvXAgt29s_vC6wOjVH-7" value="&lt;span style=&quot;color: rgb(0, 0, 0); font-family: Helvetica; font-style: normal; font-variant-ligatures: normal; font-variant-caps: normal; letter-spacing: normal; orphans: 2; text-align: center; text-indent: 0px; text-transform: none; widows: 2; word-spacing: 0px; -webkit-text-stroke-width: 0px; white-space: normal; background-color: rgb(236, 236, 236); text-decoration-thickness: initial; text-decoration-style: initial; text-decoration-color: initial; float: none; display: inline !important;&quot;&gt;&lt;b style=&quot;&quot;&gt;&lt;font style=&quot;font-size: 14px;&quot;&gt;OrianeAdmin&lt;/font&gt;&lt;/b&gt;&lt;/span&gt;&lt;br style=&quot;forced-color-adjust: none; color: rgb(0, 0, 0); font-family: Helvetica; font-size: 12px; font-style: normal; font-variant-ligatures: normal; font-variant-caps: normal; font-weight: 400; letter-spacing: normal; orphans: 2; text-align: center; text-indent: 0px; text-transform: none; widows: 2; word-spacing: 0px; -webkit-text-stroke-width: 0px; white-space: normal; background-color: rgb(236, 236, 236); text-decoration-thickness: initial; text-decoration-style: initial; text-decoration-color: initial;&quot;&gt;&lt;span style=&quot;color: rgb(0, 0, 0); font-family: Helvetica; font-size: 12px; font-style: normal; font-variant-ligatures: normal; font-variant-caps: normal; font-weight: 400; letter-spacing: normal; orphans: 2; text-align: center; text-indent: 0px; text-transform: none; widows: 2; word-spacing: 0px; -webkit-text-stroke-width: 0px; white-space: normal; background-color: rgb(236, 236, 236); text-decoration-thickness: initial; text-decoration-style: initial; text-decoration-color: initial; float: none; display: inline !important;&quot;&gt;(React-NestJS-Bun)&lt;/span&gt;" style="rounded=0;whiteSpace=wrap;html=1;fillColor=#e1d5e7;strokeColor=#9673a6;" vertex="1" parent="1">
          <mxGeometry x="-3534" y="4068" width="120" height="60" as="geometry" />
        </mxCell>
        <mxCell id="m2SvXAgt29s_vC6wOjVH-8" value="" style="shape=image;verticalLabelPosition=bottom;labelBackgroundColor=default;verticalAlign=top;aspect=fixed;imageAspect=0;image=https://a.b.cdn.console.awsstatic.com/a/v1/4O423MMLOJSHN2IMAAUMYOMXKD76H7SBF6BPXC4TTKXRXKBG7AZA/icon/051de32597041e41f73b97d61c67a13b-9cbdaf85e3bcf29b656fdedd8e6d1305.svg;" vertex="1" parent="1">
          <mxGeometry x="-3550" y="4048" width="35" height="35" as="geometry" />
        </mxCell>
        <mxCell id="m2SvXAgt29s_vC6wOjVH-9" value="Bearer" style="text;html=1;align=center;verticalAlign=middle;whiteSpace=wrap;rounded=0;fontSize=11;" vertex="1" parent="1">
          <mxGeometry x="-3490" y="4150" width="83" height="30" as="geometry" />
        </mxCell>
        <mxCell id="m2SvXAgt29s_vC6wOjVH-10" value="" style="group" connectable="0" vertex="1" parent="1">
          <mxGeometry x="-3872" y="4050" width="124.5" height="90" as="geometry" />
        </mxCell>
        <mxCell id="m2SvXAgt29s_vC6wOjVH-11" value="&lt;div&gt;&lt;b&gt;Postgres DB&lt;/b&gt;&lt;/div&gt;oriane-app" style="shape=cylinder3;whiteSpace=wrap;html=1;boundedLbl=1;backgroundOutline=1;size=15;" vertex="1" parent="m2SvXAgt29s_vC6wOjVH-10">
          <mxGeometry x="16" y="7" width="108.5" height="83" as="geometry" />
        </mxCell>
        <mxCell id="m2SvXAgt29s_vC6wOjVH-12" value="" style="shape=image;verticalLabelPosition=bottom;labelBackgroundColor=default;verticalAlign=top;aspect=fixed;imageAspect=0;image=https://images.seeklogo.com/logo-png/43/1/aws-aurora-logo-png_seeklogo-430929.png;" vertex="1" parent="m2SvXAgt29s_vC6wOjVH-10">
          <mxGeometry width="38" height="38" as="geometry" />
        </mxCell>
        <mxCell id="m2SvXAgt29s_vC6wOjVH-13" value="" style="shape=image;verticalLabelPosition=bottom;labelBackgroundColor=default;verticalAlign=top;aspect=fixed;imageAspect=0;image=https://a.b.cdn.console.awsstatic.com/a/v1/RHSMMGZKYJXPPNI2IOC6Z63HJEW4FD5ZYMKJSXD7HQ5IPUTQR2TQ/icon/d88319dfa5d204f019b4284149886c59-7d586ea82f792b61a8c87de60565133d.svg;" vertex="1" parent="m2SvXAgt29s_vC6wOjVH-10">
          <mxGeometry x="49" y="-16" width="38" height="38" as="geometry" />
        </mxCell>
        <mxCell id="m2SvXAgt29s_vC6wOjVH-14" value="&lt;div&gt;&lt;b&gt;Nitro&lt;/b&gt;&lt;/div&gt;&lt;div&gt;&lt;b&gt;Servers&lt;/b&gt;&lt;/div&gt;" style="text;html=1;align=center;verticalAlign=middle;whiteSpace=wrap;rounded=0;" vertex="1" parent="1">
          <mxGeometry x="-3606" y="4108" width="90" height="39" as="geometry" />
        </mxCell>
        <mxCell id="m2SvXAgt29s_vC6wOjVH-15" value="" style="shape=image;verticalLabelPosition=bottom;labelBackgroundColor=default;verticalAlign=top;aspect=fixed;imageAspect=0;image=https://a.b.cdn.console.awsstatic.com/a/v1/4O423MMLOJSHN2IMAAUMYOMXKD76H7SBF6BPXC4TTKXRXKBG7AZA/icon/051de32597041e41f73b97d61c67a13b-9cbdaf85e3bcf29b656fdedd8e6d1305.svg;" vertex="1" parent="1">
          <mxGeometry x="-3723" y="4050" width="35" height="35" as="geometry" />
        </mxCell>
        <mxCell id="m2SvXAgt29s_vC6wOjVH-16" value="ApiKey" style="text;html=1;align=center;verticalAlign=middle;whiteSpace=wrap;rounded=0;fontSize=11;" vertex="1" parent="1">
          <mxGeometry x="-3759" y="4149" width="83" height="28" as="geometry" />
        </mxCell>
        <mxCell id="m2SvXAgt29s_vC6wOjVH-17" value="" style="group" connectable="0" vertex="1" parent="1">
          <mxGeometry x="-3393" y="4049" width="124.5" height="90" as="geometry" />
        </mxCell>
        <mxCell id="m2SvXAgt29s_vC6wOjVH-18" value="&lt;div&gt;&lt;b&gt;Postgres DB&lt;/b&gt;&lt;/div&gt;oriane-admin" style="shape=cylinder3;whiteSpace=wrap;html=1;boundedLbl=1;backgroundOutline=1;size=15;" vertex="1" parent="m2SvXAgt29s_vC6wOjVH-17">
          <mxGeometry x="16" y="7" width="108.5" height="83" as="geometry" />
        </mxCell>
        <mxCell id="m2SvXAgt29s_vC6wOjVH-19" value="" style="shape=image;verticalLabelPosition=bottom;labelBackgroundColor=default;verticalAlign=top;aspect=fixed;imageAspect=0;image=https://images.seeklogo.com/logo-png/43/1/aws-aurora-logo-png_seeklogo-430929.png;" vertex="1" parent="m2SvXAgt29s_vC6wOjVH-17">
          <mxGeometry width="38" height="38" as="geometry" />
        </mxCell>
        <mxCell id="m2SvXAgt29s_vC6wOjVH-20" value="" style="shape=image;verticalLabelPosition=bottom;labelBackgroundColor=default;verticalAlign=top;aspect=fixed;imageAspect=0;image=https://a.b.cdn.console.awsstatic.com/a/v1/RHSMMGZKYJXPPNI2IOC6Z63HJEW4FD5ZYMKJSXD7HQ5IPUTQR2TQ/icon/d88319dfa5d204f019b4284149886c59-7d586ea82f792b61a8c87de60565133d.svg;" vertex="1" parent="m2SvXAgt29s_vC6wOjVH-17">
          <mxGeometry x="50" y="-16" width="38" height="38" as="geometry" />
        </mxCell>
        <mxCell id="m2SvXAgt29s_vC6wOjVH-21" style="edgeStyle=orthogonalEdgeStyle;rounded=0;orthogonalLoop=1;jettySize=auto;html=1;" edge="1" parent="1" source="m2SvXAgt29s_vC6wOjVH-5" target="m2SvXAgt29s_vC6wOjVH-11">
          <mxGeometry relative="1" as="geometry" />
        </mxCell>
        <mxCell id="m2SvXAgt29s_vC6wOjVH-22" style="edgeStyle=orthogonalEdgeStyle;rounded=0;orthogonalLoop=1;jettySize=auto;html=1;" edge="1" parent="1" source="m2SvXAgt29s_vC6wOjVH-7" target="m2SvXAgt29s_vC6wOjVH-18">
          <mxGeometry relative="1" as="geometry" />
        </mxCell>
        <mxCell id="m2SvXAgt29s_vC6wOjVH-23" style="edgeStyle=orthogonalEdgeStyle;rounded=0;orthogonalLoop=1;jettySize=auto;html=1;" edge="1" parent="1" source="m2SvXAgt29s_vC6wOjVH-5" target="m2SvXAgt29s_vC6wOjVH-7">
          <mxGeometry relative="1" as="geometry" />
        </mxCell>
        <mxCell id="m-k4vM6303Ic2dBzXfqt-1" value="&lt;div&gt;&lt;b&gt;AWS S3&lt;/b&gt;&lt;/div&gt;oriane-contents" style="shape=cylinder3;whiteSpace=wrap;html=1;boundedLbl=1;backgroundOutline=1;size=15;" vertex="1" parent="1">
          <mxGeometry x="-3498.5" y="3683" width="108.5" height="83" as="geometry" />
        </mxCell>
        <mxCell id="m-k4vM6303Ic2dBzXfqt-2" value="" style="shape=image;verticalLabelPosition=bottom;labelBackgroundColor=default;verticalAlign=top;aspect=fixed;imageAspect=0;image=https://cdn.worldvectorlogo.com/logos/amazon-s3-simple-storage-service.svg;" vertex="1" parent="1">
          <mxGeometry x="-3511" y="3676" width="35" height="35" as="geometry" />
        </mxCell>
        <mxCell id="m-k4vM6303Ic2dBzXfqt-3" value="&lt;div&gt;&lt;b&gt;AWS S3&lt;/b&gt;&lt;/div&gt;oriane-frames" style="shape=cylinder3;whiteSpace=wrap;html=1;boundedLbl=1;backgroundOutline=1;size=15;" vertex="1" parent="1">
          <mxGeometry x="-3352.5" y="3685" width="108.5" height="83" as="geometry" />
        </mxCell>
        <mxCell id="m-k4vM6303Ic2dBzXfqt-4" value="" style="shape=image;verticalLabelPosition=bottom;labelBackgroundColor=default;verticalAlign=top;aspect=fixed;imageAspect=0;image=https://cdn.worldvectorlogo.com/logos/amazon-s3-simple-storage-service.svg;" vertex="1" parent="1">
          <mxGeometry x="-3367" y="3676" width="35" height="35" as="geometry" />
        </mxCell>
        <mxCell id="3TOltIRbHm5_m__PcK03-1" value="&lt;b&gt;&lt;font style=&quot;font-size: 14px;&quot;&gt;Oriane Pipeline&lt;/font&gt;&lt;/b&gt;&lt;b style=&quot;background-color: transparent; color: light-dark(rgb(0, 0, 0), rgb(255, 255, 255));&quot;&gt;&lt;font style=&quot;font-size: 14px;&quot;&gt;&amp;nbsp;API&lt;/font&gt;&lt;/b&gt;&lt;div&gt;(FastAPI - K8s)&lt;/div&gt;" style="rounded=0;whiteSpace=wrap;html=1;fillColor=#f8cecc;strokeColor=#b85450;" vertex="1" parent="1">
          <mxGeometry x="-3505" y="3850" width="185" height="60" as="geometry" />
        </mxCell>
      </root>
    </mxGraphModel>
  </diagram>
</mxfile>
